%TF.GenerationSoftware,KiCad,Pcbnew,5.1.9*%
%TF.CreationDate,2021-03-21T20:26:03+00:00*%
%TF.ProjectId,OpenWindow_PCB,4f70656e-5769-46e6-946f-775f5043422e,rev?*%
%TF.SameCoordinates,Original*%
%TF.FileFunction,Legend,Bot*%
%TF.FilePolarity,Positive*%
%FSLAX46Y46*%
G04 Gerber Fmt 4.6, Leading zero omitted, Abs format (unit mm)*
G04 Created by KiCad (PCBNEW 5.1.9) date 2021-03-21 20:26:03*
%MOMM*%
%LPD*%
G01*
G04 APERTURE LIST*
%ADD10C,0.150000*%
G04 APERTURE END LIST*
D10*
X113745238Y-98561904D02*
X113745238Y-99133333D01*
X113783333Y-99247619D01*
X113859523Y-99323809D01*
X113973809Y-99361904D01*
X114050000Y-99361904D01*
X112983333Y-99361904D02*
X113364285Y-99361904D01*
X113364285Y-98561904D01*
X112259523Y-99285714D02*
X112297619Y-99323809D01*
X112411904Y-99361904D01*
X112488095Y-99361904D01*
X112602380Y-99323809D01*
X112678571Y-99247619D01*
X112716666Y-99171428D01*
X112754761Y-99019047D01*
X112754761Y-98904761D01*
X112716666Y-98752380D01*
X112678571Y-98676190D01*
X112602380Y-98600000D01*
X112488095Y-98561904D01*
X112411904Y-98561904D01*
X112297619Y-98600000D01*
X112259523Y-98638095D01*
X111688095Y-98561904D02*
X111688095Y-99133333D01*
X111726190Y-99247619D01*
X111802380Y-99323809D01*
X111916666Y-99361904D01*
X111992857Y-99361904D01*
X110926190Y-99361904D02*
X111307142Y-99361904D01*
X111307142Y-98561904D01*
X110202380Y-99285714D02*
X110240476Y-99323809D01*
X110354761Y-99361904D01*
X110430952Y-99361904D01*
X110545238Y-99323809D01*
X110621428Y-99247619D01*
X110659523Y-99171428D01*
X110697619Y-99019047D01*
X110697619Y-98904761D01*
X110659523Y-98752380D01*
X110621428Y-98676190D01*
X110545238Y-98600000D01*
X110430952Y-98561904D01*
X110354761Y-98561904D01*
X110240476Y-98600000D01*
X110202380Y-98638095D01*
X109630952Y-98561904D02*
X109630952Y-99133333D01*
X109669047Y-99247619D01*
X109745238Y-99323809D01*
X109859523Y-99361904D01*
X109935714Y-99361904D01*
X108869047Y-99361904D02*
X109250000Y-99361904D01*
X109250000Y-98561904D01*
X108145238Y-99285714D02*
X108183333Y-99323809D01*
X108297619Y-99361904D01*
X108373809Y-99361904D01*
X108488095Y-99323809D01*
X108564285Y-99247619D01*
X108602380Y-99171428D01*
X108640476Y-99019047D01*
X108640476Y-98904761D01*
X108602380Y-98752380D01*
X108564285Y-98676190D01*
X108488095Y-98600000D01*
X108373809Y-98561904D01*
X108297619Y-98561904D01*
X108183333Y-98600000D01*
X108145238Y-98638095D01*
X107573809Y-98561904D02*
X107573809Y-99133333D01*
X107611904Y-99247619D01*
X107688095Y-99323809D01*
X107802380Y-99361904D01*
X107878571Y-99361904D01*
X106811904Y-99361904D02*
X107192857Y-99361904D01*
X107192857Y-98561904D01*
X106088095Y-99285714D02*
X106126190Y-99323809D01*
X106240476Y-99361904D01*
X106316666Y-99361904D01*
X106430952Y-99323809D01*
X106507142Y-99247619D01*
X106545238Y-99171428D01*
X106583333Y-99019047D01*
X106583333Y-98904761D01*
X106545238Y-98752380D01*
X106507142Y-98676190D01*
X106430952Y-98600000D01*
X106316666Y-98561904D01*
X106240476Y-98561904D01*
X106126190Y-98600000D01*
X106088095Y-98638095D01*
M02*
