%TF.GenerationSoftware,KiCad,Pcbnew,5.1.9*%
%TF.CreationDate,2021-03-21T20:26:03+00:00*%
%TF.ProjectId,OpenWindow_PCB,4f70656e-5769-46e6-946f-775f5043422e,rev?*%
%TF.SameCoordinates,Original*%
%TF.FileFunction,Paste,Top*%
%TF.FilePolarity,Positive*%
%FSLAX46Y46*%
G04 Gerber Fmt 4.6, Leading zero omitted, Abs format (unit mm)*
G04 Created by KiCad (PCBNEW 5.1.9) date 2021-03-21 20:26:03*
%MOMM*%
%LPD*%
G01*
G04 APERTURE LIST*
%ADD10R,1.600000X0.410000*%
G04 APERTURE END LIST*
%TO.C,C7*%
G36*
G01*
X71795000Y-44312500D02*
X70845000Y-44312500D01*
G75*
G02*
X70595000Y-44062500I0J250000D01*
G01*
X70595000Y-43387500D01*
G75*
G02*
X70845000Y-43137500I250000J0D01*
G01*
X71795000Y-43137500D01*
G75*
G02*
X72045000Y-43387500I0J-250000D01*
G01*
X72045000Y-44062500D01*
G75*
G02*
X71795000Y-44312500I-250000J0D01*
G01*
G37*
G36*
G01*
X71795000Y-42237500D02*
X70845000Y-42237500D01*
G75*
G02*
X70595000Y-41987500I0J250000D01*
G01*
X70595000Y-41312500D01*
G75*
G02*
X70845000Y-41062500I250000J0D01*
G01*
X71795000Y-41062500D01*
G75*
G02*
X72045000Y-41312500I0J-250000D01*
G01*
X72045000Y-41987500D01*
G75*
G02*
X71795000Y-42237500I-250000J0D01*
G01*
G37*
%TD*%
D10*
%TO.C,U3*%
X79054300Y-44872500D03*
X79054300Y-44237500D03*
X73745700Y-44872500D03*
X73745700Y-44237500D03*
X79054300Y-42967500D03*
X79054300Y-43602500D03*
X73745700Y-43602500D03*
X73745700Y-42967500D03*
X73745700Y-40427500D03*
X73745700Y-41062500D03*
X73745700Y-41697500D03*
X73745700Y-42332500D03*
X73745700Y-45507500D03*
X73745700Y-46142500D03*
X73745700Y-46777500D03*
X73745700Y-47412500D03*
X79054300Y-47412500D03*
X79054300Y-46777500D03*
X79054300Y-46142500D03*
X79054300Y-45507500D03*
X79054300Y-42332500D03*
X79054300Y-41697500D03*
X79054300Y-41062500D03*
X79054300Y-40427500D03*
%TD*%
%TO.C,C1*%
G36*
G01*
X63837500Y-48475000D02*
X63837500Y-47525000D01*
G75*
G02*
X64087500Y-47275000I250000J0D01*
G01*
X64762500Y-47275000D01*
G75*
G02*
X65012500Y-47525000I0J-250000D01*
G01*
X65012500Y-48475000D01*
G75*
G02*
X64762500Y-48725000I-250000J0D01*
G01*
X64087500Y-48725000D01*
G75*
G02*
X63837500Y-48475000I0J250000D01*
G01*
G37*
G36*
G01*
X65912500Y-48475000D02*
X65912500Y-47525000D01*
G75*
G02*
X66162500Y-47275000I250000J0D01*
G01*
X66837500Y-47275000D01*
G75*
G02*
X67087500Y-47525000I0J-250000D01*
G01*
X67087500Y-48475000D01*
G75*
G02*
X66837500Y-48725000I-250000J0D01*
G01*
X66162500Y-48725000D01*
G75*
G02*
X65912500Y-48475000I0J250000D01*
G01*
G37*
%TD*%
%TO.C,C5*%
G36*
G01*
X69255000Y-42237500D02*
X68305000Y-42237500D01*
G75*
G02*
X68055000Y-41987500I0J250000D01*
G01*
X68055000Y-41312500D01*
G75*
G02*
X68305000Y-41062500I250000J0D01*
G01*
X69255000Y-41062500D01*
G75*
G02*
X69505000Y-41312500I0J-250000D01*
G01*
X69505000Y-41987500D01*
G75*
G02*
X69255000Y-42237500I-250000J0D01*
G01*
G37*
G36*
G01*
X69255000Y-44312500D02*
X68305000Y-44312500D01*
G75*
G02*
X68055000Y-44062500I0J250000D01*
G01*
X68055000Y-43387500D01*
G75*
G02*
X68305000Y-43137500I250000J0D01*
G01*
X69255000Y-43137500D01*
G75*
G02*
X69505000Y-43387500I0J-250000D01*
G01*
X69505000Y-44062500D01*
G75*
G02*
X69255000Y-44312500I-250000J0D01*
G01*
G37*
%TD*%
%TO.C,R1*%
G36*
G01*
X64100000Y-45737500D02*
X64100000Y-45262500D01*
G75*
G02*
X64337500Y-45025000I237500J0D01*
G01*
X64837500Y-45025000D01*
G75*
G02*
X65075000Y-45262500I0J-237500D01*
G01*
X65075000Y-45737500D01*
G75*
G02*
X64837500Y-45975000I-237500J0D01*
G01*
X64337500Y-45975000D01*
G75*
G02*
X64100000Y-45737500I0J237500D01*
G01*
G37*
G36*
G01*
X65925000Y-45737500D02*
X65925000Y-45262500D01*
G75*
G02*
X66162500Y-45025000I237500J0D01*
G01*
X66662500Y-45025000D01*
G75*
G02*
X66900000Y-45262500I0J-237500D01*
G01*
X66900000Y-45737500D01*
G75*
G02*
X66662500Y-45975000I-237500J0D01*
G01*
X66162500Y-45975000D01*
G75*
G02*
X65925000Y-45737500I0J237500D01*
G01*
G37*
%TD*%
%TO.C,R2*%
G36*
G01*
X65925000Y-43737500D02*
X65925000Y-43262500D01*
G75*
G02*
X66162500Y-43025000I237500J0D01*
G01*
X66662500Y-43025000D01*
G75*
G02*
X66900000Y-43262500I0J-237500D01*
G01*
X66900000Y-43737500D01*
G75*
G02*
X66662500Y-43975000I-237500J0D01*
G01*
X66162500Y-43975000D01*
G75*
G02*
X65925000Y-43737500I0J237500D01*
G01*
G37*
G36*
G01*
X64100000Y-43737500D02*
X64100000Y-43262500D01*
G75*
G02*
X64337500Y-43025000I237500J0D01*
G01*
X64837500Y-43025000D01*
G75*
G02*
X65075000Y-43262500I0J-237500D01*
G01*
X65075000Y-43737500D01*
G75*
G02*
X64837500Y-43975000I-237500J0D01*
G01*
X64337500Y-43975000D01*
G75*
G02*
X64100000Y-43737500I0J237500D01*
G01*
G37*
%TD*%
%TO.C,R3*%
G36*
G01*
X66812500Y-41262500D02*
X66812500Y-41737500D01*
G75*
G02*
X66575000Y-41975000I-237500J0D01*
G01*
X66075000Y-41975000D01*
G75*
G02*
X65837500Y-41737500I0J237500D01*
G01*
X65837500Y-41262500D01*
G75*
G02*
X66075000Y-41025000I237500J0D01*
G01*
X66575000Y-41025000D01*
G75*
G02*
X66812500Y-41262500I0J-237500D01*
G01*
G37*
G36*
G01*
X64987500Y-41262500D02*
X64987500Y-41737500D01*
G75*
G02*
X64750000Y-41975000I-237500J0D01*
G01*
X64250000Y-41975000D01*
G75*
G02*
X64012500Y-41737500I0J237500D01*
G01*
X64012500Y-41262500D01*
G75*
G02*
X64250000Y-41025000I237500J0D01*
G01*
X64750000Y-41025000D01*
G75*
G02*
X64987500Y-41262500I0J-237500D01*
G01*
G37*
%TD*%
M02*
