%TF.GenerationSoftware,KiCad,Pcbnew,5.1.9*%
%TF.CreationDate,2021-03-21T20:26:03+00:00*%
%TF.ProjectId,OpenWindow_PCB,4f70656e-5769-46e6-946f-775f5043422e,rev?*%
%TF.SameCoordinates,Original*%
%TF.FileFunction,Copper,L2,Bot*%
%TF.FilePolarity,Positive*%
%FSLAX46Y46*%
G04 Gerber Fmt 4.6, Leading zero omitted, Abs format (unit mm)*
G04 Created by KiCad (PCBNEW 5.1.9) date 2021-03-21 20:26:03*
%MOMM*%
%LPD*%
G01*
G04 APERTURE LIST*
%TA.AperFunction,ComponentPad*%
%ADD10R,1.700000X1.700000*%
%TD*%
%TA.AperFunction,ComponentPad*%
%ADD11O,1.700000X1.700000*%
%TD*%
%TA.AperFunction,ComponentPad*%
%ADD12C,5.400000*%
%TD*%
%TA.AperFunction,ComponentPad*%
%ADD13R,2.600000X2.600000*%
%TD*%
%TA.AperFunction,ComponentPad*%
%ADD14C,2.600000*%
%TD*%
%TA.AperFunction,ComponentPad*%
%ADD15O,1.500000X1.050000*%
%TD*%
%TA.AperFunction,ComponentPad*%
%ADD16R,1.500000X1.050000*%
%TD*%
%TA.AperFunction,ComponentPad*%
%ADD17R,1.600000X1.600000*%
%TD*%
%TA.AperFunction,ComponentPad*%
%ADD18C,1.600000*%
%TD*%
%TA.AperFunction,ComponentPad*%
%ADD19R,2.400000X2.400000*%
%TD*%
%TA.AperFunction,ComponentPad*%
%ADD20O,2.400000X2.400000*%
%TD*%
%TA.AperFunction,ComponentPad*%
%ADD21R,1.800000X1.800000*%
%TD*%
%TA.AperFunction,ComponentPad*%
%ADD22C,1.800000*%
%TD*%
%TA.AperFunction,ComponentPad*%
%ADD23O,2.200000X2.200000*%
%TD*%
%TA.AperFunction,ComponentPad*%
%ADD24R,2.200000X2.200000*%
%TD*%
%TA.AperFunction,ComponentPad*%
%ADD25O,1.950000X1.700000*%
%TD*%
%TA.AperFunction,ComponentPad*%
%ADD26R,1.800000X1.717500*%
%TD*%
%TA.AperFunction,ComponentPad*%
%ADD27O,1.800000X1.717500*%
%TD*%
%TA.AperFunction,ComponentPad*%
%ADD28O,1.050000X1.500000*%
%TD*%
%TA.AperFunction,ComponentPad*%
%ADD29R,1.050000X1.500000*%
%TD*%
%TA.AperFunction,ComponentPad*%
%ADD30C,2.400000*%
%TD*%
%TA.AperFunction,ComponentPad*%
%ADD31C,2.000000*%
%TD*%
%TA.AperFunction,ViaPad*%
%ADD32C,0.800000*%
%TD*%
%TA.AperFunction,Conductor*%
%ADD33C,0.250000*%
%TD*%
%TA.AperFunction,Conductor*%
%ADD34C,0.254000*%
%TD*%
%TA.AperFunction,Conductor*%
%ADD35C,0.100000*%
%TD*%
G04 APERTURE END LIST*
D10*
%TO.P,J2,1*%
%TO.N,C2CK*%
X62050000Y-34750000D03*
D11*
%TO.P,J2,2*%
%TO.N,C2D*%
X64590000Y-34750000D03*
%TO.P,J2,3*%
%TO.N,GND*%
X67130000Y-34750000D03*
%TO.P,J2,4*%
%TO.N,+3V3*%
X69670000Y-34750000D03*
%TD*%
D12*
%TO.P,REF\u002A\u002A,1*%
%TO.N,N/C*%
X110000000Y-95000000D03*
%TD*%
%TO.P,REF\u002A\u002A,1*%
%TO.N,N/C*%
X55000000Y-95000000D03*
%TD*%
%TO.P,REF\u002A\u002A,1*%
%TO.N,N/C*%
X55000000Y-35000000D03*
%TD*%
%TO.P,REF\u002A\u002A,1*%
%TO.N,N/C*%
X110000000Y-35000000D03*
%TD*%
D13*
%TO.P,J4,1*%
%TO.N,+12V_switched*%
X106500000Y-60000000D03*
D14*
%TO.P,J4,2*%
%TO.N,Net-(D3-Pad2)*%
X106500000Y-54920000D03*
%TD*%
D15*
%TO.P,U1,2*%
%TO.N,GND*%
X88500000Y-60770000D03*
%TO.P,U1,3*%
%TO.N,+12V_switched*%
X88500000Y-62040000D03*
D16*
%TO.P,U1,1*%
%TO.N,+5V*%
X88500000Y-59500000D03*
%TD*%
D17*
%TO.P,C2,1*%
%TO.N,+12V_switched*%
X89500000Y-67000000D03*
D18*
%TO.P,C2,2*%
%TO.N,GND*%
X87500000Y-67000000D03*
%TD*%
D17*
%TO.P,C3,1*%
%TO.N,CMP0_in*%
X55000000Y-61000000D03*
D18*
%TO.P,C3,2*%
%TO.N,GND*%
X55000000Y-59000000D03*
%TD*%
%TO.P,C4,2*%
%TO.N,GND*%
X87500000Y-54500000D03*
D17*
%TO.P,C4,1*%
%TO.N,+5V*%
X89500000Y-54500000D03*
%TD*%
%TO.P,C6,1*%
%TO.N,+12V_switched*%
X82000000Y-67000000D03*
D18*
%TO.P,C6,2*%
%TO.N,GND*%
X80000000Y-67000000D03*
%TD*%
%TO.P,C8,2*%
%TO.N,GND*%
X80000000Y-54500000D03*
D17*
%TO.P,C8,1*%
%TO.N,+3V3*%
X82000000Y-54500000D03*
%TD*%
D19*
%TO.P,D1,1*%
%TO.N,GND*%
X64500000Y-74300000D03*
D20*
%TO.P,D1,2*%
%TO.N,+12V*%
X64500000Y-87000000D03*
%TD*%
D21*
%TO.P,D2,1*%
%TO.N,GND*%
X75000000Y-35000000D03*
D22*
%TO.P,D2,2*%
%TO.N,Net-(D2-Pad2)*%
X77540000Y-35000000D03*
%TD*%
D23*
%TO.P,D3,2*%
%TO.N,Net-(D3-Pad2)*%
X97500000Y-53340000D03*
D24*
%TO.P,D3,1*%
%TO.N,+12V_switched*%
X97500000Y-63500000D03*
%TD*%
%TO.P,D4,1*%
%TO.N,+12V_switched*%
X97500000Y-88500000D03*
D23*
%TO.P,D4,2*%
%TO.N,Net-(D4-Pad2)*%
X97500000Y-78340000D03*
%TD*%
%TO.P,J1,1*%
%TO.N,GND*%
%TA.AperFunction,ComponentPad*%
G36*
G01*
X55775000Y-75650000D02*
X57225000Y-75650000D01*
G75*
G02*
X57475000Y-75900000I0J-250000D01*
G01*
X57475000Y-77100000D01*
G75*
G02*
X57225000Y-77350000I-250000J0D01*
G01*
X55775000Y-77350000D01*
G75*
G02*
X55525000Y-77100000I0J250000D01*
G01*
X55525000Y-75900000D01*
G75*
G02*
X55775000Y-75650000I250000J0D01*
G01*
G37*
%TD.AperFunction*%
D25*
%TO.P,J1,2*%
%TO.N,+12V*%
X56500000Y-79000000D03*
%TO.P,J1,3*%
%TO.N,Ignition_in*%
X56500000Y-81500000D03*
%TO.P,J1,4*%
%TO.N,WindowSwitch_in*%
X56500000Y-84000000D03*
%TD*%
D10*
%TO.P,J3,1*%
%TO.N,GND*%
X89340000Y-35000000D03*
D11*
%TO.P,J3,2*%
%TO.N,Net-(J3-Pad2)*%
X91880000Y-35000000D03*
%TO.P,J3,3*%
%TO.N,Net-(J3-Pad3)*%
X94420000Y-35000000D03*
%TO.P,J3,4*%
%TO.N,UART1_RX*%
X96960000Y-35000000D03*
%TO.P,J3,5*%
%TO.N,UART1_TX*%
X99500000Y-35000000D03*
%TO.P,J3,6*%
%TO.N,Net-(J3-Pad6)*%
X102040000Y-35000000D03*
%TD*%
%TO.P,J5,1*%
%TO.N,+5V*%
%TA.AperFunction,ComponentPad*%
G36*
G01*
X109225000Y-48350000D02*
X107775000Y-48350000D01*
G75*
G02*
X107525000Y-48100000I0J250000D01*
G01*
X107525000Y-46900000D01*
G75*
G02*
X107775000Y-46650000I250000J0D01*
G01*
X109225000Y-46650000D01*
G75*
G02*
X109475000Y-46900000I0J-250000D01*
G01*
X109475000Y-48100000D01*
G75*
G02*
X109225000Y-48350000I-250000J0D01*
G01*
G37*
%TD.AperFunction*%
D25*
%TO.P,J5,2*%
%TO.N,Net-(J5-Pad2)*%
X108500000Y-45000000D03*
%TO.P,J5,3*%
%TO.N,GND*%
X108500000Y-42500000D03*
%TD*%
D14*
%TO.P,J6,2*%
%TO.N,Net-(D4-Pad2)*%
X106500000Y-79920000D03*
D13*
%TO.P,J6,1*%
%TO.N,+12V_switched*%
X106500000Y-85000000D03*
%TD*%
D26*
%TO.P,Q1,1*%
%TO.N,GND*%
X70000000Y-78210000D03*
D27*
%TO.P,Q1,2*%
%TO.N,+12V*%
X70000000Y-80500000D03*
%TO.P,Q1,3*%
%TO.N,Net-(Q1-Pad3)*%
X70000000Y-82790000D03*
%TD*%
D16*
%TO.P,Q2,1*%
%TO.N,GND*%
X82500000Y-95500000D03*
D15*
%TO.P,Q2,3*%
%TO.N,Net-(Q2-Pad3)*%
X82500000Y-92960000D03*
%TO.P,Q2,2*%
%TO.N,Net-(Q2-Pad2)*%
X82500000Y-94230000D03*
%TD*%
D27*
%TO.P,Q3,3*%
%TO.N,Net-(Q1-Pad3)*%
X84500000Y-78000000D03*
%TO.P,Q3,2*%
%TO.N,+12V_switched*%
X84500000Y-75710000D03*
D26*
%TO.P,Q3,1*%
%TO.N,Net-(Q3-Pad1)*%
X84500000Y-73420000D03*
%TD*%
D28*
%TO.P,Q4,2*%
%TO.N,Net-(Q4-Pad2)*%
X103270000Y-67500000D03*
%TO.P,Q4,3*%
%TO.N,Net-(D3-Pad2)*%
X104540000Y-67500000D03*
D29*
%TO.P,Q4,1*%
%TO.N,GND*%
X102000000Y-67500000D03*
%TD*%
D28*
%TO.P,Q5,2*%
%TO.N,Net-(Q5-Pad2)*%
X100770000Y-94000000D03*
%TO.P,Q5,3*%
%TO.N,Net-(D4-Pad2)*%
X102040000Y-94000000D03*
D29*
%TO.P,Q5,1*%
%TO.N,GND*%
X99500000Y-94000000D03*
%TD*%
D30*
%TO.P,R4,1*%
%TO.N,Ignition_in*%
X63990000Y-91530000D03*
D20*
%TO.P,R4,2*%
%TO.N,GND*%
X76690000Y-91530000D03*
%TD*%
D30*
%TO.P,R5,1*%
%TO.N,+12V_switched*%
X71500000Y-67230000D03*
D20*
%TO.P,R5,2*%
%TO.N,WindowSwitch_in*%
X71500000Y-54530000D03*
%TD*%
D30*
%TO.P,R6,1*%
%TO.N,WindowSwitch_in*%
X66500000Y-54530000D03*
D20*
%TO.P,R6,2*%
%TO.N,CMP0_in*%
X66500000Y-67230000D03*
%TD*%
%TO.P,R7,2*%
%TO.N,GND*%
X61500000Y-54500000D03*
D30*
%TO.P,R7,1*%
%TO.N,CMP0_in*%
X61500000Y-67200000D03*
%TD*%
D20*
%TO.P,R8,2*%
%TO.N,Net-(Q2-Pad2)*%
X76690000Y-96500000D03*
D30*
%TO.P,R8,1*%
%TO.N,Ignition_in*%
X63990000Y-96500000D03*
%TD*%
D20*
%TO.P,R9,2*%
%TO.N,Net-(Q2-Pad3)*%
X75560000Y-87230000D03*
D30*
%TO.P,R9,1*%
%TO.N,Net-(Q1-Pad3)*%
X75560000Y-74530000D03*
%TD*%
%TO.P,R10,1*%
%TO.N,Net-(Q3-Pad1)*%
X80000000Y-74530000D03*
D20*
%TO.P,R10,2*%
%TO.N,Net-(Q2-Pad3)*%
X80000000Y-87230000D03*
%TD*%
D30*
%TO.P,R11,1*%
%TO.N,Net-(D2-Pad2)*%
X84500000Y-38000000D03*
D20*
%TO.P,R11,2*%
%TO.N,+3V3*%
X84500000Y-50700000D03*
%TD*%
D30*
%TO.P,R12,1*%
%TO.N,Net-(Q4-Pad2)*%
X107500000Y-73000000D03*
D20*
%TO.P,R12,2*%
%TO.N,Motor_GPIO_1*%
X94800000Y-73000000D03*
%TD*%
%TO.P,R13,2*%
%TO.N,Motor_GPIO_2*%
X91000000Y-78800000D03*
D30*
%TO.P,R13,1*%
%TO.N,Net-(Q5-Pad2)*%
X91000000Y-91500000D03*
%TD*%
D20*
%TO.P,R14,2*%
%TO.N,GND*%
X102500000Y-41500000D03*
D30*
%TO.P,R14,1*%
%TO.N,ADC_in*%
X89800000Y-41500000D03*
%TD*%
%TO.P,R15,1*%
%TO.N,Net-(J5-Pad2)*%
X102500000Y-46500000D03*
D20*
%TO.P,R15,2*%
%TO.N,ADC_in*%
X89800000Y-46500000D03*
%TD*%
D31*
%TO.P,SW1,2*%
%TO.N,Net-(R3-Pad2)*%
X60500000Y-41500000D03*
%TO.P,SW1,1*%
%TO.N,Net-(C1-Pad1)*%
X60500000Y-46000000D03*
%TO.P,SW1,2*%
%TO.N,Net-(R3-Pad2)*%
X54000000Y-41500000D03*
%TO.P,SW1,1*%
%TO.N,Net-(C1-Pad1)*%
X54000000Y-46000000D03*
%TD*%
D16*
%TO.P,U2,1*%
%TO.N,+3V3*%
X81000000Y-59500000D03*
D15*
%TO.P,U2,3*%
%TO.N,+12V_switched*%
X81000000Y-62040000D03*
%TO.P,U2,2*%
%TO.N,GND*%
X81000000Y-60770000D03*
%TD*%
D32*
%TO.N,GND*%
X68000000Y-48000000D03*
X64693203Y-40226335D03*
X76500000Y-43000000D03*
%TO.N,+12V_switched*%
X87000000Y-76000000D03*
%TO.N,CMP0_in*%
X75595701Y-61000000D03*
X73500000Y-61000000D03*
%TO.N,+3V3*%
X76500000Y-44500003D03*
X67500000Y-44500000D03*
%TO.N,C2CK*%
X71466600Y-45466600D03*
X71500000Y-38500000D03*
%TO.N,C2D*%
X75045118Y-44969958D03*
X75000000Y-38500000D03*
%TO.N,UART1_TX*%
X89500000Y-37500000D03*
%TD*%
D33*
%TO.N,+12V_switched*%
X87000000Y-78000000D02*
X97500000Y-88500000D01*
X87000000Y-76000000D02*
X87000000Y-78000000D01*
X87000000Y-76000000D02*
X87000000Y-74000000D01*
X93500000Y-67500000D02*
X97500000Y-63500000D01*
X87000000Y-74000000D02*
X87000000Y-73576248D01*
X75270000Y-71000000D02*
X71500000Y-67230000D01*
X84423752Y-71000000D02*
X75270000Y-71000000D01*
X81000000Y-62040000D02*
X82540000Y-62040000D01*
X85461876Y-64961876D02*
X85461876Y-72038124D01*
X82540000Y-62040000D02*
X85461876Y-64961876D01*
X85461876Y-72038124D02*
X84423752Y-71000000D01*
X87000000Y-73576248D02*
X85461876Y-72038124D01*
X92000000Y-69000000D02*
X92000000Y-65540000D01*
X87000000Y-74000000D02*
X92000000Y-69000000D01*
X92000000Y-65540000D02*
X88500000Y-62040000D01*
X92000000Y-69000000D02*
X93500000Y-67500000D01*
%TO.N,CMP0_in*%
X75595701Y-61000000D02*
X73500000Y-61000000D01*
%TO.N,+3V3*%
X76500000Y-55000000D02*
X81000000Y-59500000D01*
X76500000Y-44500003D02*
X76500000Y-55000000D01*
X75374087Y-46191601D02*
X76500000Y-45065688D01*
X69191601Y-46191601D02*
X75374087Y-46191601D01*
X76500000Y-45065688D02*
X76500000Y-44500003D01*
X67500000Y-44500000D02*
X69191601Y-46191601D01*
X72323002Y-34750000D02*
X69670000Y-34750000D01*
X77225001Y-39651999D02*
X72323002Y-34750000D01*
X77225001Y-43775002D02*
X77225001Y-39651999D01*
X76500000Y-44500003D02*
X77225001Y-43775002D01*
%TO.N,C2CK*%
X71466600Y-38533400D02*
X71500000Y-38500000D01*
X71466600Y-45466600D02*
X71466600Y-38533400D01*
%TO.N,C2D*%
X75045118Y-44969958D02*
X75045118Y-38545118D01*
X75045118Y-38545118D02*
X75000000Y-38500000D01*
%TO.N,UART1_TX*%
X97000000Y-37500000D02*
X99500000Y-35000000D01*
X89500000Y-37500000D02*
X97000000Y-37500000D01*
%TD*%
D34*
%TO.N,GND*%
X114290001Y-99290000D02*
X50710000Y-99290000D01*
X50710000Y-94671531D01*
X51665000Y-94671531D01*
X51665000Y-95328469D01*
X51793162Y-95972784D01*
X52044561Y-96579715D01*
X52409536Y-97125939D01*
X52874061Y-97590464D01*
X53420285Y-97955439D01*
X54027216Y-98206838D01*
X54671531Y-98335000D01*
X55328469Y-98335000D01*
X55972784Y-98206838D01*
X56579715Y-97955439D01*
X57125939Y-97590464D01*
X57590464Y-97125939D01*
X57955439Y-96579715D01*
X58063319Y-96319268D01*
X62155000Y-96319268D01*
X62155000Y-96680732D01*
X62225518Y-97035250D01*
X62363844Y-97369199D01*
X62564662Y-97669744D01*
X62820256Y-97925338D01*
X63120801Y-98126156D01*
X63454750Y-98264482D01*
X63809268Y-98335000D01*
X64170732Y-98335000D01*
X64525250Y-98264482D01*
X64859199Y-98126156D01*
X65159744Y-97925338D01*
X65415338Y-97669744D01*
X65616156Y-97369199D01*
X65754482Y-97035250D01*
X65825000Y-96680732D01*
X65825000Y-96319268D01*
X74855000Y-96319268D01*
X74855000Y-96680732D01*
X74925518Y-97035250D01*
X75063844Y-97369199D01*
X75264662Y-97669744D01*
X75520256Y-97925338D01*
X75820801Y-98126156D01*
X76154750Y-98264482D01*
X76509268Y-98335000D01*
X76870732Y-98335000D01*
X77225250Y-98264482D01*
X77559199Y-98126156D01*
X77859744Y-97925338D01*
X78115338Y-97669744D01*
X78316156Y-97369199D01*
X78454482Y-97035250D01*
X78525000Y-96680732D01*
X78525000Y-96319268D01*
X78466467Y-96025000D01*
X81111928Y-96025000D01*
X81124188Y-96149482D01*
X81160498Y-96269180D01*
X81219463Y-96379494D01*
X81298815Y-96476185D01*
X81395506Y-96555537D01*
X81505820Y-96614502D01*
X81625518Y-96650812D01*
X81750000Y-96663072D01*
X82214250Y-96660000D01*
X82373000Y-96501250D01*
X82373000Y-95627000D01*
X82627000Y-95627000D01*
X82627000Y-96501250D01*
X82785750Y-96660000D01*
X83250000Y-96663072D01*
X83374482Y-96650812D01*
X83494180Y-96614502D01*
X83604494Y-96555537D01*
X83701185Y-96476185D01*
X83780537Y-96379494D01*
X83839502Y-96269180D01*
X83875812Y-96149482D01*
X83888072Y-96025000D01*
X83885000Y-95785750D01*
X83726250Y-95627000D01*
X82627000Y-95627000D01*
X82373000Y-95627000D01*
X81273750Y-95627000D01*
X81115000Y-95785750D01*
X81111928Y-96025000D01*
X78466467Y-96025000D01*
X78454482Y-95964750D01*
X78316156Y-95630801D01*
X78115338Y-95330256D01*
X77859744Y-95074662D01*
X77559199Y-94873844D01*
X77225250Y-94735518D01*
X76870732Y-94665000D01*
X76509268Y-94665000D01*
X76154750Y-94735518D01*
X75820801Y-94873844D01*
X75520256Y-95074662D01*
X75264662Y-95330256D01*
X75063844Y-95630801D01*
X74925518Y-95964750D01*
X74855000Y-96319268D01*
X65825000Y-96319268D01*
X65754482Y-95964750D01*
X65616156Y-95630801D01*
X65415338Y-95330256D01*
X65159744Y-95074662D01*
X64859199Y-94873844D01*
X64525250Y-94735518D01*
X64170732Y-94665000D01*
X63809268Y-94665000D01*
X63454750Y-94735518D01*
X63120801Y-94873844D01*
X62820256Y-95074662D01*
X62564662Y-95330256D01*
X62363844Y-95630801D01*
X62225518Y-95964750D01*
X62155000Y-96319268D01*
X58063319Y-96319268D01*
X58206838Y-95972784D01*
X58335000Y-95328469D01*
X58335000Y-94671531D01*
X58206838Y-94027216D01*
X57955439Y-93420285D01*
X57590464Y-92874061D01*
X57125939Y-92409536D01*
X56579715Y-92044561D01*
X55972784Y-91793162D01*
X55328469Y-91665000D01*
X54671531Y-91665000D01*
X54027216Y-91793162D01*
X53420285Y-92044561D01*
X52874061Y-92409536D01*
X52409536Y-92874061D01*
X52044561Y-93420285D01*
X51793162Y-94027216D01*
X51665000Y-94671531D01*
X50710000Y-94671531D01*
X50710000Y-91349268D01*
X62155000Y-91349268D01*
X62155000Y-91710732D01*
X62225518Y-92065250D01*
X62363844Y-92399199D01*
X62564662Y-92699744D01*
X62820256Y-92955338D01*
X63120801Y-93156156D01*
X63454750Y-93294482D01*
X63809268Y-93365000D01*
X64170732Y-93365000D01*
X64525250Y-93294482D01*
X64859199Y-93156156D01*
X65159744Y-92955338D01*
X65415338Y-92699744D01*
X65616156Y-92399199D01*
X65754482Y-92065250D01*
X65779036Y-91941805D01*
X74901805Y-91941805D01*
X74974379Y-92181066D01*
X75134361Y-92503257D01*
X75354125Y-92788046D01*
X75625226Y-93024489D01*
X75937246Y-93203500D01*
X76278194Y-93318199D01*
X76563000Y-93201854D01*
X76563000Y-91657000D01*
X76817000Y-91657000D01*
X76817000Y-93201854D01*
X77101806Y-93318199D01*
X77442754Y-93203500D01*
X77754774Y-93024489D01*
X77828715Y-92960000D01*
X81109388Y-92960000D01*
X81131785Y-93187400D01*
X81198115Y-93406060D01*
X81299105Y-93595000D01*
X81198115Y-93783940D01*
X81131785Y-94002600D01*
X81109388Y-94230000D01*
X81131785Y-94457400D01*
X81195093Y-94666098D01*
X81160498Y-94730820D01*
X81124188Y-94850518D01*
X81111928Y-94975000D01*
X81115000Y-95214250D01*
X81273750Y-95373000D01*
X82046891Y-95373000D01*
X82047600Y-95373215D01*
X82218021Y-95390000D01*
X82781979Y-95390000D01*
X82952400Y-95373215D01*
X82953109Y-95373000D01*
X83726250Y-95373000D01*
X83885000Y-95214250D01*
X83888072Y-94975000D01*
X83875812Y-94850518D01*
X83845321Y-94750000D01*
X98336928Y-94750000D01*
X98349188Y-94874482D01*
X98385498Y-94994180D01*
X98444463Y-95104494D01*
X98523815Y-95201185D01*
X98620506Y-95280537D01*
X98730820Y-95339502D01*
X98850518Y-95375812D01*
X98975000Y-95388072D01*
X99214250Y-95385000D01*
X99373000Y-95226250D01*
X99373000Y-94127000D01*
X98498750Y-94127000D01*
X98340000Y-94285750D01*
X98336928Y-94750000D01*
X83845321Y-94750000D01*
X83839502Y-94730820D01*
X83804907Y-94666098D01*
X83868215Y-94457400D01*
X83890612Y-94230000D01*
X83868215Y-94002600D01*
X83801885Y-93783940D01*
X83700895Y-93595000D01*
X83801885Y-93406060D01*
X83868215Y-93187400D01*
X83890612Y-92960000D01*
X83868215Y-92732600D01*
X83801885Y-92513940D01*
X83694171Y-92312421D01*
X83549212Y-92135788D01*
X83372579Y-91990829D01*
X83171060Y-91883115D01*
X82952400Y-91816785D01*
X82781979Y-91800000D01*
X82218021Y-91800000D01*
X82047600Y-91816785D01*
X81828940Y-91883115D01*
X81627421Y-91990829D01*
X81450788Y-92135788D01*
X81305829Y-92312421D01*
X81198115Y-92513940D01*
X81131785Y-92732600D01*
X81109388Y-92960000D01*
X77828715Y-92960000D01*
X78025875Y-92788046D01*
X78245639Y-92503257D01*
X78405621Y-92181066D01*
X78478195Y-91941805D01*
X78361432Y-91657000D01*
X76817000Y-91657000D01*
X76563000Y-91657000D01*
X75018568Y-91657000D01*
X74901805Y-91941805D01*
X65779036Y-91941805D01*
X65825000Y-91710732D01*
X65825000Y-91349268D01*
X65779037Y-91118195D01*
X74901805Y-91118195D01*
X75018568Y-91403000D01*
X76563000Y-91403000D01*
X76563000Y-89858146D01*
X76817000Y-89858146D01*
X76817000Y-91403000D01*
X78361432Y-91403000D01*
X78395760Y-91319268D01*
X89165000Y-91319268D01*
X89165000Y-91680732D01*
X89235518Y-92035250D01*
X89373844Y-92369199D01*
X89574662Y-92669744D01*
X89830256Y-92925338D01*
X90130801Y-93126156D01*
X90464750Y-93264482D01*
X90819268Y-93335000D01*
X91180732Y-93335000D01*
X91535250Y-93264482D01*
X91570212Y-93250000D01*
X98336928Y-93250000D01*
X98340000Y-93714250D01*
X98498750Y-93873000D01*
X99373000Y-93873000D01*
X99373000Y-93718022D01*
X99610000Y-93718022D01*
X99610000Y-94281979D01*
X99626785Y-94452400D01*
X99627000Y-94453109D01*
X99627000Y-95226250D01*
X99785750Y-95385000D01*
X100025000Y-95388072D01*
X100149482Y-95375812D01*
X100269180Y-95339502D01*
X100333902Y-95304907D01*
X100542601Y-95368215D01*
X100770000Y-95390612D01*
X100997400Y-95368215D01*
X101216060Y-95301885D01*
X101405001Y-95200894D01*
X101593941Y-95301885D01*
X101812601Y-95368215D01*
X102040000Y-95390612D01*
X102267400Y-95368215D01*
X102486060Y-95301885D01*
X102687579Y-95194171D01*
X102864212Y-95049212D01*
X103009171Y-94872579D01*
X103116632Y-94671531D01*
X106665000Y-94671531D01*
X106665000Y-95328469D01*
X106793162Y-95972784D01*
X107044561Y-96579715D01*
X107409536Y-97125939D01*
X107874061Y-97590464D01*
X108420285Y-97955439D01*
X109027216Y-98206838D01*
X109671531Y-98335000D01*
X110328469Y-98335000D01*
X110972784Y-98206838D01*
X111579715Y-97955439D01*
X112125939Y-97590464D01*
X112590464Y-97125939D01*
X112955439Y-96579715D01*
X113206838Y-95972784D01*
X113335000Y-95328469D01*
X113335000Y-94671531D01*
X113206838Y-94027216D01*
X112955439Y-93420285D01*
X112590464Y-92874061D01*
X112125939Y-92409536D01*
X111579715Y-92044561D01*
X110972784Y-91793162D01*
X110328469Y-91665000D01*
X109671531Y-91665000D01*
X109027216Y-91793162D01*
X108420285Y-92044561D01*
X107874061Y-92409536D01*
X107409536Y-92874061D01*
X107044561Y-93420285D01*
X106793162Y-94027216D01*
X106665000Y-94671531D01*
X103116632Y-94671531D01*
X103116885Y-94671059D01*
X103183215Y-94452399D01*
X103200000Y-94281978D01*
X103200000Y-93718021D01*
X103183215Y-93547600D01*
X103116885Y-93328940D01*
X103009171Y-93127421D01*
X102864212Y-92950788D01*
X102687578Y-92805829D01*
X102486059Y-92698115D01*
X102267399Y-92631785D01*
X102040000Y-92609388D01*
X101812600Y-92631785D01*
X101593940Y-92698115D01*
X101404999Y-92799106D01*
X101216059Y-92698115D01*
X100997399Y-92631785D01*
X100770000Y-92609388D01*
X100542600Y-92631785D01*
X100333902Y-92695093D01*
X100269180Y-92660498D01*
X100149482Y-92624188D01*
X100025000Y-92611928D01*
X99785750Y-92615000D01*
X99627000Y-92773750D01*
X99627000Y-93546892D01*
X99626785Y-93547601D01*
X99610000Y-93718022D01*
X99373000Y-93718022D01*
X99373000Y-92773750D01*
X99214250Y-92615000D01*
X98975000Y-92611928D01*
X98850518Y-92624188D01*
X98730820Y-92660498D01*
X98620506Y-92719463D01*
X98523815Y-92798815D01*
X98444463Y-92895506D01*
X98385498Y-93005820D01*
X98349188Y-93125518D01*
X98336928Y-93250000D01*
X91570212Y-93250000D01*
X91869199Y-93126156D01*
X92169744Y-92925338D01*
X92425338Y-92669744D01*
X92626156Y-92369199D01*
X92764482Y-92035250D01*
X92835000Y-91680732D01*
X92835000Y-91319268D01*
X92764482Y-90964750D01*
X92626156Y-90630801D01*
X92425338Y-90330256D01*
X92169744Y-90074662D01*
X91869199Y-89873844D01*
X91535250Y-89735518D01*
X91180732Y-89665000D01*
X90819268Y-89665000D01*
X90464750Y-89735518D01*
X90130801Y-89873844D01*
X89830256Y-90074662D01*
X89574662Y-90330256D01*
X89373844Y-90630801D01*
X89235518Y-90964750D01*
X89165000Y-91319268D01*
X78395760Y-91319268D01*
X78478195Y-91118195D01*
X78405621Y-90878934D01*
X78245639Y-90556743D01*
X78025875Y-90271954D01*
X77754774Y-90035511D01*
X77442754Y-89856500D01*
X77101806Y-89741801D01*
X76817000Y-89858146D01*
X76563000Y-89858146D01*
X76278194Y-89741801D01*
X75937246Y-89856500D01*
X75625226Y-90035511D01*
X75354125Y-90271954D01*
X75134361Y-90556743D01*
X74974379Y-90878934D01*
X74901805Y-91118195D01*
X65779037Y-91118195D01*
X65754482Y-90994750D01*
X65616156Y-90660801D01*
X65415338Y-90360256D01*
X65159744Y-90104662D01*
X64859199Y-89903844D01*
X64525250Y-89765518D01*
X64170732Y-89695000D01*
X63809268Y-89695000D01*
X63454750Y-89765518D01*
X63120801Y-89903844D01*
X62820256Y-90104662D01*
X62564662Y-90360256D01*
X62363844Y-90660801D01*
X62225518Y-90994750D01*
X62155000Y-91349268D01*
X50710000Y-91349268D01*
X50710000Y-86819268D01*
X62665000Y-86819268D01*
X62665000Y-87180732D01*
X62735518Y-87535250D01*
X62873844Y-87869199D01*
X63074662Y-88169744D01*
X63330256Y-88425338D01*
X63630801Y-88626156D01*
X63964750Y-88764482D01*
X64319268Y-88835000D01*
X64680732Y-88835000D01*
X65035250Y-88764482D01*
X65369199Y-88626156D01*
X65669744Y-88425338D01*
X65925338Y-88169744D01*
X66126156Y-87869199D01*
X66264482Y-87535250D01*
X66335000Y-87180732D01*
X66335000Y-87049268D01*
X73725000Y-87049268D01*
X73725000Y-87410732D01*
X73795518Y-87765250D01*
X73933844Y-88099199D01*
X74134662Y-88399744D01*
X74390256Y-88655338D01*
X74690801Y-88856156D01*
X75024750Y-88994482D01*
X75379268Y-89065000D01*
X75740732Y-89065000D01*
X76095250Y-88994482D01*
X76429199Y-88856156D01*
X76729744Y-88655338D01*
X76985338Y-88399744D01*
X77186156Y-88099199D01*
X77324482Y-87765250D01*
X77395000Y-87410732D01*
X77395000Y-87049268D01*
X78165000Y-87049268D01*
X78165000Y-87410732D01*
X78235518Y-87765250D01*
X78373844Y-88099199D01*
X78574662Y-88399744D01*
X78830256Y-88655338D01*
X79130801Y-88856156D01*
X79464750Y-88994482D01*
X79819268Y-89065000D01*
X80180732Y-89065000D01*
X80535250Y-88994482D01*
X80869199Y-88856156D01*
X81169744Y-88655338D01*
X81425338Y-88399744D01*
X81626156Y-88099199D01*
X81764482Y-87765250D01*
X81835000Y-87410732D01*
X81835000Y-87049268D01*
X81764482Y-86694750D01*
X81626156Y-86360801D01*
X81425338Y-86060256D01*
X81169744Y-85804662D01*
X80869199Y-85603844D01*
X80535250Y-85465518D01*
X80180732Y-85395000D01*
X79819268Y-85395000D01*
X79464750Y-85465518D01*
X79130801Y-85603844D01*
X78830256Y-85804662D01*
X78574662Y-86060256D01*
X78373844Y-86360801D01*
X78235518Y-86694750D01*
X78165000Y-87049268D01*
X77395000Y-87049268D01*
X77324482Y-86694750D01*
X77186156Y-86360801D01*
X76985338Y-86060256D01*
X76729744Y-85804662D01*
X76429199Y-85603844D01*
X76095250Y-85465518D01*
X75740732Y-85395000D01*
X75379268Y-85395000D01*
X75024750Y-85465518D01*
X74690801Y-85603844D01*
X74390256Y-85804662D01*
X74134662Y-86060256D01*
X73933844Y-86360801D01*
X73795518Y-86694750D01*
X73725000Y-87049268D01*
X66335000Y-87049268D01*
X66335000Y-86819268D01*
X66264482Y-86464750D01*
X66126156Y-86130801D01*
X65925338Y-85830256D01*
X65669744Y-85574662D01*
X65369199Y-85373844D01*
X65035250Y-85235518D01*
X64680732Y-85165000D01*
X64319268Y-85165000D01*
X63964750Y-85235518D01*
X63630801Y-85373844D01*
X63330256Y-85574662D01*
X63074662Y-85830256D01*
X62873844Y-86130801D01*
X62735518Y-86464750D01*
X62665000Y-86819268D01*
X50710000Y-86819268D01*
X50710000Y-79000000D01*
X54882815Y-79000000D01*
X54911487Y-79291111D01*
X54996401Y-79571034D01*
X55134294Y-79829014D01*
X55319866Y-80055134D01*
X55545986Y-80240706D01*
X55563374Y-80250000D01*
X55545986Y-80259294D01*
X55319866Y-80444866D01*
X55134294Y-80670986D01*
X54996401Y-80928966D01*
X54911487Y-81208889D01*
X54882815Y-81500000D01*
X54911487Y-81791111D01*
X54996401Y-82071034D01*
X55134294Y-82329014D01*
X55319866Y-82555134D01*
X55545986Y-82740706D01*
X55563374Y-82750000D01*
X55545986Y-82759294D01*
X55319866Y-82944866D01*
X55134294Y-83170986D01*
X54996401Y-83428966D01*
X54911487Y-83708889D01*
X54882815Y-84000000D01*
X54911487Y-84291111D01*
X54996401Y-84571034D01*
X55134294Y-84829014D01*
X55319866Y-85055134D01*
X55545986Y-85240706D01*
X55803966Y-85378599D01*
X56083889Y-85463513D01*
X56302050Y-85485000D01*
X56697950Y-85485000D01*
X56916111Y-85463513D01*
X57196034Y-85378599D01*
X57454014Y-85240706D01*
X57680134Y-85055134D01*
X57865706Y-84829014D01*
X58003599Y-84571034D01*
X58088513Y-84291111D01*
X58117185Y-84000000D01*
X58088513Y-83708889D01*
X58003599Y-83428966D01*
X57865706Y-83170986D01*
X57680134Y-82944866D01*
X57454014Y-82759294D01*
X57436626Y-82750000D01*
X57454014Y-82740706D01*
X57680134Y-82555134D01*
X57865706Y-82329014D01*
X58003599Y-82071034D01*
X58088513Y-81791111D01*
X58117185Y-81500000D01*
X58088513Y-81208889D01*
X58003599Y-80928966D01*
X57865706Y-80670986D01*
X57725382Y-80500000D01*
X68457773Y-80500000D01*
X68486614Y-80792826D01*
X68572028Y-81074399D01*
X68710733Y-81333898D01*
X68897399Y-81561351D01*
X68999326Y-81645000D01*
X68897399Y-81728649D01*
X68710733Y-81956102D01*
X68572028Y-82215601D01*
X68486614Y-82497174D01*
X68457773Y-82790000D01*
X68486614Y-83082826D01*
X68572028Y-83364399D01*
X68710733Y-83623898D01*
X68897399Y-83851351D01*
X69124852Y-84038017D01*
X69384351Y-84176722D01*
X69665924Y-84262136D01*
X69885373Y-84283750D01*
X70114627Y-84283750D01*
X70334076Y-84262136D01*
X70615649Y-84176722D01*
X70875148Y-84038017D01*
X71102601Y-83851351D01*
X71289267Y-83623898D01*
X71427972Y-83364399D01*
X71513386Y-83082826D01*
X71542227Y-82790000D01*
X71513386Y-82497174D01*
X71427972Y-82215601D01*
X71289267Y-81956102D01*
X71102601Y-81728649D01*
X71000674Y-81645000D01*
X71102601Y-81561351D01*
X71289267Y-81333898D01*
X71427972Y-81074399D01*
X71513386Y-80792826D01*
X71542227Y-80500000D01*
X71513386Y-80207174D01*
X71427972Y-79925601D01*
X71289267Y-79666102D01*
X71240550Y-79606740D01*
X71254494Y-79599287D01*
X71351185Y-79519935D01*
X71430537Y-79423244D01*
X71489502Y-79312930D01*
X71525812Y-79193232D01*
X71538072Y-79068750D01*
X71535000Y-78495750D01*
X71376250Y-78337000D01*
X70127000Y-78337000D01*
X70127000Y-78357000D01*
X69873000Y-78357000D01*
X69873000Y-78337000D01*
X68623750Y-78337000D01*
X68465000Y-78495750D01*
X68461928Y-79068750D01*
X68474188Y-79193232D01*
X68510498Y-79312930D01*
X68569463Y-79423244D01*
X68648815Y-79519935D01*
X68745506Y-79599287D01*
X68759450Y-79606740D01*
X68710733Y-79666102D01*
X68572028Y-79925601D01*
X68486614Y-80207174D01*
X68457773Y-80500000D01*
X57725382Y-80500000D01*
X57680134Y-80444866D01*
X57454014Y-80259294D01*
X57436626Y-80250000D01*
X57454014Y-80240706D01*
X57680134Y-80055134D01*
X57865706Y-79829014D01*
X58003599Y-79571034D01*
X58088513Y-79291111D01*
X58117185Y-79000000D01*
X58088513Y-78708889D01*
X58003599Y-78428966D01*
X57865706Y-78170986D01*
X57684392Y-77950055D01*
X57719180Y-77939502D01*
X57829494Y-77880537D01*
X57926185Y-77801185D01*
X58005537Y-77704494D01*
X58064502Y-77594180D01*
X58100812Y-77474482D01*
X58112948Y-77351250D01*
X68461928Y-77351250D01*
X68465000Y-77924250D01*
X68623750Y-78083000D01*
X69873000Y-78083000D01*
X69873000Y-76875000D01*
X70127000Y-76875000D01*
X70127000Y-78083000D01*
X71376250Y-78083000D01*
X71535000Y-77924250D01*
X71538072Y-77351250D01*
X71525812Y-77226768D01*
X71489502Y-77107070D01*
X71430537Y-76996756D01*
X71351185Y-76900065D01*
X71254494Y-76820713D01*
X71144180Y-76761748D01*
X71024482Y-76725438D01*
X70900000Y-76713178D01*
X70285750Y-76716250D01*
X70127000Y-76875000D01*
X69873000Y-76875000D01*
X69714250Y-76716250D01*
X69100000Y-76713178D01*
X68975518Y-76725438D01*
X68855820Y-76761748D01*
X68745506Y-76820713D01*
X68648815Y-76900065D01*
X68569463Y-76996756D01*
X68510498Y-77107070D01*
X68474188Y-77226768D01*
X68461928Y-77351250D01*
X58112948Y-77351250D01*
X58113072Y-77350000D01*
X58110000Y-76785750D01*
X57951250Y-76627000D01*
X56627000Y-76627000D01*
X56627000Y-76647000D01*
X56373000Y-76647000D01*
X56373000Y-76627000D01*
X55048750Y-76627000D01*
X54890000Y-76785750D01*
X54886928Y-77350000D01*
X54899188Y-77474482D01*
X54935498Y-77594180D01*
X54994463Y-77704494D01*
X55073815Y-77801185D01*
X55170506Y-77880537D01*
X55280820Y-77939502D01*
X55315608Y-77950055D01*
X55134294Y-78170986D01*
X54996401Y-78428966D01*
X54911487Y-78708889D01*
X54882815Y-79000000D01*
X50710000Y-79000000D01*
X50710000Y-74778363D01*
X53265000Y-74778363D01*
X53265000Y-75021637D01*
X53312460Y-75260236D01*
X53405557Y-75484992D01*
X53540713Y-75687267D01*
X53712733Y-75859287D01*
X53915008Y-75994443D01*
X54139764Y-76087540D01*
X54378363Y-76135000D01*
X54621637Y-76135000D01*
X54860236Y-76087540D01*
X54889245Y-76075524D01*
X54890000Y-76214250D01*
X55048750Y-76373000D01*
X56373000Y-76373000D01*
X56373000Y-75173750D01*
X56627000Y-75173750D01*
X56627000Y-76373000D01*
X57951250Y-76373000D01*
X58110000Y-76214250D01*
X58113072Y-75650000D01*
X58100812Y-75525518D01*
X58093072Y-75500000D01*
X62661928Y-75500000D01*
X62674188Y-75624482D01*
X62710498Y-75744180D01*
X62769463Y-75854494D01*
X62848815Y-75951185D01*
X62945506Y-76030537D01*
X63055820Y-76089502D01*
X63175518Y-76125812D01*
X63300000Y-76138072D01*
X64214250Y-76135000D01*
X64373000Y-75976250D01*
X64373000Y-74427000D01*
X64627000Y-74427000D01*
X64627000Y-75976250D01*
X64785750Y-76135000D01*
X65700000Y-76138072D01*
X65824482Y-76125812D01*
X65944180Y-76089502D01*
X66054494Y-76030537D01*
X66151185Y-75951185D01*
X66230537Y-75854494D01*
X66289502Y-75744180D01*
X66325812Y-75624482D01*
X66338072Y-75500000D01*
X66335000Y-74585750D01*
X66176250Y-74427000D01*
X64627000Y-74427000D01*
X64373000Y-74427000D01*
X62823750Y-74427000D01*
X62665000Y-74585750D01*
X62661928Y-75500000D01*
X58093072Y-75500000D01*
X58064502Y-75405820D01*
X58005537Y-75295506D01*
X57926185Y-75198815D01*
X57829494Y-75119463D01*
X57719180Y-75060498D01*
X57599482Y-75024188D01*
X57475000Y-75011928D01*
X56785750Y-75015000D01*
X56627000Y-75173750D01*
X56373000Y-75173750D01*
X56214250Y-75015000D01*
X55735000Y-75012864D01*
X55735000Y-74778363D01*
X55687540Y-74539764D01*
X55608634Y-74349268D01*
X73725000Y-74349268D01*
X73725000Y-74710732D01*
X73795518Y-75065250D01*
X73933844Y-75399199D01*
X74134662Y-75699744D01*
X74390256Y-75955338D01*
X74690801Y-76156156D01*
X75024750Y-76294482D01*
X75379268Y-76365000D01*
X75740732Y-76365000D01*
X76095250Y-76294482D01*
X76429199Y-76156156D01*
X76729744Y-75955338D01*
X76985338Y-75699744D01*
X77186156Y-75399199D01*
X77324482Y-75065250D01*
X77395000Y-74710732D01*
X77395000Y-74349268D01*
X78165000Y-74349268D01*
X78165000Y-74710732D01*
X78235518Y-75065250D01*
X78373844Y-75399199D01*
X78574662Y-75699744D01*
X78830256Y-75955338D01*
X79130801Y-76156156D01*
X79464750Y-76294482D01*
X79819268Y-76365000D01*
X80180732Y-76365000D01*
X80535250Y-76294482D01*
X80869199Y-76156156D01*
X81169744Y-75955338D01*
X81425338Y-75699744D01*
X81626156Y-75399199D01*
X81764482Y-75065250D01*
X81835000Y-74710732D01*
X81835000Y-74349268D01*
X81764482Y-73994750D01*
X81626156Y-73660801D01*
X81425338Y-73360256D01*
X81169744Y-73104662D01*
X80869199Y-72903844D01*
X80535250Y-72765518D01*
X80180732Y-72695000D01*
X79819268Y-72695000D01*
X79464750Y-72765518D01*
X79130801Y-72903844D01*
X78830256Y-73104662D01*
X78574662Y-73360256D01*
X78373844Y-73660801D01*
X78235518Y-73994750D01*
X78165000Y-74349268D01*
X77395000Y-74349268D01*
X77324482Y-73994750D01*
X77186156Y-73660801D01*
X76985338Y-73360256D01*
X76729744Y-73104662D01*
X76429199Y-72903844D01*
X76095250Y-72765518D01*
X75740732Y-72695000D01*
X75379268Y-72695000D01*
X75024750Y-72765518D01*
X74690801Y-72903844D01*
X74390256Y-73104662D01*
X74134662Y-73360256D01*
X73933844Y-73660801D01*
X73795518Y-73994750D01*
X73725000Y-74349268D01*
X55608634Y-74349268D01*
X55594443Y-74315008D01*
X55459287Y-74112733D01*
X55287267Y-73940713D01*
X55084992Y-73805557D01*
X54860236Y-73712460D01*
X54621637Y-73665000D01*
X54378363Y-73665000D01*
X54139764Y-73712460D01*
X53915008Y-73805557D01*
X53712733Y-73940713D01*
X53540713Y-74112733D01*
X53405557Y-74315008D01*
X53312460Y-74539764D01*
X53265000Y-74778363D01*
X50710000Y-74778363D01*
X50710000Y-73100000D01*
X62661928Y-73100000D01*
X62665000Y-74014250D01*
X62823750Y-74173000D01*
X64373000Y-74173000D01*
X64373000Y-72623750D01*
X64627000Y-72623750D01*
X64627000Y-74173000D01*
X66176250Y-74173000D01*
X66335000Y-74014250D01*
X66338072Y-73100000D01*
X66325812Y-72975518D01*
X66289502Y-72855820D01*
X66230537Y-72745506D01*
X66151185Y-72648815D01*
X66054494Y-72569463D01*
X65944180Y-72510498D01*
X65824482Y-72474188D01*
X65700000Y-72461928D01*
X64785750Y-72465000D01*
X64627000Y-72623750D01*
X64373000Y-72623750D01*
X64214250Y-72465000D01*
X63300000Y-72461928D01*
X63175518Y-72474188D01*
X63055820Y-72510498D01*
X62945506Y-72569463D01*
X62848815Y-72648815D01*
X62769463Y-72745506D01*
X62710498Y-72855820D01*
X62674188Y-72975518D01*
X62661928Y-73100000D01*
X50710000Y-73100000D01*
X50710000Y-67019268D01*
X59665000Y-67019268D01*
X59665000Y-67380732D01*
X59735518Y-67735250D01*
X59873844Y-68069199D01*
X60074662Y-68369744D01*
X60330256Y-68625338D01*
X60630801Y-68826156D01*
X60964750Y-68964482D01*
X61319268Y-69035000D01*
X61680732Y-69035000D01*
X62035250Y-68964482D01*
X62369199Y-68826156D01*
X62669744Y-68625338D01*
X62925338Y-68369744D01*
X63126156Y-68069199D01*
X63264482Y-67735250D01*
X63335000Y-67380732D01*
X63335000Y-67049268D01*
X64665000Y-67049268D01*
X64665000Y-67410732D01*
X64735518Y-67765250D01*
X64873844Y-68099199D01*
X65074662Y-68399744D01*
X65330256Y-68655338D01*
X65630801Y-68856156D01*
X65964750Y-68994482D01*
X66319268Y-69065000D01*
X66680732Y-69065000D01*
X67035250Y-68994482D01*
X67369199Y-68856156D01*
X67669744Y-68655338D01*
X67925338Y-68399744D01*
X68126156Y-68099199D01*
X68264482Y-67765250D01*
X68335000Y-67410732D01*
X68335000Y-67049268D01*
X69665000Y-67049268D01*
X69665000Y-67410732D01*
X69735518Y-67765250D01*
X69873844Y-68099199D01*
X70074662Y-68399744D01*
X70330256Y-68655338D01*
X70630801Y-68856156D01*
X70964750Y-68994482D01*
X71319268Y-69065000D01*
X71680732Y-69065000D01*
X72035250Y-68994482D01*
X72144449Y-68949250D01*
X74706200Y-71511002D01*
X74729999Y-71540001D01*
X74758997Y-71563799D01*
X74845723Y-71634974D01*
X74977753Y-71705546D01*
X75121014Y-71749003D01*
X75232667Y-71760000D01*
X75232676Y-71760000D01*
X75269999Y-71763676D01*
X75307322Y-71760000D01*
X84108951Y-71760000D01*
X84272129Y-71923178D01*
X83600000Y-71923178D01*
X83475518Y-71935438D01*
X83355820Y-71971748D01*
X83245506Y-72030713D01*
X83148815Y-72110065D01*
X83069463Y-72206756D01*
X83010498Y-72317070D01*
X82974188Y-72436768D01*
X82961928Y-72561250D01*
X82961928Y-74278750D01*
X82974188Y-74403232D01*
X83010498Y-74522930D01*
X83069463Y-74633244D01*
X83148815Y-74729935D01*
X83245506Y-74809287D01*
X83259450Y-74816740D01*
X83210733Y-74876102D01*
X83072028Y-75135601D01*
X82986614Y-75417174D01*
X82957773Y-75710000D01*
X82986614Y-76002826D01*
X83072028Y-76284399D01*
X83210733Y-76543898D01*
X83397399Y-76771351D01*
X83499326Y-76855000D01*
X83397399Y-76938649D01*
X83210733Y-77166102D01*
X83072028Y-77425601D01*
X82986614Y-77707174D01*
X82957773Y-78000000D01*
X82986614Y-78292826D01*
X83072028Y-78574399D01*
X83210733Y-78833898D01*
X83397399Y-79061351D01*
X83624852Y-79248017D01*
X83884351Y-79386722D01*
X84165924Y-79472136D01*
X84385373Y-79493750D01*
X84614627Y-79493750D01*
X84834076Y-79472136D01*
X85115649Y-79386722D01*
X85375148Y-79248017D01*
X85602601Y-79061351D01*
X85789267Y-78833898D01*
X85927972Y-78574399D01*
X86013386Y-78292826D01*
X86042227Y-78000000D01*
X86013386Y-77707174D01*
X85927972Y-77425601D01*
X85789267Y-77166102D01*
X85602601Y-76938649D01*
X85500674Y-76855000D01*
X85602601Y-76771351D01*
X85789267Y-76543898D01*
X85927972Y-76284399D01*
X85972256Y-76138415D01*
X86004774Y-76301898D01*
X86082795Y-76490256D01*
X86196063Y-76659774D01*
X86240000Y-76703711D01*
X86240001Y-77962668D01*
X86236324Y-78000000D01*
X86250998Y-78148985D01*
X86294454Y-78292246D01*
X86365026Y-78424276D01*
X86423684Y-78495750D01*
X86460000Y-78540001D01*
X86488998Y-78563799D01*
X95761928Y-87836731D01*
X95761928Y-89600000D01*
X95774188Y-89724482D01*
X95810498Y-89844180D01*
X95869463Y-89954494D01*
X95948815Y-90051185D01*
X96045506Y-90130537D01*
X96155820Y-90189502D01*
X96275518Y-90225812D01*
X96400000Y-90238072D01*
X98600000Y-90238072D01*
X98724482Y-90225812D01*
X98844180Y-90189502D01*
X98954494Y-90130537D01*
X99051185Y-90051185D01*
X99130537Y-89954494D01*
X99189502Y-89844180D01*
X99225812Y-89724482D01*
X99238072Y-89600000D01*
X99238072Y-87400000D01*
X99225812Y-87275518D01*
X99189502Y-87155820D01*
X99130537Y-87045506D01*
X99051185Y-86948815D01*
X98954494Y-86869463D01*
X98844180Y-86810498D01*
X98724482Y-86774188D01*
X98600000Y-86761928D01*
X96836731Y-86761928D01*
X93774803Y-83700000D01*
X104561928Y-83700000D01*
X104561928Y-86300000D01*
X104574188Y-86424482D01*
X104610498Y-86544180D01*
X104669463Y-86654494D01*
X104748815Y-86751185D01*
X104845506Y-86830537D01*
X104955820Y-86889502D01*
X105075518Y-86925812D01*
X105200000Y-86938072D01*
X107800000Y-86938072D01*
X107924482Y-86925812D01*
X108044180Y-86889502D01*
X108154494Y-86830537D01*
X108251185Y-86751185D01*
X108330537Y-86654494D01*
X108389502Y-86544180D01*
X108425812Y-86424482D01*
X108438072Y-86300000D01*
X108438072Y-83700000D01*
X108425812Y-83575518D01*
X108389502Y-83455820D01*
X108330537Y-83345506D01*
X108251185Y-83248815D01*
X108154494Y-83169463D01*
X108044180Y-83110498D01*
X107924482Y-83074188D01*
X107800000Y-83061928D01*
X105200000Y-83061928D01*
X105075518Y-83074188D01*
X104955820Y-83110498D01*
X104845506Y-83169463D01*
X104748815Y-83248815D01*
X104669463Y-83345506D01*
X104610498Y-83455820D01*
X104574188Y-83575518D01*
X104561928Y-83700000D01*
X93774803Y-83700000D01*
X90682621Y-80607819D01*
X90819268Y-80635000D01*
X91180732Y-80635000D01*
X91535250Y-80564482D01*
X91869199Y-80426156D01*
X92169744Y-80225338D01*
X92425338Y-79969744D01*
X92626156Y-79669199D01*
X92764482Y-79335250D01*
X92835000Y-78980732D01*
X92835000Y-78619268D01*
X92764482Y-78264750D01*
X92724870Y-78169117D01*
X95765000Y-78169117D01*
X95765000Y-78510883D01*
X95831675Y-78846081D01*
X95962463Y-79161831D01*
X96152337Y-79445998D01*
X96394002Y-79687663D01*
X96678169Y-79877537D01*
X96993919Y-80008325D01*
X97329117Y-80075000D01*
X97670883Y-80075000D01*
X98006081Y-80008325D01*
X98321831Y-79877537D01*
X98543505Y-79729419D01*
X104565000Y-79729419D01*
X104565000Y-80110581D01*
X104639361Y-80484419D01*
X104785225Y-80836566D01*
X104996987Y-81153491D01*
X105266509Y-81423013D01*
X105583434Y-81634775D01*
X105935581Y-81780639D01*
X106309419Y-81855000D01*
X106690581Y-81855000D01*
X107064419Y-81780639D01*
X107416566Y-81634775D01*
X107733491Y-81423013D01*
X108003013Y-81153491D01*
X108214775Y-80836566D01*
X108360639Y-80484419D01*
X108435000Y-80110581D01*
X108435000Y-79729419D01*
X108360639Y-79355581D01*
X108214775Y-79003434D01*
X108003013Y-78686509D01*
X107733491Y-78416987D01*
X107416566Y-78205225D01*
X107064419Y-78059361D01*
X106690581Y-77985000D01*
X106309419Y-77985000D01*
X105935581Y-78059361D01*
X105583434Y-78205225D01*
X105266509Y-78416987D01*
X104996987Y-78686509D01*
X104785225Y-79003434D01*
X104639361Y-79355581D01*
X104565000Y-79729419D01*
X98543505Y-79729419D01*
X98605998Y-79687663D01*
X98847663Y-79445998D01*
X99037537Y-79161831D01*
X99168325Y-78846081D01*
X99235000Y-78510883D01*
X99235000Y-78169117D01*
X99168325Y-77833919D01*
X99037537Y-77518169D01*
X98847663Y-77234002D01*
X98605998Y-76992337D01*
X98321831Y-76802463D01*
X98006081Y-76671675D01*
X97670883Y-76605000D01*
X97329117Y-76605000D01*
X96993919Y-76671675D01*
X96678169Y-76802463D01*
X96394002Y-76992337D01*
X96152337Y-77234002D01*
X95962463Y-77518169D01*
X95831675Y-77833919D01*
X95765000Y-78169117D01*
X92724870Y-78169117D01*
X92626156Y-77930801D01*
X92425338Y-77630256D01*
X92169744Y-77374662D01*
X91869199Y-77173844D01*
X91535250Y-77035518D01*
X91180732Y-76965000D01*
X90819268Y-76965000D01*
X90464750Y-77035518D01*
X90130801Y-77173844D01*
X89830256Y-77374662D01*
X89574662Y-77630256D01*
X89373844Y-77930801D01*
X89235518Y-78264750D01*
X89165000Y-78619268D01*
X89165000Y-78980732D01*
X89192181Y-79117380D01*
X87760000Y-77685199D01*
X87760000Y-76703711D01*
X87803937Y-76659774D01*
X87917205Y-76490256D01*
X87995226Y-76301898D01*
X88035000Y-76101939D01*
X88035000Y-75898061D01*
X87995226Y-75698102D01*
X87917205Y-75509744D01*
X87803937Y-75340226D01*
X87760000Y-75296289D01*
X87760000Y-74314801D01*
X89255533Y-72819268D01*
X92965000Y-72819268D01*
X92965000Y-73180732D01*
X93035518Y-73535250D01*
X93173844Y-73869199D01*
X93374662Y-74169744D01*
X93630256Y-74425338D01*
X93930801Y-74626156D01*
X94264750Y-74764482D01*
X94619268Y-74835000D01*
X94980732Y-74835000D01*
X95335250Y-74764482D01*
X95669199Y-74626156D01*
X95969744Y-74425338D01*
X96225338Y-74169744D01*
X96426156Y-73869199D01*
X96564482Y-73535250D01*
X96635000Y-73180732D01*
X96635000Y-72819268D01*
X105665000Y-72819268D01*
X105665000Y-73180732D01*
X105735518Y-73535250D01*
X105873844Y-73869199D01*
X106074662Y-74169744D01*
X106330256Y-74425338D01*
X106630801Y-74626156D01*
X106964750Y-74764482D01*
X107319268Y-74835000D01*
X107680732Y-74835000D01*
X108035250Y-74764482D01*
X108369199Y-74626156D01*
X108669744Y-74425338D01*
X108925338Y-74169744D01*
X109126156Y-73869199D01*
X109264482Y-73535250D01*
X109335000Y-73180732D01*
X109335000Y-72819268D01*
X109264482Y-72464750D01*
X109126156Y-72130801D01*
X108925338Y-71830256D01*
X108669744Y-71574662D01*
X108369199Y-71373844D01*
X108035250Y-71235518D01*
X107680732Y-71165000D01*
X107319268Y-71165000D01*
X106964750Y-71235518D01*
X106630801Y-71373844D01*
X106330256Y-71574662D01*
X106074662Y-71830256D01*
X105873844Y-72130801D01*
X105735518Y-72464750D01*
X105665000Y-72819268D01*
X96635000Y-72819268D01*
X96564482Y-72464750D01*
X96426156Y-72130801D01*
X96225338Y-71830256D01*
X95969744Y-71574662D01*
X95669199Y-71373844D01*
X95335250Y-71235518D01*
X94980732Y-71165000D01*
X94619268Y-71165000D01*
X94264750Y-71235518D01*
X93930801Y-71373844D01*
X93630256Y-71574662D01*
X93374662Y-71830256D01*
X93173844Y-72130801D01*
X93035518Y-72464750D01*
X92965000Y-72819268D01*
X89255533Y-72819268D01*
X92511004Y-69563798D01*
X92540001Y-69540001D01*
X92563804Y-69510997D01*
X93824801Y-68250000D01*
X100836928Y-68250000D01*
X100849188Y-68374482D01*
X100885498Y-68494180D01*
X100944463Y-68604494D01*
X101023815Y-68701185D01*
X101120506Y-68780537D01*
X101230820Y-68839502D01*
X101350518Y-68875812D01*
X101475000Y-68888072D01*
X101714250Y-68885000D01*
X101873000Y-68726250D01*
X101873000Y-67627000D01*
X100998750Y-67627000D01*
X100840000Y-67785750D01*
X100836928Y-68250000D01*
X93824801Y-68250000D01*
X94063799Y-68011003D01*
X94063804Y-68010997D01*
X95324801Y-66750000D01*
X100836928Y-66750000D01*
X100840000Y-67214250D01*
X100998750Y-67373000D01*
X101873000Y-67373000D01*
X101873000Y-67218022D01*
X102110000Y-67218022D01*
X102110000Y-67781979D01*
X102126785Y-67952400D01*
X102127000Y-67953109D01*
X102127000Y-68726250D01*
X102285750Y-68885000D01*
X102525000Y-68888072D01*
X102649482Y-68875812D01*
X102769180Y-68839502D01*
X102833902Y-68804907D01*
X103042601Y-68868215D01*
X103270000Y-68890612D01*
X103497400Y-68868215D01*
X103716060Y-68801885D01*
X103905000Y-68700894D01*
X104093941Y-68801885D01*
X104312601Y-68868215D01*
X104540000Y-68890612D01*
X104767400Y-68868215D01*
X104986060Y-68801885D01*
X105187579Y-68694171D01*
X105364212Y-68549212D01*
X105509171Y-68372579D01*
X105616885Y-68171059D01*
X105683215Y-67952399D01*
X105700000Y-67781978D01*
X105700000Y-67218021D01*
X105683215Y-67047600D01*
X105616885Y-66828940D01*
X105509171Y-66627421D01*
X105364212Y-66450788D01*
X105187578Y-66305829D01*
X104986059Y-66198115D01*
X104767399Y-66131785D01*
X104540000Y-66109388D01*
X104312600Y-66131785D01*
X104093940Y-66198115D01*
X103905000Y-66299106D01*
X103716059Y-66198115D01*
X103497399Y-66131785D01*
X103270000Y-66109388D01*
X103042600Y-66131785D01*
X102833902Y-66195093D01*
X102769180Y-66160498D01*
X102649482Y-66124188D01*
X102525000Y-66111928D01*
X102285750Y-66115000D01*
X102127000Y-66273750D01*
X102127000Y-67046892D01*
X102126785Y-67047601D01*
X102110000Y-67218022D01*
X101873000Y-67218022D01*
X101873000Y-66273750D01*
X101714250Y-66115000D01*
X101475000Y-66111928D01*
X101350518Y-66124188D01*
X101230820Y-66160498D01*
X101120506Y-66219463D01*
X101023815Y-66298815D01*
X100944463Y-66395506D01*
X100885498Y-66505820D01*
X100849188Y-66625518D01*
X100836928Y-66750000D01*
X95324801Y-66750000D01*
X96836730Y-65238072D01*
X98600000Y-65238072D01*
X98724482Y-65225812D01*
X98844180Y-65189502D01*
X98954494Y-65130537D01*
X99051185Y-65051185D01*
X99130537Y-64954494D01*
X99189502Y-64844180D01*
X99225812Y-64724482D01*
X99238072Y-64600000D01*
X99238072Y-62400000D01*
X99225812Y-62275518D01*
X99189502Y-62155820D01*
X99130537Y-62045506D01*
X99051185Y-61948815D01*
X98954494Y-61869463D01*
X98844180Y-61810498D01*
X98724482Y-61774188D01*
X98600000Y-61761928D01*
X96400000Y-61761928D01*
X96275518Y-61774188D01*
X96155820Y-61810498D01*
X96045506Y-61869463D01*
X95948815Y-61948815D01*
X95869463Y-62045506D01*
X95810498Y-62155820D01*
X95774188Y-62275518D01*
X95761928Y-62400000D01*
X95761928Y-64163270D01*
X92989003Y-66936196D01*
X92988997Y-66936201D01*
X92760000Y-67165198D01*
X92760000Y-65577322D01*
X92763676Y-65539999D01*
X92760000Y-65502676D01*
X92760000Y-65502667D01*
X92749003Y-65391014D01*
X92705546Y-65247753D01*
X92634974Y-65115724D01*
X92621811Y-65099685D01*
X92563799Y-65028996D01*
X92563795Y-65028992D01*
X92540001Y-64999999D01*
X92511008Y-64976205D01*
X89852851Y-62318049D01*
X89868215Y-62267400D01*
X89890612Y-62040000D01*
X89868215Y-61812600D01*
X89801885Y-61593940D01*
X89701071Y-61405331D01*
X89742275Y-61346882D01*
X89835272Y-61137337D01*
X89843964Y-61075810D01*
X89718163Y-60897000D01*
X88953109Y-60897000D01*
X88952400Y-60896785D01*
X88781979Y-60880000D01*
X88218021Y-60880000D01*
X88047600Y-60896785D01*
X88046891Y-60897000D01*
X87281837Y-60897000D01*
X87156036Y-61075810D01*
X87164728Y-61137337D01*
X87257725Y-61346882D01*
X87298929Y-61405331D01*
X87198115Y-61593940D01*
X87131785Y-61812600D01*
X87109388Y-62040000D01*
X87131785Y-62267400D01*
X87198115Y-62486060D01*
X87305829Y-62687579D01*
X87450788Y-62864212D01*
X87627421Y-63009171D01*
X87828940Y-63116885D01*
X88047600Y-63183215D01*
X88218021Y-63200000D01*
X88585199Y-63200000D01*
X91240001Y-65854804D01*
X91240000Y-68685198D01*
X87211876Y-72713323D01*
X86221876Y-71723323D01*
X86221876Y-67663960D01*
X86263329Y-67741514D01*
X86507298Y-67813097D01*
X87320395Y-67000000D01*
X86507298Y-66186903D01*
X86263329Y-66258486D01*
X86221876Y-66346093D01*
X86221876Y-66007298D01*
X86686903Y-66007298D01*
X87500000Y-66820395D01*
X87514143Y-66806253D01*
X87693748Y-66985858D01*
X87679605Y-67000000D01*
X87693748Y-67014143D01*
X87514143Y-67193748D01*
X87500000Y-67179605D01*
X86686903Y-67992702D01*
X86758486Y-68236671D01*
X87013996Y-68357571D01*
X87288184Y-68426300D01*
X87570512Y-68440217D01*
X87850130Y-68398787D01*
X88116292Y-68303603D01*
X88238309Y-68238384D01*
X88248815Y-68251185D01*
X88345506Y-68330537D01*
X88455820Y-68389502D01*
X88575518Y-68425812D01*
X88700000Y-68438072D01*
X90300000Y-68438072D01*
X90424482Y-68425812D01*
X90544180Y-68389502D01*
X90654494Y-68330537D01*
X90751185Y-68251185D01*
X90830537Y-68154494D01*
X90889502Y-68044180D01*
X90925812Y-67924482D01*
X90938072Y-67800000D01*
X90938072Y-66200000D01*
X90925812Y-66075518D01*
X90889502Y-65955820D01*
X90830537Y-65845506D01*
X90751185Y-65748815D01*
X90654494Y-65669463D01*
X90544180Y-65610498D01*
X90424482Y-65574188D01*
X90300000Y-65561928D01*
X88700000Y-65561928D01*
X88575518Y-65574188D01*
X88455820Y-65610498D01*
X88345506Y-65669463D01*
X88248815Y-65748815D01*
X88238193Y-65761758D01*
X87986004Y-65642429D01*
X87711816Y-65573700D01*
X87429488Y-65559783D01*
X87149870Y-65601213D01*
X86883708Y-65696397D01*
X86758486Y-65763329D01*
X86686903Y-66007298D01*
X86221876Y-66007298D01*
X86221876Y-64999201D01*
X86225552Y-64961876D01*
X86221876Y-64924551D01*
X86221876Y-64924543D01*
X86210879Y-64812890D01*
X86167422Y-64669629D01*
X86096850Y-64537600D01*
X86001877Y-64421875D01*
X85972880Y-64398078D01*
X83103804Y-61529003D01*
X83080001Y-61499999D01*
X82964276Y-61405026D01*
X82832247Y-61334454D01*
X82688986Y-61290997D01*
X82577333Y-61280000D01*
X82577322Y-61280000D01*
X82540000Y-61276324D01*
X82502678Y-61280000D01*
X82271958Y-61280000D01*
X82335272Y-61137337D01*
X82343964Y-61075810D01*
X82218163Y-60897000D01*
X81453109Y-60897000D01*
X81452400Y-60896785D01*
X81281979Y-60880000D01*
X80718021Y-60880000D01*
X80547600Y-60896785D01*
X80546891Y-60897000D01*
X79781837Y-60897000D01*
X79656036Y-61075810D01*
X79664728Y-61137337D01*
X79757725Y-61346882D01*
X79798929Y-61405331D01*
X79698115Y-61593940D01*
X79631785Y-61812600D01*
X79609388Y-62040000D01*
X79631785Y-62267400D01*
X79698115Y-62486060D01*
X79805829Y-62687579D01*
X79950788Y-62864212D01*
X80127421Y-63009171D01*
X80328940Y-63116885D01*
X80547600Y-63183215D01*
X80718021Y-63200000D01*
X81281979Y-63200000D01*
X81452400Y-63183215D01*
X81671060Y-63116885D01*
X81872579Y-63009171D01*
X82049212Y-62864212D01*
X82101909Y-62800000D01*
X82225199Y-62800000D01*
X84701876Y-65276678D01*
X84701877Y-70290170D01*
X84572738Y-70250997D01*
X84461085Y-70240000D01*
X84461074Y-70240000D01*
X84423752Y-70236324D01*
X84386430Y-70240000D01*
X75584802Y-70240000D01*
X73219250Y-67874449D01*
X73264482Y-67765250D01*
X73335000Y-67410732D01*
X73335000Y-67070512D01*
X78559783Y-67070512D01*
X78601213Y-67350130D01*
X78696397Y-67616292D01*
X78763329Y-67741514D01*
X79007298Y-67813097D01*
X79820395Y-67000000D01*
X79007298Y-66186903D01*
X78763329Y-66258486D01*
X78642429Y-66513996D01*
X78573700Y-66788184D01*
X78559783Y-67070512D01*
X73335000Y-67070512D01*
X73335000Y-67049268D01*
X73264482Y-66694750D01*
X73126156Y-66360801D01*
X72925338Y-66060256D01*
X72872380Y-66007298D01*
X79186903Y-66007298D01*
X80000000Y-66820395D01*
X80014143Y-66806253D01*
X80193748Y-66985858D01*
X80179605Y-67000000D01*
X80193748Y-67014143D01*
X80014143Y-67193748D01*
X80000000Y-67179605D01*
X79186903Y-67992702D01*
X79258486Y-68236671D01*
X79513996Y-68357571D01*
X79788184Y-68426300D01*
X80070512Y-68440217D01*
X80350130Y-68398787D01*
X80616292Y-68303603D01*
X80738309Y-68238384D01*
X80748815Y-68251185D01*
X80845506Y-68330537D01*
X80955820Y-68389502D01*
X81075518Y-68425812D01*
X81200000Y-68438072D01*
X82800000Y-68438072D01*
X82924482Y-68425812D01*
X83044180Y-68389502D01*
X83154494Y-68330537D01*
X83251185Y-68251185D01*
X83330537Y-68154494D01*
X83389502Y-68044180D01*
X83425812Y-67924482D01*
X83438072Y-67800000D01*
X83438072Y-66200000D01*
X83425812Y-66075518D01*
X83389502Y-65955820D01*
X83330537Y-65845506D01*
X83251185Y-65748815D01*
X83154494Y-65669463D01*
X83044180Y-65610498D01*
X82924482Y-65574188D01*
X82800000Y-65561928D01*
X81200000Y-65561928D01*
X81075518Y-65574188D01*
X80955820Y-65610498D01*
X80845506Y-65669463D01*
X80748815Y-65748815D01*
X80738193Y-65761758D01*
X80486004Y-65642429D01*
X80211816Y-65573700D01*
X79929488Y-65559783D01*
X79649870Y-65601213D01*
X79383708Y-65696397D01*
X79258486Y-65763329D01*
X79186903Y-66007298D01*
X72872380Y-66007298D01*
X72669744Y-65804662D01*
X72369199Y-65603844D01*
X72035250Y-65465518D01*
X71680732Y-65395000D01*
X71319268Y-65395000D01*
X70964750Y-65465518D01*
X70630801Y-65603844D01*
X70330256Y-65804662D01*
X70074662Y-66060256D01*
X69873844Y-66360801D01*
X69735518Y-66694750D01*
X69665000Y-67049268D01*
X68335000Y-67049268D01*
X68264482Y-66694750D01*
X68126156Y-66360801D01*
X67925338Y-66060256D01*
X67669744Y-65804662D01*
X67369199Y-65603844D01*
X67035250Y-65465518D01*
X66680732Y-65395000D01*
X66319268Y-65395000D01*
X65964750Y-65465518D01*
X65630801Y-65603844D01*
X65330256Y-65804662D01*
X65074662Y-66060256D01*
X64873844Y-66360801D01*
X64735518Y-66694750D01*
X64665000Y-67049268D01*
X63335000Y-67049268D01*
X63335000Y-67019268D01*
X63264482Y-66664750D01*
X63126156Y-66330801D01*
X62925338Y-66030256D01*
X62669744Y-65774662D01*
X62369199Y-65573844D01*
X62035250Y-65435518D01*
X61680732Y-65365000D01*
X61319268Y-65365000D01*
X60964750Y-65435518D01*
X60630801Y-65573844D01*
X60330256Y-65774662D01*
X60074662Y-66030256D01*
X59873844Y-66330801D01*
X59735518Y-66664750D01*
X59665000Y-67019268D01*
X50710000Y-67019268D01*
X50710000Y-59070512D01*
X53559783Y-59070512D01*
X53601213Y-59350130D01*
X53696397Y-59616292D01*
X53761616Y-59738309D01*
X53748815Y-59748815D01*
X53669463Y-59845506D01*
X53610498Y-59955820D01*
X53574188Y-60075518D01*
X53561928Y-60200000D01*
X53561928Y-61800000D01*
X53574188Y-61924482D01*
X53610498Y-62044180D01*
X53669463Y-62154494D01*
X53748815Y-62251185D01*
X53845506Y-62330537D01*
X53955820Y-62389502D01*
X54075518Y-62425812D01*
X54200000Y-62438072D01*
X55800000Y-62438072D01*
X55924482Y-62425812D01*
X56044180Y-62389502D01*
X56154494Y-62330537D01*
X56251185Y-62251185D01*
X56330537Y-62154494D01*
X56389502Y-62044180D01*
X56425812Y-61924482D01*
X56438072Y-61800000D01*
X56438072Y-60898061D01*
X72465000Y-60898061D01*
X72465000Y-61101939D01*
X72504774Y-61301898D01*
X72582795Y-61490256D01*
X72696063Y-61659774D01*
X72840226Y-61803937D01*
X73009744Y-61917205D01*
X73198102Y-61995226D01*
X73398061Y-62035000D01*
X73601939Y-62035000D01*
X73801898Y-61995226D01*
X73990256Y-61917205D01*
X74159774Y-61803937D01*
X74203711Y-61760000D01*
X74891990Y-61760000D01*
X74935927Y-61803937D01*
X75105445Y-61917205D01*
X75293803Y-61995226D01*
X75493762Y-62035000D01*
X75697640Y-62035000D01*
X75897599Y-61995226D01*
X76085957Y-61917205D01*
X76255475Y-61803937D01*
X76399638Y-61659774D01*
X76512906Y-61490256D01*
X76590927Y-61301898D01*
X76630701Y-61101939D01*
X76630701Y-60898061D01*
X76590927Y-60698102D01*
X76512906Y-60509744D01*
X76399638Y-60340226D01*
X76255475Y-60196063D01*
X76085957Y-60082795D01*
X75897599Y-60004774D01*
X75697640Y-59965000D01*
X75493762Y-59965000D01*
X75293803Y-60004774D01*
X75105445Y-60082795D01*
X74935927Y-60196063D01*
X74891990Y-60240000D01*
X74203711Y-60240000D01*
X74159774Y-60196063D01*
X73990256Y-60082795D01*
X73801898Y-60004774D01*
X73601939Y-59965000D01*
X73398061Y-59965000D01*
X73198102Y-60004774D01*
X73009744Y-60082795D01*
X72840226Y-60196063D01*
X72696063Y-60340226D01*
X72582795Y-60509744D01*
X72504774Y-60698102D01*
X72465000Y-60898061D01*
X56438072Y-60898061D01*
X56438072Y-60200000D01*
X56425812Y-60075518D01*
X56389502Y-59955820D01*
X56330537Y-59845506D01*
X56251185Y-59748815D01*
X56238242Y-59738193D01*
X56357571Y-59486004D01*
X56426300Y-59211816D01*
X56440217Y-58929488D01*
X56398787Y-58649870D01*
X56303603Y-58383708D01*
X56236671Y-58258486D01*
X55992702Y-58186903D01*
X55179605Y-59000000D01*
X55193748Y-59014143D01*
X55014143Y-59193748D01*
X55000000Y-59179605D01*
X54985858Y-59193748D01*
X54806253Y-59014143D01*
X54820395Y-59000000D01*
X54007298Y-58186903D01*
X53763329Y-58258486D01*
X53642429Y-58513996D01*
X53573700Y-58788184D01*
X53559783Y-59070512D01*
X50710000Y-59070512D01*
X50710000Y-58007298D01*
X54186903Y-58007298D01*
X55000000Y-58820395D01*
X55813097Y-58007298D01*
X55741514Y-57763329D01*
X55486004Y-57642429D01*
X55211816Y-57573700D01*
X54929488Y-57559783D01*
X54649870Y-57601213D01*
X54383708Y-57696397D01*
X54258486Y-57763329D01*
X54186903Y-58007298D01*
X50710000Y-58007298D01*
X50710000Y-54911806D01*
X59711801Y-54911806D01*
X59826500Y-55252754D01*
X60005511Y-55564774D01*
X60241954Y-55835875D01*
X60526743Y-56055639D01*
X60848934Y-56215621D01*
X61088195Y-56288195D01*
X61373000Y-56171432D01*
X61373000Y-54627000D01*
X61627000Y-54627000D01*
X61627000Y-56171432D01*
X61911805Y-56288195D01*
X62151066Y-56215621D01*
X62473257Y-56055639D01*
X62758046Y-55835875D01*
X62994489Y-55564774D01*
X63173500Y-55252754D01*
X63288199Y-54911806D01*
X63171854Y-54627000D01*
X61627000Y-54627000D01*
X61373000Y-54627000D01*
X59828146Y-54627000D01*
X59711801Y-54911806D01*
X50710000Y-54911806D01*
X50710000Y-54088194D01*
X59711801Y-54088194D01*
X59828146Y-54373000D01*
X61373000Y-54373000D01*
X61373000Y-52828568D01*
X61627000Y-52828568D01*
X61627000Y-54373000D01*
X63171854Y-54373000D01*
X63181548Y-54349268D01*
X64665000Y-54349268D01*
X64665000Y-54710732D01*
X64735518Y-55065250D01*
X64873844Y-55399199D01*
X65074662Y-55699744D01*
X65330256Y-55955338D01*
X65630801Y-56156156D01*
X65964750Y-56294482D01*
X66319268Y-56365000D01*
X66680732Y-56365000D01*
X67035250Y-56294482D01*
X67369199Y-56156156D01*
X67669744Y-55955338D01*
X67925338Y-55699744D01*
X68126156Y-55399199D01*
X68264482Y-55065250D01*
X68335000Y-54710732D01*
X68335000Y-54349268D01*
X69665000Y-54349268D01*
X69665000Y-54710732D01*
X69735518Y-55065250D01*
X69873844Y-55399199D01*
X70074662Y-55699744D01*
X70330256Y-55955338D01*
X70630801Y-56156156D01*
X70964750Y-56294482D01*
X71319268Y-56365000D01*
X71680732Y-56365000D01*
X72035250Y-56294482D01*
X72369199Y-56156156D01*
X72669744Y-55955338D01*
X72925338Y-55699744D01*
X73126156Y-55399199D01*
X73264482Y-55065250D01*
X73335000Y-54710732D01*
X73335000Y-54349268D01*
X73264482Y-53994750D01*
X73126156Y-53660801D01*
X72925338Y-53360256D01*
X72669744Y-53104662D01*
X72369199Y-52903844D01*
X72035250Y-52765518D01*
X71680732Y-52695000D01*
X71319268Y-52695000D01*
X70964750Y-52765518D01*
X70630801Y-52903844D01*
X70330256Y-53104662D01*
X70074662Y-53360256D01*
X69873844Y-53660801D01*
X69735518Y-53994750D01*
X69665000Y-54349268D01*
X68335000Y-54349268D01*
X68264482Y-53994750D01*
X68126156Y-53660801D01*
X67925338Y-53360256D01*
X67669744Y-53104662D01*
X67369199Y-52903844D01*
X67035250Y-52765518D01*
X66680732Y-52695000D01*
X66319268Y-52695000D01*
X65964750Y-52765518D01*
X65630801Y-52903844D01*
X65330256Y-53104662D01*
X65074662Y-53360256D01*
X64873844Y-53660801D01*
X64735518Y-53994750D01*
X64665000Y-54349268D01*
X63181548Y-54349268D01*
X63288199Y-54088194D01*
X63173500Y-53747246D01*
X62994489Y-53435226D01*
X62758046Y-53164125D01*
X62473257Y-52944361D01*
X62151066Y-52784379D01*
X61911805Y-52711805D01*
X61627000Y-52828568D01*
X61373000Y-52828568D01*
X61088195Y-52711805D01*
X60848934Y-52784379D01*
X60526743Y-52944361D01*
X60241954Y-53164125D01*
X60005511Y-53435226D01*
X59826500Y-53747246D01*
X59711801Y-54088194D01*
X50710000Y-54088194D01*
X50710000Y-45838967D01*
X52365000Y-45838967D01*
X52365000Y-46161033D01*
X52427832Y-46476912D01*
X52551082Y-46774463D01*
X52730013Y-47042252D01*
X52957748Y-47269987D01*
X53225537Y-47448918D01*
X53523088Y-47572168D01*
X53838967Y-47635000D01*
X54161033Y-47635000D01*
X54476912Y-47572168D01*
X54774463Y-47448918D01*
X55042252Y-47269987D01*
X55269987Y-47042252D01*
X55448918Y-46774463D01*
X55572168Y-46476912D01*
X55635000Y-46161033D01*
X55635000Y-45838967D01*
X58865000Y-45838967D01*
X58865000Y-46161033D01*
X58927832Y-46476912D01*
X59051082Y-46774463D01*
X59230013Y-47042252D01*
X59457748Y-47269987D01*
X59725537Y-47448918D01*
X60023088Y-47572168D01*
X60338967Y-47635000D01*
X60661033Y-47635000D01*
X60976912Y-47572168D01*
X61274463Y-47448918D01*
X61542252Y-47269987D01*
X61769987Y-47042252D01*
X61948918Y-46774463D01*
X62072168Y-46476912D01*
X62135000Y-46161033D01*
X62135000Y-45838967D01*
X62072168Y-45523088D01*
X61948918Y-45225537D01*
X61769987Y-44957748D01*
X61542252Y-44730013D01*
X61274463Y-44551082D01*
X60976912Y-44427832D01*
X60827243Y-44398061D01*
X66465000Y-44398061D01*
X66465000Y-44601939D01*
X66504774Y-44801898D01*
X66582795Y-44990256D01*
X66696063Y-45159774D01*
X66840226Y-45303937D01*
X67009744Y-45417205D01*
X67198102Y-45495226D01*
X67398061Y-45535000D01*
X67460199Y-45535000D01*
X68627802Y-46702604D01*
X68651600Y-46731602D01*
X68680598Y-46755400D01*
X68767324Y-46826575D01*
X68899354Y-46897147D01*
X69042615Y-46940604D01*
X69154268Y-46951601D01*
X69154277Y-46951601D01*
X69191600Y-46955277D01*
X69228923Y-46951601D01*
X75336765Y-46951601D01*
X75374087Y-46955277D01*
X75411409Y-46951601D01*
X75411420Y-46951601D01*
X75523073Y-46940604D01*
X75666334Y-46897147D01*
X75740000Y-46857771D01*
X75740001Y-54962668D01*
X75736324Y-55000000D01*
X75750998Y-55148985D01*
X75794454Y-55292246D01*
X75865026Y-55424276D01*
X75936201Y-55511002D01*
X75960000Y-55540001D01*
X75988998Y-55563799D01*
X79611928Y-59186730D01*
X79611928Y-60025000D01*
X79624188Y-60149482D01*
X79660498Y-60269180D01*
X79695176Y-60334057D01*
X79664728Y-60402663D01*
X79656036Y-60464190D01*
X79781837Y-60643000D01*
X80099765Y-60643000D01*
X80125518Y-60650812D01*
X80250000Y-60663072D01*
X81750000Y-60663072D01*
X81874482Y-60650812D01*
X81900235Y-60643000D01*
X82218163Y-60643000D01*
X82343964Y-60464190D01*
X82335272Y-60402663D01*
X82304824Y-60334057D01*
X82339502Y-60269180D01*
X82375812Y-60149482D01*
X82388072Y-60025000D01*
X82388072Y-58975000D01*
X87111928Y-58975000D01*
X87111928Y-60025000D01*
X87124188Y-60149482D01*
X87160498Y-60269180D01*
X87195176Y-60334057D01*
X87164728Y-60402663D01*
X87156036Y-60464190D01*
X87281837Y-60643000D01*
X87599765Y-60643000D01*
X87625518Y-60650812D01*
X87750000Y-60663072D01*
X89250000Y-60663072D01*
X89374482Y-60650812D01*
X89400235Y-60643000D01*
X89718163Y-60643000D01*
X89843964Y-60464190D01*
X89835272Y-60402663D01*
X89804824Y-60334057D01*
X89839502Y-60269180D01*
X89875812Y-60149482D01*
X89888072Y-60025000D01*
X89888072Y-58975000D01*
X89875812Y-58850518D01*
X89839502Y-58730820D01*
X89823029Y-58700000D01*
X104561928Y-58700000D01*
X104561928Y-61300000D01*
X104574188Y-61424482D01*
X104610498Y-61544180D01*
X104669463Y-61654494D01*
X104748815Y-61751185D01*
X104845506Y-61830537D01*
X104955820Y-61889502D01*
X105075518Y-61925812D01*
X105200000Y-61938072D01*
X107800000Y-61938072D01*
X107924482Y-61925812D01*
X108044180Y-61889502D01*
X108154494Y-61830537D01*
X108251185Y-61751185D01*
X108330537Y-61654494D01*
X108389502Y-61544180D01*
X108425812Y-61424482D01*
X108438072Y-61300000D01*
X108438072Y-58700000D01*
X108425812Y-58575518D01*
X108389502Y-58455820D01*
X108330537Y-58345506D01*
X108251185Y-58248815D01*
X108154494Y-58169463D01*
X108044180Y-58110498D01*
X107924482Y-58074188D01*
X107800000Y-58061928D01*
X105200000Y-58061928D01*
X105075518Y-58074188D01*
X104955820Y-58110498D01*
X104845506Y-58169463D01*
X104748815Y-58248815D01*
X104669463Y-58345506D01*
X104610498Y-58455820D01*
X104574188Y-58575518D01*
X104561928Y-58700000D01*
X89823029Y-58700000D01*
X89780537Y-58620506D01*
X89701185Y-58523815D01*
X89604494Y-58444463D01*
X89494180Y-58385498D01*
X89374482Y-58349188D01*
X89250000Y-58336928D01*
X87750000Y-58336928D01*
X87625518Y-58349188D01*
X87505820Y-58385498D01*
X87395506Y-58444463D01*
X87298815Y-58523815D01*
X87219463Y-58620506D01*
X87160498Y-58730820D01*
X87124188Y-58850518D01*
X87111928Y-58975000D01*
X82388072Y-58975000D01*
X82375812Y-58850518D01*
X82339502Y-58730820D01*
X82280537Y-58620506D01*
X82201185Y-58523815D01*
X82104494Y-58444463D01*
X81994180Y-58385498D01*
X81874482Y-58349188D01*
X81750000Y-58336928D01*
X80911730Y-58336928D01*
X77260000Y-54685199D01*
X77260000Y-54570512D01*
X78559783Y-54570512D01*
X78601213Y-54850130D01*
X78696397Y-55116292D01*
X78763329Y-55241514D01*
X79007298Y-55313097D01*
X79820395Y-54500000D01*
X79007298Y-53686903D01*
X78763329Y-53758486D01*
X78642429Y-54013996D01*
X78573700Y-54288184D01*
X78559783Y-54570512D01*
X77260000Y-54570512D01*
X77260000Y-53507298D01*
X79186903Y-53507298D01*
X80000000Y-54320395D01*
X80014143Y-54306253D01*
X80193748Y-54485858D01*
X80179605Y-54500000D01*
X80193748Y-54514143D01*
X80014143Y-54693748D01*
X80000000Y-54679605D01*
X79186903Y-55492702D01*
X79258486Y-55736671D01*
X79513996Y-55857571D01*
X79788184Y-55926300D01*
X80070512Y-55940217D01*
X80350130Y-55898787D01*
X80616292Y-55803603D01*
X80738309Y-55738384D01*
X80748815Y-55751185D01*
X80845506Y-55830537D01*
X80955820Y-55889502D01*
X81075518Y-55925812D01*
X81200000Y-55938072D01*
X82800000Y-55938072D01*
X82924482Y-55925812D01*
X83044180Y-55889502D01*
X83154494Y-55830537D01*
X83251185Y-55751185D01*
X83330537Y-55654494D01*
X83389502Y-55544180D01*
X83425812Y-55424482D01*
X83438072Y-55300000D01*
X83438072Y-54570512D01*
X86059783Y-54570512D01*
X86101213Y-54850130D01*
X86196397Y-55116292D01*
X86263329Y-55241514D01*
X86507298Y-55313097D01*
X87320395Y-54500000D01*
X86507298Y-53686903D01*
X86263329Y-53758486D01*
X86142429Y-54013996D01*
X86073700Y-54288184D01*
X86059783Y-54570512D01*
X83438072Y-54570512D01*
X83438072Y-53700000D01*
X83425812Y-53575518D01*
X83405118Y-53507298D01*
X86686903Y-53507298D01*
X87500000Y-54320395D01*
X87514143Y-54306253D01*
X87693748Y-54485858D01*
X87679605Y-54500000D01*
X87693748Y-54514143D01*
X87514143Y-54693748D01*
X87500000Y-54679605D01*
X86686903Y-55492702D01*
X86758486Y-55736671D01*
X87013996Y-55857571D01*
X87288184Y-55926300D01*
X87570512Y-55940217D01*
X87850130Y-55898787D01*
X88116292Y-55803603D01*
X88238309Y-55738384D01*
X88248815Y-55751185D01*
X88345506Y-55830537D01*
X88455820Y-55889502D01*
X88575518Y-55925812D01*
X88700000Y-55938072D01*
X90300000Y-55938072D01*
X90424482Y-55925812D01*
X90544180Y-55889502D01*
X90654494Y-55830537D01*
X90751185Y-55751185D01*
X90830537Y-55654494D01*
X90889502Y-55544180D01*
X90925812Y-55424482D01*
X90938072Y-55300000D01*
X90938072Y-53700000D01*
X90925812Y-53575518D01*
X90889502Y-53455820D01*
X90830537Y-53345506D01*
X90751185Y-53248815D01*
X90654494Y-53169463D01*
X90653847Y-53169117D01*
X95765000Y-53169117D01*
X95765000Y-53510883D01*
X95831675Y-53846081D01*
X95962463Y-54161831D01*
X96152337Y-54445998D01*
X96394002Y-54687663D01*
X96678169Y-54877537D01*
X96993919Y-55008325D01*
X97329117Y-55075000D01*
X97670883Y-55075000D01*
X98006081Y-55008325D01*
X98321831Y-54877537D01*
X98543505Y-54729419D01*
X104565000Y-54729419D01*
X104565000Y-55110581D01*
X104639361Y-55484419D01*
X104785225Y-55836566D01*
X104996987Y-56153491D01*
X105266509Y-56423013D01*
X105583434Y-56634775D01*
X105935581Y-56780639D01*
X106309419Y-56855000D01*
X106690581Y-56855000D01*
X107064419Y-56780639D01*
X107416566Y-56634775D01*
X107733491Y-56423013D01*
X108003013Y-56153491D01*
X108214775Y-55836566D01*
X108360639Y-55484419D01*
X108435000Y-55110581D01*
X108435000Y-54729419D01*
X108360639Y-54355581D01*
X108214775Y-54003434D01*
X108003013Y-53686509D01*
X107733491Y-53416987D01*
X107416566Y-53205225D01*
X107064419Y-53059361D01*
X106690581Y-52985000D01*
X106309419Y-52985000D01*
X105935581Y-53059361D01*
X105583434Y-53205225D01*
X105266509Y-53416987D01*
X104996987Y-53686509D01*
X104785225Y-54003434D01*
X104639361Y-54355581D01*
X104565000Y-54729419D01*
X98543505Y-54729419D01*
X98605998Y-54687663D01*
X98847663Y-54445998D01*
X99037537Y-54161831D01*
X99168325Y-53846081D01*
X99235000Y-53510883D01*
X99235000Y-53169117D01*
X99168325Y-52833919D01*
X99037537Y-52518169D01*
X98847663Y-52234002D01*
X98605998Y-51992337D01*
X98321831Y-51802463D01*
X98006081Y-51671675D01*
X97670883Y-51605000D01*
X97329117Y-51605000D01*
X96993919Y-51671675D01*
X96678169Y-51802463D01*
X96394002Y-51992337D01*
X96152337Y-52234002D01*
X95962463Y-52518169D01*
X95831675Y-52833919D01*
X95765000Y-53169117D01*
X90653847Y-53169117D01*
X90544180Y-53110498D01*
X90424482Y-53074188D01*
X90300000Y-53061928D01*
X88700000Y-53061928D01*
X88575518Y-53074188D01*
X88455820Y-53110498D01*
X88345506Y-53169463D01*
X88248815Y-53248815D01*
X88238193Y-53261758D01*
X87986004Y-53142429D01*
X87711816Y-53073700D01*
X87429488Y-53059783D01*
X87149870Y-53101213D01*
X86883708Y-53196397D01*
X86758486Y-53263329D01*
X86686903Y-53507298D01*
X83405118Y-53507298D01*
X83389502Y-53455820D01*
X83330537Y-53345506D01*
X83251185Y-53248815D01*
X83154494Y-53169463D01*
X83044180Y-53110498D01*
X82924482Y-53074188D01*
X82800000Y-53061928D01*
X81200000Y-53061928D01*
X81075518Y-53074188D01*
X80955820Y-53110498D01*
X80845506Y-53169463D01*
X80748815Y-53248815D01*
X80738193Y-53261758D01*
X80486004Y-53142429D01*
X80211816Y-53073700D01*
X79929488Y-53059783D01*
X79649870Y-53101213D01*
X79383708Y-53196397D01*
X79258486Y-53263329D01*
X79186903Y-53507298D01*
X77260000Y-53507298D01*
X77260000Y-50519268D01*
X82665000Y-50519268D01*
X82665000Y-50880732D01*
X82735518Y-51235250D01*
X82873844Y-51569199D01*
X83074662Y-51869744D01*
X83330256Y-52125338D01*
X83630801Y-52326156D01*
X83964750Y-52464482D01*
X84319268Y-52535000D01*
X84680732Y-52535000D01*
X85035250Y-52464482D01*
X85369199Y-52326156D01*
X85669744Y-52125338D01*
X85925338Y-51869744D01*
X86126156Y-51569199D01*
X86264482Y-51235250D01*
X86335000Y-50880732D01*
X86335000Y-50519268D01*
X86264482Y-50164750D01*
X86126156Y-49830801D01*
X85925338Y-49530256D01*
X85669744Y-49274662D01*
X85369199Y-49073844D01*
X85035250Y-48935518D01*
X84680732Y-48865000D01*
X84319268Y-48865000D01*
X83964750Y-48935518D01*
X83630801Y-49073844D01*
X83330256Y-49274662D01*
X83074662Y-49530256D01*
X82873844Y-49830801D01*
X82735518Y-50164750D01*
X82665000Y-50519268D01*
X77260000Y-50519268D01*
X77260000Y-46319268D01*
X87965000Y-46319268D01*
X87965000Y-46680732D01*
X88035518Y-47035250D01*
X88173844Y-47369199D01*
X88374662Y-47669744D01*
X88630256Y-47925338D01*
X88930801Y-48126156D01*
X89264750Y-48264482D01*
X89619268Y-48335000D01*
X89980732Y-48335000D01*
X90335250Y-48264482D01*
X90669199Y-48126156D01*
X90969744Y-47925338D01*
X91225338Y-47669744D01*
X91426156Y-47369199D01*
X91564482Y-47035250D01*
X91635000Y-46680732D01*
X91635000Y-46319268D01*
X100665000Y-46319268D01*
X100665000Y-46680732D01*
X100735518Y-47035250D01*
X100873844Y-47369199D01*
X101074662Y-47669744D01*
X101330256Y-47925338D01*
X101630801Y-48126156D01*
X101964750Y-48264482D01*
X102319268Y-48335000D01*
X102680732Y-48335000D01*
X103035250Y-48264482D01*
X103369199Y-48126156D01*
X103669744Y-47925338D01*
X103925338Y-47669744D01*
X104126156Y-47369199D01*
X104264482Y-47035250D01*
X104335000Y-46680732D01*
X104335000Y-46319268D01*
X104264482Y-45964750D01*
X104126156Y-45630801D01*
X103925338Y-45330256D01*
X103669744Y-45074662D01*
X103558005Y-45000000D01*
X106882815Y-45000000D01*
X106911487Y-45291111D01*
X106996401Y-45571034D01*
X107134294Y-45829014D01*
X107319866Y-46055134D01*
X107383337Y-46107223D01*
X107281614Y-46161595D01*
X107147038Y-46272038D01*
X107036595Y-46406614D01*
X106954528Y-46560150D01*
X106903992Y-46726746D01*
X106886928Y-46900000D01*
X106886928Y-48100000D01*
X106903992Y-48273254D01*
X106954528Y-48439850D01*
X107036595Y-48593386D01*
X107147038Y-48727962D01*
X107281614Y-48838405D01*
X107435150Y-48920472D01*
X107601746Y-48971008D01*
X107775000Y-48988072D01*
X109225000Y-48988072D01*
X109398254Y-48971008D01*
X109564850Y-48920472D01*
X109718386Y-48838405D01*
X109852962Y-48727962D01*
X109963405Y-48593386D01*
X110045472Y-48439850D01*
X110096008Y-48273254D01*
X110113072Y-48100000D01*
X110113072Y-46900000D01*
X110096008Y-46726746D01*
X110045472Y-46560150D01*
X109963405Y-46406614D01*
X109852962Y-46272038D01*
X109718386Y-46161595D01*
X109616663Y-46107223D01*
X109680134Y-46055134D01*
X109865706Y-45829014D01*
X110003599Y-45571034D01*
X110088513Y-45291111D01*
X110117185Y-45000000D01*
X110088513Y-44708889D01*
X110003599Y-44428966D01*
X109865706Y-44170986D01*
X109680134Y-43944866D01*
X109454014Y-43759294D01*
X109428278Y-43745538D01*
X109634429Y-43589049D01*
X109827496Y-43371193D01*
X109974352Y-43119858D01*
X110066476Y-42856890D01*
X109945155Y-42627000D01*
X108627000Y-42627000D01*
X108627000Y-42647000D01*
X108373000Y-42647000D01*
X108373000Y-42627000D01*
X107054845Y-42627000D01*
X106933524Y-42856890D01*
X107025648Y-43119858D01*
X107172504Y-43371193D01*
X107365571Y-43589049D01*
X107571722Y-43745538D01*
X107545986Y-43759294D01*
X107319866Y-43944866D01*
X107134294Y-44170986D01*
X106996401Y-44428966D01*
X106911487Y-44708889D01*
X106882815Y-45000000D01*
X103558005Y-45000000D01*
X103369199Y-44873844D01*
X103035250Y-44735518D01*
X102680732Y-44665000D01*
X102319268Y-44665000D01*
X101964750Y-44735518D01*
X101630801Y-44873844D01*
X101330256Y-45074662D01*
X101074662Y-45330256D01*
X100873844Y-45630801D01*
X100735518Y-45964750D01*
X100665000Y-46319268D01*
X91635000Y-46319268D01*
X91564482Y-45964750D01*
X91426156Y-45630801D01*
X91225338Y-45330256D01*
X90969744Y-45074662D01*
X90669199Y-44873844D01*
X90335250Y-44735518D01*
X89980732Y-44665000D01*
X89619268Y-44665000D01*
X89264750Y-44735518D01*
X88930801Y-44873844D01*
X88630256Y-45074662D01*
X88374662Y-45330256D01*
X88173844Y-45630801D01*
X88035518Y-45964750D01*
X87965000Y-46319268D01*
X77260000Y-46319268D01*
X77260000Y-45203714D01*
X77303937Y-45159777D01*
X77417205Y-44990259D01*
X77495226Y-44801901D01*
X77535000Y-44601942D01*
X77535000Y-44539805D01*
X77736005Y-44338800D01*
X77765002Y-44315003D01*
X77859975Y-44199278D01*
X77930547Y-44067249D01*
X77974004Y-43923988D01*
X77985001Y-43812335D01*
X77985001Y-43812326D01*
X77988677Y-43775003D01*
X77985001Y-43737680D01*
X77985001Y-41319268D01*
X87965000Y-41319268D01*
X87965000Y-41680732D01*
X88035518Y-42035250D01*
X88173844Y-42369199D01*
X88374662Y-42669744D01*
X88630256Y-42925338D01*
X88930801Y-43126156D01*
X89264750Y-43264482D01*
X89619268Y-43335000D01*
X89980732Y-43335000D01*
X90335250Y-43264482D01*
X90669199Y-43126156D01*
X90969744Y-42925338D01*
X91225338Y-42669744D01*
X91426156Y-42369199D01*
X91564482Y-42035250D01*
X91589036Y-41911805D01*
X100711805Y-41911805D01*
X100784379Y-42151066D01*
X100944361Y-42473257D01*
X101164125Y-42758046D01*
X101435226Y-42994489D01*
X101747246Y-43173500D01*
X102088194Y-43288199D01*
X102373000Y-43171854D01*
X102373000Y-41627000D01*
X102627000Y-41627000D01*
X102627000Y-43171854D01*
X102911806Y-43288199D01*
X103252754Y-43173500D01*
X103564774Y-42994489D01*
X103835875Y-42758046D01*
X104055639Y-42473257D01*
X104215621Y-42151066D01*
X104218034Y-42143110D01*
X106933524Y-42143110D01*
X107054845Y-42373000D01*
X108373000Y-42373000D01*
X108373000Y-41173835D01*
X108627000Y-41173835D01*
X108627000Y-42373000D01*
X109945155Y-42373000D01*
X110066476Y-42143110D01*
X109974352Y-41880142D01*
X109827496Y-41628807D01*
X109634429Y-41410951D01*
X109402570Y-41234947D01*
X109140830Y-41107558D01*
X108859267Y-41033680D01*
X108627000Y-41173835D01*
X108373000Y-41173835D01*
X108140733Y-41033680D01*
X107859170Y-41107558D01*
X107597430Y-41234947D01*
X107365571Y-41410951D01*
X107172504Y-41628807D01*
X107025648Y-41880142D01*
X106933524Y-42143110D01*
X104218034Y-42143110D01*
X104288195Y-41911805D01*
X104171432Y-41627000D01*
X102627000Y-41627000D01*
X102373000Y-41627000D01*
X100828568Y-41627000D01*
X100711805Y-41911805D01*
X91589036Y-41911805D01*
X91635000Y-41680732D01*
X91635000Y-41319268D01*
X91589037Y-41088195D01*
X100711805Y-41088195D01*
X100828568Y-41373000D01*
X102373000Y-41373000D01*
X102373000Y-39828146D01*
X102627000Y-39828146D01*
X102627000Y-41373000D01*
X104171432Y-41373000D01*
X104288195Y-41088195D01*
X104215621Y-40848934D01*
X104055639Y-40526743D01*
X103835875Y-40241954D01*
X103564774Y-40005511D01*
X103252754Y-39826500D01*
X102911806Y-39711801D01*
X102627000Y-39828146D01*
X102373000Y-39828146D01*
X102088194Y-39711801D01*
X101747246Y-39826500D01*
X101435226Y-40005511D01*
X101164125Y-40241954D01*
X100944361Y-40526743D01*
X100784379Y-40848934D01*
X100711805Y-41088195D01*
X91589037Y-41088195D01*
X91564482Y-40964750D01*
X91426156Y-40630801D01*
X91225338Y-40330256D01*
X90969744Y-40074662D01*
X90669199Y-39873844D01*
X90335250Y-39735518D01*
X89980732Y-39665000D01*
X89619268Y-39665000D01*
X89264750Y-39735518D01*
X88930801Y-39873844D01*
X88630256Y-40074662D01*
X88374662Y-40330256D01*
X88173844Y-40630801D01*
X88035518Y-40964750D01*
X87965000Y-41319268D01*
X77985001Y-41319268D01*
X77985001Y-39689321D01*
X77988677Y-39651998D01*
X77985001Y-39614675D01*
X77985001Y-39614666D01*
X77974004Y-39503013D01*
X77930547Y-39359752D01*
X77859975Y-39227723D01*
X77846812Y-39211684D01*
X77788800Y-39140995D01*
X77788796Y-39140991D01*
X77765002Y-39111998D01*
X77736009Y-39088204D01*
X76467073Y-37819268D01*
X82665000Y-37819268D01*
X82665000Y-38180732D01*
X82735518Y-38535250D01*
X82873844Y-38869199D01*
X83074662Y-39169744D01*
X83330256Y-39425338D01*
X83630801Y-39626156D01*
X83964750Y-39764482D01*
X84319268Y-39835000D01*
X84680732Y-39835000D01*
X85035250Y-39764482D01*
X85369199Y-39626156D01*
X85669744Y-39425338D01*
X85925338Y-39169744D01*
X86126156Y-38869199D01*
X86264482Y-38535250D01*
X86335000Y-38180732D01*
X86335000Y-37819268D01*
X86264482Y-37464750D01*
X86126156Y-37130801D01*
X85925338Y-36830256D01*
X85669744Y-36574662D01*
X85369199Y-36373844D01*
X85035250Y-36235518D01*
X84680732Y-36165000D01*
X84319268Y-36165000D01*
X83964750Y-36235518D01*
X83630801Y-36373844D01*
X83330256Y-36574662D01*
X83074662Y-36830256D01*
X82873844Y-37130801D01*
X82735518Y-37464750D01*
X82665000Y-37819268D01*
X76467073Y-37819268D01*
X75127002Y-36479198D01*
X75127002Y-36376252D01*
X75285750Y-36535000D01*
X75900000Y-36538072D01*
X76024482Y-36525812D01*
X76144180Y-36489502D01*
X76254494Y-36430537D01*
X76351185Y-36351185D01*
X76430537Y-36254494D01*
X76489502Y-36144180D01*
X76495056Y-36125873D01*
X76561495Y-36192312D01*
X76812905Y-36360299D01*
X77092257Y-36476011D01*
X77388816Y-36535000D01*
X77691184Y-36535000D01*
X77987743Y-36476011D01*
X78267095Y-36360299D01*
X78518505Y-36192312D01*
X78732312Y-35978505D01*
X78818176Y-35850000D01*
X87851928Y-35850000D01*
X87864188Y-35974482D01*
X87900498Y-36094180D01*
X87959463Y-36204494D01*
X88038815Y-36301185D01*
X88135506Y-36380537D01*
X88245820Y-36439502D01*
X88365518Y-36475812D01*
X88490000Y-36488072D01*
X89054250Y-36485000D01*
X89212998Y-36326252D01*
X89212998Y-36485000D01*
X89297513Y-36485000D01*
X89198102Y-36504774D01*
X89009744Y-36582795D01*
X88840226Y-36696063D01*
X88696063Y-36840226D01*
X88582795Y-37009744D01*
X88504774Y-37198102D01*
X88465000Y-37398061D01*
X88465000Y-37601939D01*
X88504774Y-37801898D01*
X88582795Y-37990256D01*
X88696063Y-38159774D01*
X88840226Y-38303937D01*
X89009744Y-38417205D01*
X89198102Y-38495226D01*
X89398061Y-38535000D01*
X89601939Y-38535000D01*
X89801898Y-38495226D01*
X89990256Y-38417205D01*
X90159774Y-38303937D01*
X90203711Y-38260000D01*
X96962678Y-38260000D01*
X97000000Y-38263676D01*
X97037322Y-38260000D01*
X97037333Y-38260000D01*
X97148986Y-38249003D01*
X97292247Y-38205546D01*
X97424276Y-38134974D01*
X97540001Y-38040001D01*
X97563804Y-38010997D01*
X99133592Y-36441210D01*
X99353740Y-36485000D01*
X99646260Y-36485000D01*
X99933158Y-36427932D01*
X100203411Y-36315990D01*
X100446632Y-36153475D01*
X100653475Y-35946632D01*
X100770000Y-35772240D01*
X100886525Y-35946632D01*
X101093368Y-36153475D01*
X101336589Y-36315990D01*
X101606842Y-36427932D01*
X101893740Y-36485000D01*
X102186260Y-36485000D01*
X102473158Y-36427932D01*
X102743411Y-36315990D01*
X102986632Y-36153475D01*
X103193475Y-35946632D01*
X103355990Y-35703411D01*
X103467932Y-35433158D01*
X103525000Y-35146260D01*
X103525000Y-34853740D01*
X103488757Y-34671531D01*
X106665000Y-34671531D01*
X106665000Y-35328469D01*
X106793162Y-35972784D01*
X107044561Y-36579715D01*
X107409536Y-37125939D01*
X107874061Y-37590464D01*
X108420285Y-37955439D01*
X109027216Y-38206838D01*
X109671531Y-38335000D01*
X110328469Y-38335000D01*
X110972784Y-38206838D01*
X111579715Y-37955439D01*
X112125939Y-37590464D01*
X112590464Y-37125939D01*
X112955439Y-36579715D01*
X113206838Y-35972784D01*
X113335000Y-35328469D01*
X113335000Y-34671531D01*
X113206838Y-34027216D01*
X112955439Y-33420285D01*
X112590464Y-32874061D01*
X112125939Y-32409536D01*
X111579715Y-32044561D01*
X110972784Y-31793162D01*
X110328469Y-31665000D01*
X109671531Y-31665000D01*
X109027216Y-31793162D01*
X108420285Y-32044561D01*
X107874061Y-32409536D01*
X107409536Y-32874061D01*
X107044561Y-33420285D01*
X106793162Y-34027216D01*
X106665000Y-34671531D01*
X103488757Y-34671531D01*
X103467932Y-34566842D01*
X103355990Y-34296589D01*
X103193475Y-34053368D01*
X102986632Y-33846525D01*
X102743411Y-33684010D01*
X102473158Y-33572068D01*
X102186260Y-33515000D01*
X101893740Y-33515000D01*
X101606842Y-33572068D01*
X101336589Y-33684010D01*
X101093368Y-33846525D01*
X100886525Y-34053368D01*
X100770000Y-34227760D01*
X100653475Y-34053368D01*
X100446632Y-33846525D01*
X100203411Y-33684010D01*
X99933158Y-33572068D01*
X99646260Y-33515000D01*
X99353740Y-33515000D01*
X99066842Y-33572068D01*
X98796589Y-33684010D01*
X98553368Y-33846525D01*
X98346525Y-34053368D01*
X98230000Y-34227760D01*
X98113475Y-34053368D01*
X97906632Y-33846525D01*
X97663411Y-33684010D01*
X97393158Y-33572068D01*
X97106260Y-33515000D01*
X96813740Y-33515000D01*
X96526842Y-33572068D01*
X96256589Y-33684010D01*
X96013368Y-33846525D01*
X95806525Y-34053368D01*
X95690000Y-34227760D01*
X95573475Y-34053368D01*
X95366632Y-33846525D01*
X95123411Y-33684010D01*
X94853158Y-33572068D01*
X94566260Y-33515000D01*
X94273740Y-33515000D01*
X93986842Y-33572068D01*
X93716589Y-33684010D01*
X93473368Y-33846525D01*
X93266525Y-34053368D01*
X93150000Y-34227760D01*
X93033475Y-34053368D01*
X92826632Y-33846525D01*
X92583411Y-33684010D01*
X92313158Y-33572068D01*
X92026260Y-33515000D01*
X91733740Y-33515000D01*
X91446842Y-33572068D01*
X91176589Y-33684010D01*
X90933368Y-33846525D01*
X90801513Y-33978380D01*
X90779502Y-33905820D01*
X90720537Y-33795506D01*
X90641185Y-33698815D01*
X90544494Y-33619463D01*
X90434180Y-33560498D01*
X90314482Y-33524188D01*
X90190000Y-33511928D01*
X89625750Y-33515000D01*
X89467000Y-33673750D01*
X89467000Y-34873000D01*
X89487000Y-34873000D01*
X89487000Y-35127000D01*
X89467000Y-35127000D01*
X89467000Y-35147000D01*
X89213000Y-35147000D01*
X89213000Y-35127000D01*
X88013750Y-35127000D01*
X87855000Y-35285750D01*
X87851928Y-35850000D01*
X78818176Y-35850000D01*
X78900299Y-35727095D01*
X79016011Y-35447743D01*
X79075000Y-35151184D01*
X79075000Y-34848816D01*
X79016011Y-34552257D01*
X78900299Y-34272905D01*
X78818177Y-34150000D01*
X87851928Y-34150000D01*
X87855000Y-34714250D01*
X88013750Y-34873000D01*
X89213000Y-34873000D01*
X89213000Y-33673750D01*
X89054250Y-33515000D01*
X88490000Y-33511928D01*
X88365518Y-33524188D01*
X88245820Y-33560498D01*
X88135506Y-33619463D01*
X88038815Y-33698815D01*
X87959463Y-33795506D01*
X87900498Y-33905820D01*
X87864188Y-34025518D01*
X87851928Y-34150000D01*
X78818177Y-34150000D01*
X78732312Y-34021495D01*
X78518505Y-33807688D01*
X78267095Y-33639701D01*
X77987743Y-33523989D01*
X77691184Y-33465000D01*
X77388816Y-33465000D01*
X77092257Y-33523989D01*
X76812905Y-33639701D01*
X76561495Y-33807688D01*
X76495056Y-33874127D01*
X76489502Y-33855820D01*
X76430537Y-33745506D01*
X76351185Y-33648815D01*
X76254494Y-33569463D01*
X76144180Y-33510498D01*
X76024482Y-33474188D01*
X75900000Y-33461928D01*
X75285750Y-33465000D01*
X75127000Y-33623750D01*
X75127000Y-34873000D01*
X75147000Y-34873000D01*
X75147000Y-35127000D01*
X75127000Y-35127000D01*
X75127000Y-35147000D01*
X74873000Y-35147000D01*
X74873000Y-35127000D01*
X74853000Y-35127000D01*
X74853000Y-34873000D01*
X74873000Y-34873000D01*
X74873000Y-33623750D01*
X74714250Y-33465000D01*
X74100000Y-33461928D01*
X73975518Y-33474188D01*
X73855820Y-33510498D01*
X73745506Y-33569463D01*
X73648815Y-33648815D01*
X73569463Y-33745506D01*
X73510498Y-33855820D01*
X73474188Y-33975518D01*
X73461928Y-34100000D01*
X73465000Y-34714250D01*
X73623748Y-34872998D01*
X73520801Y-34872998D01*
X72886806Y-34239003D01*
X72863003Y-34209999D01*
X72747278Y-34115026D01*
X72615249Y-34044454D01*
X72471988Y-34000997D01*
X72360335Y-33990000D01*
X72360324Y-33990000D01*
X72323002Y-33986324D01*
X72285680Y-33990000D01*
X70948178Y-33990000D01*
X70823475Y-33803368D01*
X70616632Y-33596525D01*
X70373411Y-33434010D01*
X70103158Y-33322068D01*
X69816260Y-33265000D01*
X69523740Y-33265000D01*
X69236842Y-33322068D01*
X68966589Y-33434010D01*
X68723368Y-33596525D01*
X68516525Y-33803368D01*
X68394805Y-33985534D01*
X68325178Y-33868645D01*
X68130269Y-33652412D01*
X67896920Y-33478359D01*
X67634099Y-33353175D01*
X67486890Y-33308524D01*
X67257000Y-33429845D01*
X67257000Y-34623000D01*
X67277000Y-34623000D01*
X67277000Y-34877000D01*
X67257000Y-34877000D01*
X67257000Y-36070155D01*
X67486890Y-36191476D01*
X67634099Y-36146825D01*
X67896920Y-36021641D01*
X68130269Y-35847588D01*
X68325178Y-35631355D01*
X68394805Y-35514466D01*
X68516525Y-35696632D01*
X68723368Y-35903475D01*
X68966589Y-36065990D01*
X69236842Y-36177932D01*
X69523740Y-36235000D01*
X69816260Y-36235000D01*
X70103158Y-36177932D01*
X70373411Y-36065990D01*
X70616632Y-35903475D01*
X70823475Y-35696632D01*
X70948178Y-35510000D01*
X72008201Y-35510000D01*
X74267244Y-37769045D01*
X74196063Y-37840226D01*
X74082795Y-38009744D01*
X74004774Y-38198102D01*
X73965000Y-38398061D01*
X73965000Y-38601939D01*
X74004774Y-38801898D01*
X74082795Y-38990256D01*
X74196063Y-39159774D01*
X74285119Y-39248830D01*
X74285118Y-44266247D01*
X74241181Y-44310184D01*
X74127913Y-44479702D01*
X74049892Y-44668060D01*
X74010118Y-44868019D01*
X74010118Y-45071897D01*
X74049892Y-45271856D01*
X74116061Y-45431601D01*
X72501600Y-45431601D01*
X72501600Y-45364661D01*
X72461826Y-45164702D01*
X72383805Y-44976344D01*
X72270537Y-44806826D01*
X72226600Y-44762889D01*
X72226600Y-39237111D01*
X72303937Y-39159774D01*
X72417205Y-38990256D01*
X72495226Y-38801898D01*
X72535000Y-38601939D01*
X72535000Y-38398061D01*
X72495226Y-38198102D01*
X72417205Y-38009744D01*
X72303937Y-37840226D01*
X72159774Y-37696063D01*
X71990256Y-37582795D01*
X71801898Y-37504774D01*
X71601939Y-37465000D01*
X71398061Y-37465000D01*
X71198102Y-37504774D01*
X71009744Y-37582795D01*
X70840226Y-37696063D01*
X70696063Y-37840226D01*
X70582795Y-38009744D01*
X70504774Y-38198102D01*
X70465000Y-38398061D01*
X70465000Y-38601939D01*
X70504774Y-38801898D01*
X70582795Y-38990256D01*
X70696063Y-39159774D01*
X70706601Y-39170312D01*
X70706600Y-44762889D01*
X70662663Y-44806826D01*
X70549395Y-44976344D01*
X70471374Y-45164702D01*
X70431600Y-45364661D01*
X70431600Y-45431601D01*
X69506403Y-45431601D01*
X68535000Y-44460199D01*
X68535000Y-44398061D01*
X68495226Y-44198102D01*
X68417205Y-44009744D01*
X68303937Y-43840226D01*
X68159774Y-43696063D01*
X67990256Y-43582795D01*
X67801898Y-43504774D01*
X67601939Y-43465000D01*
X67398061Y-43465000D01*
X67198102Y-43504774D01*
X67009744Y-43582795D01*
X66840226Y-43696063D01*
X66696063Y-43840226D01*
X66582795Y-44009744D01*
X66504774Y-44198102D01*
X66465000Y-44398061D01*
X60827243Y-44398061D01*
X60661033Y-44365000D01*
X60338967Y-44365000D01*
X60023088Y-44427832D01*
X59725537Y-44551082D01*
X59457748Y-44730013D01*
X59230013Y-44957748D01*
X59051082Y-45225537D01*
X58927832Y-45523088D01*
X58865000Y-45838967D01*
X55635000Y-45838967D01*
X55572168Y-45523088D01*
X55448918Y-45225537D01*
X55269987Y-44957748D01*
X55042252Y-44730013D01*
X54774463Y-44551082D01*
X54476912Y-44427832D01*
X54161033Y-44365000D01*
X53838967Y-44365000D01*
X53523088Y-44427832D01*
X53225537Y-44551082D01*
X52957748Y-44730013D01*
X52730013Y-44957748D01*
X52551082Y-45225537D01*
X52427832Y-45523088D01*
X52365000Y-45838967D01*
X50710000Y-45838967D01*
X50710000Y-41338967D01*
X52365000Y-41338967D01*
X52365000Y-41661033D01*
X52427832Y-41976912D01*
X52551082Y-42274463D01*
X52730013Y-42542252D01*
X52957748Y-42769987D01*
X53225537Y-42948918D01*
X53523088Y-43072168D01*
X53838967Y-43135000D01*
X54161033Y-43135000D01*
X54476912Y-43072168D01*
X54774463Y-42948918D01*
X55042252Y-42769987D01*
X55269987Y-42542252D01*
X55448918Y-42274463D01*
X55572168Y-41976912D01*
X55635000Y-41661033D01*
X55635000Y-41338967D01*
X58865000Y-41338967D01*
X58865000Y-41661033D01*
X58927832Y-41976912D01*
X59051082Y-42274463D01*
X59230013Y-42542252D01*
X59457748Y-42769987D01*
X59725537Y-42948918D01*
X60023088Y-43072168D01*
X60338967Y-43135000D01*
X60661033Y-43135000D01*
X60976912Y-43072168D01*
X61274463Y-42948918D01*
X61542252Y-42769987D01*
X61769987Y-42542252D01*
X61948918Y-42274463D01*
X62072168Y-41976912D01*
X62135000Y-41661033D01*
X62135000Y-41338967D01*
X62072168Y-41023088D01*
X61948918Y-40725537D01*
X61769987Y-40457748D01*
X61542252Y-40230013D01*
X61274463Y-40051082D01*
X60976912Y-39927832D01*
X60661033Y-39865000D01*
X60338967Y-39865000D01*
X60023088Y-39927832D01*
X59725537Y-40051082D01*
X59457748Y-40230013D01*
X59230013Y-40457748D01*
X59051082Y-40725537D01*
X58927832Y-41023088D01*
X58865000Y-41338967D01*
X55635000Y-41338967D01*
X55572168Y-41023088D01*
X55448918Y-40725537D01*
X55269987Y-40457748D01*
X55042252Y-40230013D01*
X54774463Y-40051082D01*
X54476912Y-39927832D01*
X54161033Y-39865000D01*
X53838967Y-39865000D01*
X53523088Y-39927832D01*
X53225537Y-40051082D01*
X52957748Y-40230013D01*
X52730013Y-40457748D01*
X52551082Y-40725537D01*
X52427832Y-41023088D01*
X52365000Y-41338967D01*
X50710000Y-41338967D01*
X50710000Y-34671531D01*
X51665000Y-34671531D01*
X51665000Y-35328469D01*
X51793162Y-35972784D01*
X52044561Y-36579715D01*
X52409536Y-37125939D01*
X52874061Y-37590464D01*
X53420285Y-37955439D01*
X54027216Y-38206838D01*
X54671531Y-38335000D01*
X55328469Y-38335000D01*
X55972784Y-38206838D01*
X56579715Y-37955439D01*
X57125939Y-37590464D01*
X57590464Y-37125939D01*
X57955439Y-36579715D01*
X58206838Y-35972784D01*
X58335000Y-35328469D01*
X58335000Y-34671531D01*
X58206838Y-34027216D01*
X58154144Y-33900000D01*
X60561928Y-33900000D01*
X60561928Y-35600000D01*
X60574188Y-35724482D01*
X60610498Y-35844180D01*
X60669463Y-35954494D01*
X60748815Y-36051185D01*
X60845506Y-36130537D01*
X60955820Y-36189502D01*
X61075518Y-36225812D01*
X61200000Y-36238072D01*
X62900000Y-36238072D01*
X63024482Y-36225812D01*
X63144180Y-36189502D01*
X63254494Y-36130537D01*
X63351185Y-36051185D01*
X63430537Y-35954494D01*
X63489502Y-35844180D01*
X63511513Y-35771620D01*
X63643368Y-35903475D01*
X63886589Y-36065990D01*
X64156842Y-36177932D01*
X64443740Y-36235000D01*
X64736260Y-36235000D01*
X65023158Y-36177932D01*
X65293411Y-36065990D01*
X65536632Y-35903475D01*
X65743475Y-35696632D01*
X65865195Y-35514466D01*
X65934822Y-35631355D01*
X66129731Y-35847588D01*
X66363080Y-36021641D01*
X66625901Y-36146825D01*
X66773110Y-36191476D01*
X67003000Y-36070155D01*
X67003000Y-34877000D01*
X66983000Y-34877000D01*
X66983000Y-34623000D01*
X67003000Y-34623000D01*
X67003000Y-33429845D01*
X66773110Y-33308524D01*
X66625901Y-33353175D01*
X66363080Y-33478359D01*
X66129731Y-33652412D01*
X65934822Y-33868645D01*
X65865195Y-33985534D01*
X65743475Y-33803368D01*
X65536632Y-33596525D01*
X65293411Y-33434010D01*
X65023158Y-33322068D01*
X64736260Y-33265000D01*
X64443740Y-33265000D01*
X64156842Y-33322068D01*
X63886589Y-33434010D01*
X63643368Y-33596525D01*
X63511513Y-33728380D01*
X63489502Y-33655820D01*
X63430537Y-33545506D01*
X63351185Y-33448815D01*
X63254494Y-33369463D01*
X63144180Y-33310498D01*
X63024482Y-33274188D01*
X62900000Y-33261928D01*
X61200000Y-33261928D01*
X61075518Y-33274188D01*
X60955820Y-33310498D01*
X60845506Y-33369463D01*
X60748815Y-33448815D01*
X60669463Y-33545506D01*
X60610498Y-33655820D01*
X60574188Y-33775518D01*
X60561928Y-33900000D01*
X58154144Y-33900000D01*
X57955439Y-33420285D01*
X57590464Y-32874061D01*
X57125939Y-32409536D01*
X56579715Y-32044561D01*
X55972784Y-31793162D01*
X55328469Y-31665000D01*
X54671531Y-31665000D01*
X54027216Y-31793162D01*
X53420285Y-32044561D01*
X52874061Y-32409536D01*
X52409536Y-32874061D01*
X52044561Y-33420285D01*
X51793162Y-34027216D01*
X51665000Y-34671531D01*
X50710000Y-34671531D01*
X50710000Y-30710000D01*
X114290000Y-30710000D01*
X114290001Y-99290000D01*
%TA.AperFunction,Conductor*%
D35*
G36*
X114290001Y-99290000D02*
G01*
X50710000Y-99290000D01*
X50710000Y-94671531D01*
X51665000Y-94671531D01*
X51665000Y-95328469D01*
X51793162Y-95972784D01*
X52044561Y-96579715D01*
X52409536Y-97125939D01*
X52874061Y-97590464D01*
X53420285Y-97955439D01*
X54027216Y-98206838D01*
X54671531Y-98335000D01*
X55328469Y-98335000D01*
X55972784Y-98206838D01*
X56579715Y-97955439D01*
X57125939Y-97590464D01*
X57590464Y-97125939D01*
X57955439Y-96579715D01*
X58063319Y-96319268D01*
X62155000Y-96319268D01*
X62155000Y-96680732D01*
X62225518Y-97035250D01*
X62363844Y-97369199D01*
X62564662Y-97669744D01*
X62820256Y-97925338D01*
X63120801Y-98126156D01*
X63454750Y-98264482D01*
X63809268Y-98335000D01*
X64170732Y-98335000D01*
X64525250Y-98264482D01*
X64859199Y-98126156D01*
X65159744Y-97925338D01*
X65415338Y-97669744D01*
X65616156Y-97369199D01*
X65754482Y-97035250D01*
X65825000Y-96680732D01*
X65825000Y-96319268D01*
X74855000Y-96319268D01*
X74855000Y-96680732D01*
X74925518Y-97035250D01*
X75063844Y-97369199D01*
X75264662Y-97669744D01*
X75520256Y-97925338D01*
X75820801Y-98126156D01*
X76154750Y-98264482D01*
X76509268Y-98335000D01*
X76870732Y-98335000D01*
X77225250Y-98264482D01*
X77559199Y-98126156D01*
X77859744Y-97925338D01*
X78115338Y-97669744D01*
X78316156Y-97369199D01*
X78454482Y-97035250D01*
X78525000Y-96680732D01*
X78525000Y-96319268D01*
X78466467Y-96025000D01*
X81111928Y-96025000D01*
X81124188Y-96149482D01*
X81160498Y-96269180D01*
X81219463Y-96379494D01*
X81298815Y-96476185D01*
X81395506Y-96555537D01*
X81505820Y-96614502D01*
X81625518Y-96650812D01*
X81750000Y-96663072D01*
X82214250Y-96660000D01*
X82373000Y-96501250D01*
X82373000Y-95627000D01*
X82627000Y-95627000D01*
X82627000Y-96501250D01*
X82785750Y-96660000D01*
X83250000Y-96663072D01*
X83374482Y-96650812D01*
X83494180Y-96614502D01*
X83604494Y-96555537D01*
X83701185Y-96476185D01*
X83780537Y-96379494D01*
X83839502Y-96269180D01*
X83875812Y-96149482D01*
X83888072Y-96025000D01*
X83885000Y-95785750D01*
X83726250Y-95627000D01*
X82627000Y-95627000D01*
X82373000Y-95627000D01*
X81273750Y-95627000D01*
X81115000Y-95785750D01*
X81111928Y-96025000D01*
X78466467Y-96025000D01*
X78454482Y-95964750D01*
X78316156Y-95630801D01*
X78115338Y-95330256D01*
X77859744Y-95074662D01*
X77559199Y-94873844D01*
X77225250Y-94735518D01*
X76870732Y-94665000D01*
X76509268Y-94665000D01*
X76154750Y-94735518D01*
X75820801Y-94873844D01*
X75520256Y-95074662D01*
X75264662Y-95330256D01*
X75063844Y-95630801D01*
X74925518Y-95964750D01*
X74855000Y-96319268D01*
X65825000Y-96319268D01*
X65754482Y-95964750D01*
X65616156Y-95630801D01*
X65415338Y-95330256D01*
X65159744Y-95074662D01*
X64859199Y-94873844D01*
X64525250Y-94735518D01*
X64170732Y-94665000D01*
X63809268Y-94665000D01*
X63454750Y-94735518D01*
X63120801Y-94873844D01*
X62820256Y-95074662D01*
X62564662Y-95330256D01*
X62363844Y-95630801D01*
X62225518Y-95964750D01*
X62155000Y-96319268D01*
X58063319Y-96319268D01*
X58206838Y-95972784D01*
X58335000Y-95328469D01*
X58335000Y-94671531D01*
X58206838Y-94027216D01*
X57955439Y-93420285D01*
X57590464Y-92874061D01*
X57125939Y-92409536D01*
X56579715Y-92044561D01*
X55972784Y-91793162D01*
X55328469Y-91665000D01*
X54671531Y-91665000D01*
X54027216Y-91793162D01*
X53420285Y-92044561D01*
X52874061Y-92409536D01*
X52409536Y-92874061D01*
X52044561Y-93420285D01*
X51793162Y-94027216D01*
X51665000Y-94671531D01*
X50710000Y-94671531D01*
X50710000Y-91349268D01*
X62155000Y-91349268D01*
X62155000Y-91710732D01*
X62225518Y-92065250D01*
X62363844Y-92399199D01*
X62564662Y-92699744D01*
X62820256Y-92955338D01*
X63120801Y-93156156D01*
X63454750Y-93294482D01*
X63809268Y-93365000D01*
X64170732Y-93365000D01*
X64525250Y-93294482D01*
X64859199Y-93156156D01*
X65159744Y-92955338D01*
X65415338Y-92699744D01*
X65616156Y-92399199D01*
X65754482Y-92065250D01*
X65779036Y-91941805D01*
X74901805Y-91941805D01*
X74974379Y-92181066D01*
X75134361Y-92503257D01*
X75354125Y-92788046D01*
X75625226Y-93024489D01*
X75937246Y-93203500D01*
X76278194Y-93318199D01*
X76563000Y-93201854D01*
X76563000Y-91657000D01*
X76817000Y-91657000D01*
X76817000Y-93201854D01*
X77101806Y-93318199D01*
X77442754Y-93203500D01*
X77754774Y-93024489D01*
X77828715Y-92960000D01*
X81109388Y-92960000D01*
X81131785Y-93187400D01*
X81198115Y-93406060D01*
X81299105Y-93595000D01*
X81198115Y-93783940D01*
X81131785Y-94002600D01*
X81109388Y-94230000D01*
X81131785Y-94457400D01*
X81195093Y-94666098D01*
X81160498Y-94730820D01*
X81124188Y-94850518D01*
X81111928Y-94975000D01*
X81115000Y-95214250D01*
X81273750Y-95373000D01*
X82046891Y-95373000D01*
X82047600Y-95373215D01*
X82218021Y-95390000D01*
X82781979Y-95390000D01*
X82952400Y-95373215D01*
X82953109Y-95373000D01*
X83726250Y-95373000D01*
X83885000Y-95214250D01*
X83888072Y-94975000D01*
X83875812Y-94850518D01*
X83845321Y-94750000D01*
X98336928Y-94750000D01*
X98349188Y-94874482D01*
X98385498Y-94994180D01*
X98444463Y-95104494D01*
X98523815Y-95201185D01*
X98620506Y-95280537D01*
X98730820Y-95339502D01*
X98850518Y-95375812D01*
X98975000Y-95388072D01*
X99214250Y-95385000D01*
X99373000Y-95226250D01*
X99373000Y-94127000D01*
X98498750Y-94127000D01*
X98340000Y-94285750D01*
X98336928Y-94750000D01*
X83845321Y-94750000D01*
X83839502Y-94730820D01*
X83804907Y-94666098D01*
X83868215Y-94457400D01*
X83890612Y-94230000D01*
X83868215Y-94002600D01*
X83801885Y-93783940D01*
X83700895Y-93595000D01*
X83801885Y-93406060D01*
X83868215Y-93187400D01*
X83890612Y-92960000D01*
X83868215Y-92732600D01*
X83801885Y-92513940D01*
X83694171Y-92312421D01*
X83549212Y-92135788D01*
X83372579Y-91990829D01*
X83171060Y-91883115D01*
X82952400Y-91816785D01*
X82781979Y-91800000D01*
X82218021Y-91800000D01*
X82047600Y-91816785D01*
X81828940Y-91883115D01*
X81627421Y-91990829D01*
X81450788Y-92135788D01*
X81305829Y-92312421D01*
X81198115Y-92513940D01*
X81131785Y-92732600D01*
X81109388Y-92960000D01*
X77828715Y-92960000D01*
X78025875Y-92788046D01*
X78245639Y-92503257D01*
X78405621Y-92181066D01*
X78478195Y-91941805D01*
X78361432Y-91657000D01*
X76817000Y-91657000D01*
X76563000Y-91657000D01*
X75018568Y-91657000D01*
X74901805Y-91941805D01*
X65779036Y-91941805D01*
X65825000Y-91710732D01*
X65825000Y-91349268D01*
X65779037Y-91118195D01*
X74901805Y-91118195D01*
X75018568Y-91403000D01*
X76563000Y-91403000D01*
X76563000Y-89858146D01*
X76817000Y-89858146D01*
X76817000Y-91403000D01*
X78361432Y-91403000D01*
X78395760Y-91319268D01*
X89165000Y-91319268D01*
X89165000Y-91680732D01*
X89235518Y-92035250D01*
X89373844Y-92369199D01*
X89574662Y-92669744D01*
X89830256Y-92925338D01*
X90130801Y-93126156D01*
X90464750Y-93264482D01*
X90819268Y-93335000D01*
X91180732Y-93335000D01*
X91535250Y-93264482D01*
X91570212Y-93250000D01*
X98336928Y-93250000D01*
X98340000Y-93714250D01*
X98498750Y-93873000D01*
X99373000Y-93873000D01*
X99373000Y-93718022D01*
X99610000Y-93718022D01*
X99610000Y-94281979D01*
X99626785Y-94452400D01*
X99627000Y-94453109D01*
X99627000Y-95226250D01*
X99785750Y-95385000D01*
X100025000Y-95388072D01*
X100149482Y-95375812D01*
X100269180Y-95339502D01*
X100333902Y-95304907D01*
X100542601Y-95368215D01*
X100770000Y-95390612D01*
X100997400Y-95368215D01*
X101216060Y-95301885D01*
X101405001Y-95200894D01*
X101593941Y-95301885D01*
X101812601Y-95368215D01*
X102040000Y-95390612D01*
X102267400Y-95368215D01*
X102486060Y-95301885D01*
X102687579Y-95194171D01*
X102864212Y-95049212D01*
X103009171Y-94872579D01*
X103116632Y-94671531D01*
X106665000Y-94671531D01*
X106665000Y-95328469D01*
X106793162Y-95972784D01*
X107044561Y-96579715D01*
X107409536Y-97125939D01*
X107874061Y-97590464D01*
X108420285Y-97955439D01*
X109027216Y-98206838D01*
X109671531Y-98335000D01*
X110328469Y-98335000D01*
X110972784Y-98206838D01*
X111579715Y-97955439D01*
X112125939Y-97590464D01*
X112590464Y-97125939D01*
X112955439Y-96579715D01*
X113206838Y-95972784D01*
X113335000Y-95328469D01*
X113335000Y-94671531D01*
X113206838Y-94027216D01*
X112955439Y-93420285D01*
X112590464Y-92874061D01*
X112125939Y-92409536D01*
X111579715Y-92044561D01*
X110972784Y-91793162D01*
X110328469Y-91665000D01*
X109671531Y-91665000D01*
X109027216Y-91793162D01*
X108420285Y-92044561D01*
X107874061Y-92409536D01*
X107409536Y-92874061D01*
X107044561Y-93420285D01*
X106793162Y-94027216D01*
X106665000Y-94671531D01*
X103116632Y-94671531D01*
X103116885Y-94671059D01*
X103183215Y-94452399D01*
X103200000Y-94281978D01*
X103200000Y-93718021D01*
X103183215Y-93547600D01*
X103116885Y-93328940D01*
X103009171Y-93127421D01*
X102864212Y-92950788D01*
X102687578Y-92805829D01*
X102486059Y-92698115D01*
X102267399Y-92631785D01*
X102040000Y-92609388D01*
X101812600Y-92631785D01*
X101593940Y-92698115D01*
X101404999Y-92799106D01*
X101216059Y-92698115D01*
X100997399Y-92631785D01*
X100770000Y-92609388D01*
X100542600Y-92631785D01*
X100333902Y-92695093D01*
X100269180Y-92660498D01*
X100149482Y-92624188D01*
X100025000Y-92611928D01*
X99785750Y-92615000D01*
X99627000Y-92773750D01*
X99627000Y-93546892D01*
X99626785Y-93547601D01*
X99610000Y-93718022D01*
X99373000Y-93718022D01*
X99373000Y-92773750D01*
X99214250Y-92615000D01*
X98975000Y-92611928D01*
X98850518Y-92624188D01*
X98730820Y-92660498D01*
X98620506Y-92719463D01*
X98523815Y-92798815D01*
X98444463Y-92895506D01*
X98385498Y-93005820D01*
X98349188Y-93125518D01*
X98336928Y-93250000D01*
X91570212Y-93250000D01*
X91869199Y-93126156D01*
X92169744Y-92925338D01*
X92425338Y-92669744D01*
X92626156Y-92369199D01*
X92764482Y-92035250D01*
X92835000Y-91680732D01*
X92835000Y-91319268D01*
X92764482Y-90964750D01*
X92626156Y-90630801D01*
X92425338Y-90330256D01*
X92169744Y-90074662D01*
X91869199Y-89873844D01*
X91535250Y-89735518D01*
X91180732Y-89665000D01*
X90819268Y-89665000D01*
X90464750Y-89735518D01*
X90130801Y-89873844D01*
X89830256Y-90074662D01*
X89574662Y-90330256D01*
X89373844Y-90630801D01*
X89235518Y-90964750D01*
X89165000Y-91319268D01*
X78395760Y-91319268D01*
X78478195Y-91118195D01*
X78405621Y-90878934D01*
X78245639Y-90556743D01*
X78025875Y-90271954D01*
X77754774Y-90035511D01*
X77442754Y-89856500D01*
X77101806Y-89741801D01*
X76817000Y-89858146D01*
X76563000Y-89858146D01*
X76278194Y-89741801D01*
X75937246Y-89856500D01*
X75625226Y-90035511D01*
X75354125Y-90271954D01*
X75134361Y-90556743D01*
X74974379Y-90878934D01*
X74901805Y-91118195D01*
X65779037Y-91118195D01*
X65754482Y-90994750D01*
X65616156Y-90660801D01*
X65415338Y-90360256D01*
X65159744Y-90104662D01*
X64859199Y-89903844D01*
X64525250Y-89765518D01*
X64170732Y-89695000D01*
X63809268Y-89695000D01*
X63454750Y-89765518D01*
X63120801Y-89903844D01*
X62820256Y-90104662D01*
X62564662Y-90360256D01*
X62363844Y-90660801D01*
X62225518Y-90994750D01*
X62155000Y-91349268D01*
X50710000Y-91349268D01*
X50710000Y-86819268D01*
X62665000Y-86819268D01*
X62665000Y-87180732D01*
X62735518Y-87535250D01*
X62873844Y-87869199D01*
X63074662Y-88169744D01*
X63330256Y-88425338D01*
X63630801Y-88626156D01*
X63964750Y-88764482D01*
X64319268Y-88835000D01*
X64680732Y-88835000D01*
X65035250Y-88764482D01*
X65369199Y-88626156D01*
X65669744Y-88425338D01*
X65925338Y-88169744D01*
X66126156Y-87869199D01*
X66264482Y-87535250D01*
X66335000Y-87180732D01*
X66335000Y-87049268D01*
X73725000Y-87049268D01*
X73725000Y-87410732D01*
X73795518Y-87765250D01*
X73933844Y-88099199D01*
X74134662Y-88399744D01*
X74390256Y-88655338D01*
X74690801Y-88856156D01*
X75024750Y-88994482D01*
X75379268Y-89065000D01*
X75740732Y-89065000D01*
X76095250Y-88994482D01*
X76429199Y-88856156D01*
X76729744Y-88655338D01*
X76985338Y-88399744D01*
X77186156Y-88099199D01*
X77324482Y-87765250D01*
X77395000Y-87410732D01*
X77395000Y-87049268D01*
X78165000Y-87049268D01*
X78165000Y-87410732D01*
X78235518Y-87765250D01*
X78373844Y-88099199D01*
X78574662Y-88399744D01*
X78830256Y-88655338D01*
X79130801Y-88856156D01*
X79464750Y-88994482D01*
X79819268Y-89065000D01*
X80180732Y-89065000D01*
X80535250Y-88994482D01*
X80869199Y-88856156D01*
X81169744Y-88655338D01*
X81425338Y-88399744D01*
X81626156Y-88099199D01*
X81764482Y-87765250D01*
X81835000Y-87410732D01*
X81835000Y-87049268D01*
X81764482Y-86694750D01*
X81626156Y-86360801D01*
X81425338Y-86060256D01*
X81169744Y-85804662D01*
X80869199Y-85603844D01*
X80535250Y-85465518D01*
X80180732Y-85395000D01*
X79819268Y-85395000D01*
X79464750Y-85465518D01*
X79130801Y-85603844D01*
X78830256Y-85804662D01*
X78574662Y-86060256D01*
X78373844Y-86360801D01*
X78235518Y-86694750D01*
X78165000Y-87049268D01*
X77395000Y-87049268D01*
X77324482Y-86694750D01*
X77186156Y-86360801D01*
X76985338Y-86060256D01*
X76729744Y-85804662D01*
X76429199Y-85603844D01*
X76095250Y-85465518D01*
X75740732Y-85395000D01*
X75379268Y-85395000D01*
X75024750Y-85465518D01*
X74690801Y-85603844D01*
X74390256Y-85804662D01*
X74134662Y-86060256D01*
X73933844Y-86360801D01*
X73795518Y-86694750D01*
X73725000Y-87049268D01*
X66335000Y-87049268D01*
X66335000Y-86819268D01*
X66264482Y-86464750D01*
X66126156Y-86130801D01*
X65925338Y-85830256D01*
X65669744Y-85574662D01*
X65369199Y-85373844D01*
X65035250Y-85235518D01*
X64680732Y-85165000D01*
X64319268Y-85165000D01*
X63964750Y-85235518D01*
X63630801Y-85373844D01*
X63330256Y-85574662D01*
X63074662Y-85830256D01*
X62873844Y-86130801D01*
X62735518Y-86464750D01*
X62665000Y-86819268D01*
X50710000Y-86819268D01*
X50710000Y-79000000D01*
X54882815Y-79000000D01*
X54911487Y-79291111D01*
X54996401Y-79571034D01*
X55134294Y-79829014D01*
X55319866Y-80055134D01*
X55545986Y-80240706D01*
X55563374Y-80250000D01*
X55545986Y-80259294D01*
X55319866Y-80444866D01*
X55134294Y-80670986D01*
X54996401Y-80928966D01*
X54911487Y-81208889D01*
X54882815Y-81500000D01*
X54911487Y-81791111D01*
X54996401Y-82071034D01*
X55134294Y-82329014D01*
X55319866Y-82555134D01*
X55545986Y-82740706D01*
X55563374Y-82750000D01*
X55545986Y-82759294D01*
X55319866Y-82944866D01*
X55134294Y-83170986D01*
X54996401Y-83428966D01*
X54911487Y-83708889D01*
X54882815Y-84000000D01*
X54911487Y-84291111D01*
X54996401Y-84571034D01*
X55134294Y-84829014D01*
X55319866Y-85055134D01*
X55545986Y-85240706D01*
X55803966Y-85378599D01*
X56083889Y-85463513D01*
X56302050Y-85485000D01*
X56697950Y-85485000D01*
X56916111Y-85463513D01*
X57196034Y-85378599D01*
X57454014Y-85240706D01*
X57680134Y-85055134D01*
X57865706Y-84829014D01*
X58003599Y-84571034D01*
X58088513Y-84291111D01*
X58117185Y-84000000D01*
X58088513Y-83708889D01*
X58003599Y-83428966D01*
X57865706Y-83170986D01*
X57680134Y-82944866D01*
X57454014Y-82759294D01*
X57436626Y-82750000D01*
X57454014Y-82740706D01*
X57680134Y-82555134D01*
X57865706Y-82329014D01*
X58003599Y-82071034D01*
X58088513Y-81791111D01*
X58117185Y-81500000D01*
X58088513Y-81208889D01*
X58003599Y-80928966D01*
X57865706Y-80670986D01*
X57725382Y-80500000D01*
X68457773Y-80500000D01*
X68486614Y-80792826D01*
X68572028Y-81074399D01*
X68710733Y-81333898D01*
X68897399Y-81561351D01*
X68999326Y-81645000D01*
X68897399Y-81728649D01*
X68710733Y-81956102D01*
X68572028Y-82215601D01*
X68486614Y-82497174D01*
X68457773Y-82790000D01*
X68486614Y-83082826D01*
X68572028Y-83364399D01*
X68710733Y-83623898D01*
X68897399Y-83851351D01*
X69124852Y-84038017D01*
X69384351Y-84176722D01*
X69665924Y-84262136D01*
X69885373Y-84283750D01*
X70114627Y-84283750D01*
X70334076Y-84262136D01*
X70615649Y-84176722D01*
X70875148Y-84038017D01*
X71102601Y-83851351D01*
X71289267Y-83623898D01*
X71427972Y-83364399D01*
X71513386Y-83082826D01*
X71542227Y-82790000D01*
X71513386Y-82497174D01*
X71427972Y-82215601D01*
X71289267Y-81956102D01*
X71102601Y-81728649D01*
X71000674Y-81645000D01*
X71102601Y-81561351D01*
X71289267Y-81333898D01*
X71427972Y-81074399D01*
X71513386Y-80792826D01*
X71542227Y-80500000D01*
X71513386Y-80207174D01*
X71427972Y-79925601D01*
X71289267Y-79666102D01*
X71240550Y-79606740D01*
X71254494Y-79599287D01*
X71351185Y-79519935D01*
X71430537Y-79423244D01*
X71489502Y-79312930D01*
X71525812Y-79193232D01*
X71538072Y-79068750D01*
X71535000Y-78495750D01*
X71376250Y-78337000D01*
X70127000Y-78337000D01*
X70127000Y-78357000D01*
X69873000Y-78357000D01*
X69873000Y-78337000D01*
X68623750Y-78337000D01*
X68465000Y-78495750D01*
X68461928Y-79068750D01*
X68474188Y-79193232D01*
X68510498Y-79312930D01*
X68569463Y-79423244D01*
X68648815Y-79519935D01*
X68745506Y-79599287D01*
X68759450Y-79606740D01*
X68710733Y-79666102D01*
X68572028Y-79925601D01*
X68486614Y-80207174D01*
X68457773Y-80500000D01*
X57725382Y-80500000D01*
X57680134Y-80444866D01*
X57454014Y-80259294D01*
X57436626Y-80250000D01*
X57454014Y-80240706D01*
X57680134Y-80055134D01*
X57865706Y-79829014D01*
X58003599Y-79571034D01*
X58088513Y-79291111D01*
X58117185Y-79000000D01*
X58088513Y-78708889D01*
X58003599Y-78428966D01*
X57865706Y-78170986D01*
X57684392Y-77950055D01*
X57719180Y-77939502D01*
X57829494Y-77880537D01*
X57926185Y-77801185D01*
X58005537Y-77704494D01*
X58064502Y-77594180D01*
X58100812Y-77474482D01*
X58112948Y-77351250D01*
X68461928Y-77351250D01*
X68465000Y-77924250D01*
X68623750Y-78083000D01*
X69873000Y-78083000D01*
X69873000Y-76875000D01*
X70127000Y-76875000D01*
X70127000Y-78083000D01*
X71376250Y-78083000D01*
X71535000Y-77924250D01*
X71538072Y-77351250D01*
X71525812Y-77226768D01*
X71489502Y-77107070D01*
X71430537Y-76996756D01*
X71351185Y-76900065D01*
X71254494Y-76820713D01*
X71144180Y-76761748D01*
X71024482Y-76725438D01*
X70900000Y-76713178D01*
X70285750Y-76716250D01*
X70127000Y-76875000D01*
X69873000Y-76875000D01*
X69714250Y-76716250D01*
X69100000Y-76713178D01*
X68975518Y-76725438D01*
X68855820Y-76761748D01*
X68745506Y-76820713D01*
X68648815Y-76900065D01*
X68569463Y-76996756D01*
X68510498Y-77107070D01*
X68474188Y-77226768D01*
X68461928Y-77351250D01*
X58112948Y-77351250D01*
X58113072Y-77350000D01*
X58110000Y-76785750D01*
X57951250Y-76627000D01*
X56627000Y-76627000D01*
X56627000Y-76647000D01*
X56373000Y-76647000D01*
X56373000Y-76627000D01*
X55048750Y-76627000D01*
X54890000Y-76785750D01*
X54886928Y-77350000D01*
X54899188Y-77474482D01*
X54935498Y-77594180D01*
X54994463Y-77704494D01*
X55073815Y-77801185D01*
X55170506Y-77880537D01*
X55280820Y-77939502D01*
X55315608Y-77950055D01*
X55134294Y-78170986D01*
X54996401Y-78428966D01*
X54911487Y-78708889D01*
X54882815Y-79000000D01*
X50710000Y-79000000D01*
X50710000Y-74778363D01*
X53265000Y-74778363D01*
X53265000Y-75021637D01*
X53312460Y-75260236D01*
X53405557Y-75484992D01*
X53540713Y-75687267D01*
X53712733Y-75859287D01*
X53915008Y-75994443D01*
X54139764Y-76087540D01*
X54378363Y-76135000D01*
X54621637Y-76135000D01*
X54860236Y-76087540D01*
X54889245Y-76075524D01*
X54890000Y-76214250D01*
X55048750Y-76373000D01*
X56373000Y-76373000D01*
X56373000Y-75173750D01*
X56627000Y-75173750D01*
X56627000Y-76373000D01*
X57951250Y-76373000D01*
X58110000Y-76214250D01*
X58113072Y-75650000D01*
X58100812Y-75525518D01*
X58093072Y-75500000D01*
X62661928Y-75500000D01*
X62674188Y-75624482D01*
X62710498Y-75744180D01*
X62769463Y-75854494D01*
X62848815Y-75951185D01*
X62945506Y-76030537D01*
X63055820Y-76089502D01*
X63175518Y-76125812D01*
X63300000Y-76138072D01*
X64214250Y-76135000D01*
X64373000Y-75976250D01*
X64373000Y-74427000D01*
X64627000Y-74427000D01*
X64627000Y-75976250D01*
X64785750Y-76135000D01*
X65700000Y-76138072D01*
X65824482Y-76125812D01*
X65944180Y-76089502D01*
X66054494Y-76030537D01*
X66151185Y-75951185D01*
X66230537Y-75854494D01*
X66289502Y-75744180D01*
X66325812Y-75624482D01*
X66338072Y-75500000D01*
X66335000Y-74585750D01*
X66176250Y-74427000D01*
X64627000Y-74427000D01*
X64373000Y-74427000D01*
X62823750Y-74427000D01*
X62665000Y-74585750D01*
X62661928Y-75500000D01*
X58093072Y-75500000D01*
X58064502Y-75405820D01*
X58005537Y-75295506D01*
X57926185Y-75198815D01*
X57829494Y-75119463D01*
X57719180Y-75060498D01*
X57599482Y-75024188D01*
X57475000Y-75011928D01*
X56785750Y-75015000D01*
X56627000Y-75173750D01*
X56373000Y-75173750D01*
X56214250Y-75015000D01*
X55735000Y-75012864D01*
X55735000Y-74778363D01*
X55687540Y-74539764D01*
X55608634Y-74349268D01*
X73725000Y-74349268D01*
X73725000Y-74710732D01*
X73795518Y-75065250D01*
X73933844Y-75399199D01*
X74134662Y-75699744D01*
X74390256Y-75955338D01*
X74690801Y-76156156D01*
X75024750Y-76294482D01*
X75379268Y-76365000D01*
X75740732Y-76365000D01*
X76095250Y-76294482D01*
X76429199Y-76156156D01*
X76729744Y-75955338D01*
X76985338Y-75699744D01*
X77186156Y-75399199D01*
X77324482Y-75065250D01*
X77395000Y-74710732D01*
X77395000Y-74349268D01*
X78165000Y-74349268D01*
X78165000Y-74710732D01*
X78235518Y-75065250D01*
X78373844Y-75399199D01*
X78574662Y-75699744D01*
X78830256Y-75955338D01*
X79130801Y-76156156D01*
X79464750Y-76294482D01*
X79819268Y-76365000D01*
X80180732Y-76365000D01*
X80535250Y-76294482D01*
X80869199Y-76156156D01*
X81169744Y-75955338D01*
X81425338Y-75699744D01*
X81626156Y-75399199D01*
X81764482Y-75065250D01*
X81835000Y-74710732D01*
X81835000Y-74349268D01*
X81764482Y-73994750D01*
X81626156Y-73660801D01*
X81425338Y-73360256D01*
X81169744Y-73104662D01*
X80869199Y-72903844D01*
X80535250Y-72765518D01*
X80180732Y-72695000D01*
X79819268Y-72695000D01*
X79464750Y-72765518D01*
X79130801Y-72903844D01*
X78830256Y-73104662D01*
X78574662Y-73360256D01*
X78373844Y-73660801D01*
X78235518Y-73994750D01*
X78165000Y-74349268D01*
X77395000Y-74349268D01*
X77324482Y-73994750D01*
X77186156Y-73660801D01*
X76985338Y-73360256D01*
X76729744Y-73104662D01*
X76429199Y-72903844D01*
X76095250Y-72765518D01*
X75740732Y-72695000D01*
X75379268Y-72695000D01*
X75024750Y-72765518D01*
X74690801Y-72903844D01*
X74390256Y-73104662D01*
X74134662Y-73360256D01*
X73933844Y-73660801D01*
X73795518Y-73994750D01*
X73725000Y-74349268D01*
X55608634Y-74349268D01*
X55594443Y-74315008D01*
X55459287Y-74112733D01*
X55287267Y-73940713D01*
X55084992Y-73805557D01*
X54860236Y-73712460D01*
X54621637Y-73665000D01*
X54378363Y-73665000D01*
X54139764Y-73712460D01*
X53915008Y-73805557D01*
X53712733Y-73940713D01*
X53540713Y-74112733D01*
X53405557Y-74315008D01*
X53312460Y-74539764D01*
X53265000Y-74778363D01*
X50710000Y-74778363D01*
X50710000Y-73100000D01*
X62661928Y-73100000D01*
X62665000Y-74014250D01*
X62823750Y-74173000D01*
X64373000Y-74173000D01*
X64373000Y-72623750D01*
X64627000Y-72623750D01*
X64627000Y-74173000D01*
X66176250Y-74173000D01*
X66335000Y-74014250D01*
X66338072Y-73100000D01*
X66325812Y-72975518D01*
X66289502Y-72855820D01*
X66230537Y-72745506D01*
X66151185Y-72648815D01*
X66054494Y-72569463D01*
X65944180Y-72510498D01*
X65824482Y-72474188D01*
X65700000Y-72461928D01*
X64785750Y-72465000D01*
X64627000Y-72623750D01*
X64373000Y-72623750D01*
X64214250Y-72465000D01*
X63300000Y-72461928D01*
X63175518Y-72474188D01*
X63055820Y-72510498D01*
X62945506Y-72569463D01*
X62848815Y-72648815D01*
X62769463Y-72745506D01*
X62710498Y-72855820D01*
X62674188Y-72975518D01*
X62661928Y-73100000D01*
X50710000Y-73100000D01*
X50710000Y-67019268D01*
X59665000Y-67019268D01*
X59665000Y-67380732D01*
X59735518Y-67735250D01*
X59873844Y-68069199D01*
X60074662Y-68369744D01*
X60330256Y-68625338D01*
X60630801Y-68826156D01*
X60964750Y-68964482D01*
X61319268Y-69035000D01*
X61680732Y-69035000D01*
X62035250Y-68964482D01*
X62369199Y-68826156D01*
X62669744Y-68625338D01*
X62925338Y-68369744D01*
X63126156Y-68069199D01*
X63264482Y-67735250D01*
X63335000Y-67380732D01*
X63335000Y-67049268D01*
X64665000Y-67049268D01*
X64665000Y-67410732D01*
X64735518Y-67765250D01*
X64873844Y-68099199D01*
X65074662Y-68399744D01*
X65330256Y-68655338D01*
X65630801Y-68856156D01*
X65964750Y-68994482D01*
X66319268Y-69065000D01*
X66680732Y-69065000D01*
X67035250Y-68994482D01*
X67369199Y-68856156D01*
X67669744Y-68655338D01*
X67925338Y-68399744D01*
X68126156Y-68099199D01*
X68264482Y-67765250D01*
X68335000Y-67410732D01*
X68335000Y-67049268D01*
X69665000Y-67049268D01*
X69665000Y-67410732D01*
X69735518Y-67765250D01*
X69873844Y-68099199D01*
X70074662Y-68399744D01*
X70330256Y-68655338D01*
X70630801Y-68856156D01*
X70964750Y-68994482D01*
X71319268Y-69065000D01*
X71680732Y-69065000D01*
X72035250Y-68994482D01*
X72144449Y-68949250D01*
X74706200Y-71511002D01*
X74729999Y-71540001D01*
X74758997Y-71563799D01*
X74845723Y-71634974D01*
X74977753Y-71705546D01*
X75121014Y-71749003D01*
X75232667Y-71760000D01*
X75232676Y-71760000D01*
X75269999Y-71763676D01*
X75307322Y-71760000D01*
X84108951Y-71760000D01*
X84272129Y-71923178D01*
X83600000Y-71923178D01*
X83475518Y-71935438D01*
X83355820Y-71971748D01*
X83245506Y-72030713D01*
X83148815Y-72110065D01*
X83069463Y-72206756D01*
X83010498Y-72317070D01*
X82974188Y-72436768D01*
X82961928Y-72561250D01*
X82961928Y-74278750D01*
X82974188Y-74403232D01*
X83010498Y-74522930D01*
X83069463Y-74633244D01*
X83148815Y-74729935D01*
X83245506Y-74809287D01*
X83259450Y-74816740D01*
X83210733Y-74876102D01*
X83072028Y-75135601D01*
X82986614Y-75417174D01*
X82957773Y-75710000D01*
X82986614Y-76002826D01*
X83072028Y-76284399D01*
X83210733Y-76543898D01*
X83397399Y-76771351D01*
X83499326Y-76855000D01*
X83397399Y-76938649D01*
X83210733Y-77166102D01*
X83072028Y-77425601D01*
X82986614Y-77707174D01*
X82957773Y-78000000D01*
X82986614Y-78292826D01*
X83072028Y-78574399D01*
X83210733Y-78833898D01*
X83397399Y-79061351D01*
X83624852Y-79248017D01*
X83884351Y-79386722D01*
X84165924Y-79472136D01*
X84385373Y-79493750D01*
X84614627Y-79493750D01*
X84834076Y-79472136D01*
X85115649Y-79386722D01*
X85375148Y-79248017D01*
X85602601Y-79061351D01*
X85789267Y-78833898D01*
X85927972Y-78574399D01*
X86013386Y-78292826D01*
X86042227Y-78000000D01*
X86013386Y-77707174D01*
X85927972Y-77425601D01*
X85789267Y-77166102D01*
X85602601Y-76938649D01*
X85500674Y-76855000D01*
X85602601Y-76771351D01*
X85789267Y-76543898D01*
X85927972Y-76284399D01*
X85972256Y-76138415D01*
X86004774Y-76301898D01*
X86082795Y-76490256D01*
X86196063Y-76659774D01*
X86240000Y-76703711D01*
X86240001Y-77962668D01*
X86236324Y-78000000D01*
X86250998Y-78148985D01*
X86294454Y-78292246D01*
X86365026Y-78424276D01*
X86423684Y-78495750D01*
X86460000Y-78540001D01*
X86488998Y-78563799D01*
X95761928Y-87836731D01*
X95761928Y-89600000D01*
X95774188Y-89724482D01*
X95810498Y-89844180D01*
X95869463Y-89954494D01*
X95948815Y-90051185D01*
X96045506Y-90130537D01*
X96155820Y-90189502D01*
X96275518Y-90225812D01*
X96400000Y-90238072D01*
X98600000Y-90238072D01*
X98724482Y-90225812D01*
X98844180Y-90189502D01*
X98954494Y-90130537D01*
X99051185Y-90051185D01*
X99130537Y-89954494D01*
X99189502Y-89844180D01*
X99225812Y-89724482D01*
X99238072Y-89600000D01*
X99238072Y-87400000D01*
X99225812Y-87275518D01*
X99189502Y-87155820D01*
X99130537Y-87045506D01*
X99051185Y-86948815D01*
X98954494Y-86869463D01*
X98844180Y-86810498D01*
X98724482Y-86774188D01*
X98600000Y-86761928D01*
X96836731Y-86761928D01*
X93774803Y-83700000D01*
X104561928Y-83700000D01*
X104561928Y-86300000D01*
X104574188Y-86424482D01*
X104610498Y-86544180D01*
X104669463Y-86654494D01*
X104748815Y-86751185D01*
X104845506Y-86830537D01*
X104955820Y-86889502D01*
X105075518Y-86925812D01*
X105200000Y-86938072D01*
X107800000Y-86938072D01*
X107924482Y-86925812D01*
X108044180Y-86889502D01*
X108154494Y-86830537D01*
X108251185Y-86751185D01*
X108330537Y-86654494D01*
X108389502Y-86544180D01*
X108425812Y-86424482D01*
X108438072Y-86300000D01*
X108438072Y-83700000D01*
X108425812Y-83575518D01*
X108389502Y-83455820D01*
X108330537Y-83345506D01*
X108251185Y-83248815D01*
X108154494Y-83169463D01*
X108044180Y-83110498D01*
X107924482Y-83074188D01*
X107800000Y-83061928D01*
X105200000Y-83061928D01*
X105075518Y-83074188D01*
X104955820Y-83110498D01*
X104845506Y-83169463D01*
X104748815Y-83248815D01*
X104669463Y-83345506D01*
X104610498Y-83455820D01*
X104574188Y-83575518D01*
X104561928Y-83700000D01*
X93774803Y-83700000D01*
X90682621Y-80607819D01*
X90819268Y-80635000D01*
X91180732Y-80635000D01*
X91535250Y-80564482D01*
X91869199Y-80426156D01*
X92169744Y-80225338D01*
X92425338Y-79969744D01*
X92626156Y-79669199D01*
X92764482Y-79335250D01*
X92835000Y-78980732D01*
X92835000Y-78619268D01*
X92764482Y-78264750D01*
X92724870Y-78169117D01*
X95765000Y-78169117D01*
X95765000Y-78510883D01*
X95831675Y-78846081D01*
X95962463Y-79161831D01*
X96152337Y-79445998D01*
X96394002Y-79687663D01*
X96678169Y-79877537D01*
X96993919Y-80008325D01*
X97329117Y-80075000D01*
X97670883Y-80075000D01*
X98006081Y-80008325D01*
X98321831Y-79877537D01*
X98543505Y-79729419D01*
X104565000Y-79729419D01*
X104565000Y-80110581D01*
X104639361Y-80484419D01*
X104785225Y-80836566D01*
X104996987Y-81153491D01*
X105266509Y-81423013D01*
X105583434Y-81634775D01*
X105935581Y-81780639D01*
X106309419Y-81855000D01*
X106690581Y-81855000D01*
X107064419Y-81780639D01*
X107416566Y-81634775D01*
X107733491Y-81423013D01*
X108003013Y-81153491D01*
X108214775Y-80836566D01*
X108360639Y-80484419D01*
X108435000Y-80110581D01*
X108435000Y-79729419D01*
X108360639Y-79355581D01*
X108214775Y-79003434D01*
X108003013Y-78686509D01*
X107733491Y-78416987D01*
X107416566Y-78205225D01*
X107064419Y-78059361D01*
X106690581Y-77985000D01*
X106309419Y-77985000D01*
X105935581Y-78059361D01*
X105583434Y-78205225D01*
X105266509Y-78416987D01*
X104996987Y-78686509D01*
X104785225Y-79003434D01*
X104639361Y-79355581D01*
X104565000Y-79729419D01*
X98543505Y-79729419D01*
X98605998Y-79687663D01*
X98847663Y-79445998D01*
X99037537Y-79161831D01*
X99168325Y-78846081D01*
X99235000Y-78510883D01*
X99235000Y-78169117D01*
X99168325Y-77833919D01*
X99037537Y-77518169D01*
X98847663Y-77234002D01*
X98605998Y-76992337D01*
X98321831Y-76802463D01*
X98006081Y-76671675D01*
X97670883Y-76605000D01*
X97329117Y-76605000D01*
X96993919Y-76671675D01*
X96678169Y-76802463D01*
X96394002Y-76992337D01*
X96152337Y-77234002D01*
X95962463Y-77518169D01*
X95831675Y-77833919D01*
X95765000Y-78169117D01*
X92724870Y-78169117D01*
X92626156Y-77930801D01*
X92425338Y-77630256D01*
X92169744Y-77374662D01*
X91869199Y-77173844D01*
X91535250Y-77035518D01*
X91180732Y-76965000D01*
X90819268Y-76965000D01*
X90464750Y-77035518D01*
X90130801Y-77173844D01*
X89830256Y-77374662D01*
X89574662Y-77630256D01*
X89373844Y-77930801D01*
X89235518Y-78264750D01*
X89165000Y-78619268D01*
X89165000Y-78980732D01*
X89192181Y-79117380D01*
X87760000Y-77685199D01*
X87760000Y-76703711D01*
X87803937Y-76659774D01*
X87917205Y-76490256D01*
X87995226Y-76301898D01*
X88035000Y-76101939D01*
X88035000Y-75898061D01*
X87995226Y-75698102D01*
X87917205Y-75509744D01*
X87803937Y-75340226D01*
X87760000Y-75296289D01*
X87760000Y-74314801D01*
X89255533Y-72819268D01*
X92965000Y-72819268D01*
X92965000Y-73180732D01*
X93035518Y-73535250D01*
X93173844Y-73869199D01*
X93374662Y-74169744D01*
X93630256Y-74425338D01*
X93930801Y-74626156D01*
X94264750Y-74764482D01*
X94619268Y-74835000D01*
X94980732Y-74835000D01*
X95335250Y-74764482D01*
X95669199Y-74626156D01*
X95969744Y-74425338D01*
X96225338Y-74169744D01*
X96426156Y-73869199D01*
X96564482Y-73535250D01*
X96635000Y-73180732D01*
X96635000Y-72819268D01*
X105665000Y-72819268D01*
X105665000Y-73180732D01*
X105735518Y-73535250D01*
X105873844Y-73869199D01*
X106074662Y-74169744D01*
X106330256Y-74425338D01*
X106630801Y-74626156D01*
X106964750Y-74764482D01*
X107319268Y-74835000D01*
X107680732Y-74835000D01*
X108035250Y-74764482D01*
X108369199Y-74626156D01*
X108669744Y-74425338D01*
X108925338Y-74169744D01*
X109126156Y-73869199D01*
X109264482Y-73535250D01*
X109335000Y-73180732D01*
X109335000Y-72819268D01*
X109264482Y-72464750D01*
X109126156Y-72130801D01*
X108925338Y-71830256D01*
X108669744Y-71574662D01*
X108369199Y-71373844D01*
X108035250Y-71235518D01*
X107680732Y-71165000D01*
X107319268Y-71165000D01*
X106964750Y-71235518D01*
X106630801Y-71373844D01*
X106330256Y-71574662D01*
X106074662Y-71830256D01*
X105873844Y-72130801D01*
X105735518Y-72464750D01*
X105665000Y-72819268D01*
X96635000Y-72819268D01*
X96564482Y-72464750D01*
X96426156Y-72130801D01*
X96225338Y-71830256D01*
X95969744Y-71574662D01*
X95669199Y-71373844D01*
X95335250Y-71235518D01*
X94980732Y-71165000D01*
X94619268Y-71165000D01*
X94264750Y-71235518D01*
X93930801Y-71373844D01*
X93630256Y-71574662D01*
X93374662Y-71830256D01*
X93173844Y-72130801D01*
X93035518Y-72464750D01*
X92965000Y-72819268D01*
X89255533Y-72819268D01*
X92511004Y-69563798D01*
X92540001Y-69540001D01*
X92563804Y-69510997D01*
X93824801Y-68250000D01*
X100836928Y-68250000D01*
X100849188Y-68374482D01*
X100885498Y-68494180D01*
X100944463Y-68604494D01*
X101023815Y-68701185D01*
X101120506Y-68780537D01*
X101230820Y-68839502D01*
X101350518Y-68875812D01*
X101475000Y-68888072D01*
X101714250Y-68885000D01*
X101873000Y-68726250D01*
X101873000Y-67627000D01*
X100998750Y-67627000D01*
X100840000Y-67785750D01*
X100836928Y-68250000D01*
X93824801Y-68250000D01*
X94063799Y-68011003D01*
X94063804Y-68010997D01*
X95324801Y-66750000D01*
X100836928Y-66750000D01*
X100840000Y-67214250D01*
X100998750Y-67373000D01*
X101873000Y-67373000D01*
X101873000Y-67218022D01*
X102110000Y-67218022D01*
X102110000Y-67781979D01*
X102126785Y-67952400D01*
X102127000Y-67953109D01*
X102127000Y-68726250D01*
X102285750Y-68885000D01*
X102525000Y-68888072D01*
X102649482Y-68875812D01*
X102769180Y-68839502D01*
X102833902Y-68804907D01*
X103042601Y-68868215D01*
X103270000Y-68890612D01*
X103497400Y-68868215D01*
X103716060Y-68801885D01*
X103905000Y-68700894D01*
X104093941Y-68801885D01*
X104312601Y-68868215D01*
X104540000Y-68890612D01*
X104767400Y-68868215D01*
X104986060Y-68801885D01*
X105187579Y-68694171D01*
X105364212Y-68549212D01*
X105509171Y-68372579D01*
X105616885Y-68171059D01*
X105683215Y-67952399D01*
X105700000Y-67781978D01*
X105700000Y-67218021D01*
X105683215Y-67047600D01*
X105616885Y-66828940D01*
X105509171Y-66627421D01*
X105364212Y-66450788D01*
X105187578Y-66305829D01*
X104986059Y-66198115D01*
X104767399Y-66131785D01*
X104540000Y-66109388D01*
X104312600Y-66131785D01*
X104093940Y-66198115D01*
X103905000Y-66299106D01*
X103716059Y-66198115D01*
X103497399Y-66131785D01*
X103270000Y-66109388D01*
X103042600Y-66131785D01*
X102833902Y-66195093D01*
X102769180Y-66160498D01*
X102649482Y-66124188D01*
X102525000Y-66111928D01*
X102285750Y-66115000D01*
X102127000Y-66273750D01*
X102127000Y-67046892D01*
X102126785Y-67047601D01*
X102110000Y-67218022D01*
X101873000Y-67218022D01*
X101873000Y-66273750D01*
X101714250Y-66115000D01*
X101475000Y-66111928D01*
X101350518Y-66124188D01*
X101230820Y-66160498D01*
X101120506Y-66219463D01*
X101023815Y-66298815D01*
X100944463Y-66395506D01*
X100885498Y-66505820D01*
X100849188Y-66625518D01*
X100836928Y-66750000D01*
X95324801Y-66750000D01*
X96836730Y-65238072D01*
X98600000Y-65238072D01*
X98724482Y-65225812D01*
X98844180Y-65189502D01*
X98954494Y-65130537D01*
X99051185Y-65051185D01*
X99130537Y-64954494D01*
X99189502Y-64844180D01*
X99225812Y-64724482D01*
X99238072Y-64600000D01*
X99238072Y-62400000D01*
X99225812Y-62275518D01*
X99189502Y-62155820D01*
X99130537Y-62045506D01*
X99051185Y-61948815D01*
X98954494Y-61869463D01*
X98844180Y-61810498D01*
X98724482Y-61774188D01*
X98600000Y-61761928D01*
X96400000Y-61761928D01*
X96275518Y-61774188D01*
X96155820Y-61810498D01*
X96045506Y-61869463D01*
X95948815Y-61948815D01*
X95869463Y-62045506D01*
X95810498Y-62155820D01*
X95774188Y-62275518D01*
X95761928Y-62400000D01*
X95761928Y-64163270D01*
X92989003Y-66936196D01*
X92988997Y-66936201D01*
X92760000Y-67165198D01*
X92760000Y-65577322D01*
X92763676Y-65539999D01*
X92760000Y-65502676D01*
X92760000Y-65502667D01*
X92749003Y-65391014D01*
X92705546Y-65247753D01*
X92634974Y-65115724D01*
X92621811Y-65099685D01*
X92563799Y-65028996D01*
X92563795Y-65028992D01*
X92540001Y-64999999D01*
X92511008Y-64976205D01*
X89852851Y-62318049D01*
X89868215Y-62267400D01*
X89890612Y-62040000D01*
X89868215Y-61812600D01*
X89801885Y-61593940D01*
X89701071Y-61405331D01*
X89742275Y-61346882D01*
X89835272Y-61137337D01*
X89843964Y-61075810D01*
X89718163Y-60897000D01*
X88953109Y-60897000D01*
X88952400Y-60896785D01*
X88781979Y-60880000D01*
X88218021Y-60880000D01*
X88047600Y-60896785D01*
X88046891Y-60897000D01*
X87281837Y-60897000D01*
X87156036Y-61075810D01*
X87164728Y-61137337D01*
X87257725Y-61346882D01*
X87298929Y-61405331D01*
X87198115Y-61593940D01*
X87131785Y-61812600D01*
X87109388Y-62040000D01*
X87131785Y-62267400D01*
X87198115Y-62486060D01*
X87305829Y-62687579D01*
X87450788Y-62864212D01*
X87627421Y-63009171D01*
X87828940Y-63116885D01*
X88047600Y-63183215D01*
X88218021Y-63200000D01*
X88585199Y-63200000D01*
X91240001Y-65854804D01*
X91240000Y-68685198D01*
X87211876Y-72713323D01*
X86221876Y-71723323D01*
X86221876Y-67663960D01*
X86263329Y-67741514D01*
X86507298Y-67813097D01*
X87320395Y-67000000D01*
X86507298Y-66186903D01*
X86263329Y-66258486D01*
X86221876Y-66346093D01*
X86221876Y-66007298D01*
X86686903Y-66007298D01*
X87500000Y-66820395D01*
X87514143Y-66806253D01*
X87693748Y-66985858D01*
X87679605Y-67000000D01*
X87693748Y-67014143D01*
X87514143Y-67193748D01*
X87500000Y-67179605D01*
X86686903Y-67992702D01*
X86758486Y-68236671D01*
X87013996Y-68357571D01*
X87288184Y-68426300D01*
X87570512Y-68440217D01*
X87850130Y-68398787D01*
X88116292Y-68303603D01*
X88238309Y-68238384D01*
X88248815Y-68251185D01*
X88345506Y-68330537D01*
X88455820Y-68389502D01*
X88575518Y-68425812D01*
X88700000Y-68438072D01*
X90300000Y-68438072D01*
X90424482Y-68425812D01*
X90544180Y-68389502D01*
X90654494Y-68330537D01*
X90751185Y-68251185D01*
X90830537Y-68154494D01*
X90889502Y-68044180D01*
X90925812Y-67924482D01*
X90938072Y-67800000D01*
X90938072Y-66200000D01*
X90925812Y-66075518D01*
X90889502Y-65955820D01*
X90830537Y-65845506D01*
X90751185Y-65748815D01*
X90654494Y-65669463D01*
X90544180Y-65610498D01*
X90424482Y-65574188D01*
X90300000Y-65561928D01*
X88700000Y-65561928D01*
X88575518Y-65574188D01*
X88455820Y-65610498D01*
X88345506Y-65669463D01*
X88248815Y-65748815D01*
X88238193Y-65761758D01*
X87986004Y-65642429D01*
X87711816Y-65573700D01*
X87429488Y-65559783D01*
X87149870Y-65601213D01*
X86883708Y-65696397D01*
X86758486Y-65763329D01*
X86686903Y-66007298D01*
X86221876Y-66007298D01*
X86221876Y-64999201D01*
X86225552Y-64961876D01*
X86221876Y-64924551D01*
X86221876Y-64924543D01*
X86210879Y-64812890D01*
X86167422Y-64669629D01*
X86096850Y-64537600D01*
X86001877Y-64421875D01*
X85972880Y-64398078D01*
X83103804Y-61529003D01*
X83080001Y-61499999D01*
X82964276Y-61405026D01*
X82832247Y-61334454D01*
X82688986Y-61290997D01*
X82577333Y-61280000D01*
X82577322Y-61280000D01*
X82540000Y-61276324D01*
X82502678Y-61280000D01*
X82271958Y-61280000D01*
X82335272Y-61137337D01*
X82343964Y-61075810D01*
X82218163Y-60897000D01*
X81453109Y-60897000D01*
X81452400Y-60896785D01*
X81281979Y-60880000D01*
X80718021Y-60880000D01*
X80547600Y-60896785D01*
X80546891Y-60897000D01*
X79781837Y-60897000D01*
X79656036Y-61075810D01*
X79664728Y-61137337D01*
X79757725Y-61346882D01*
X79798929Y-61405331D01*
X79698115Y-61593940D01*
X79631785Y-61812600D01*
X79609388Y-62040000D01*
X79631785Y-62267400D01*
X79698115Y-62486060D01*
X79805829Y-62687579D01*
X79950788Y-62864212D01*
X80127421Y-63009171D01*
X80328940Y-63116885D01*
X80547600Y-63183215D01*
X80718021Y-63200000D01*
X81281979Y-63200000D01*
X81452400Y-63183215D01*
X81671060Y-63116885D01*
X81872579Y-63009171D01*
X82049212Y-62864212D01*
X82101909Y-62800000D01*
X82225199Y-62800000D01*
X84701876Y-65276678D01*
X84701877Y-70290170D01*
X84572738Y-70250997D01*
X84461085Y-70240000D01*
X84461074Y-70240000D01*
X84423752Y-70236324D01*
X84386430Y-70240000D01*
X75584802Y-70240000D01*
X73219250Y-67874449D01*
X73264482Y-67765250D01*
X73335000Y-67410732D01*
X73335000Y-67070512D01*
X78559783Y-67070512D01*
X78601213Y-67350130D01*
X78696397Y-67616292D01*
X78763329Y-67741514D01*
X79007298Y-67813097D01*
X79820395Y-67000000D01*
X79007298Y-66186903D01*
X78763329Y-66258486D01*
X78642429Y-66513996D01*
X78573700Y-66788184D01*
X78559783Y-67070512D01*
X73335000Y-67070512D01*
X73335000Y-67049268D01*
X73264482Y-66694750D01*
X73126156Y-66360801D01*
X72925338Y-66060256D01*
X72872380Y-66007298D01*
X79186903Y-66007298D01*
X80000000Y-66820395D01*
X80014143Y-66806253D01*
X80193748Y-66985858D01*
X80179605Y-67000000D01*
X80193748Y-67014143D01*
X80014143Y-67193748D01*
X80000000Y-67179605D01*
X79186903Y-67992702D01*
X79258486Y-68236671D01*
X79513996Y-68357571D01*
X79788184Y-68426300D01*
X80070512Y-68440217D01*
X80350130Y-68398787D01*
X80616292Y-68303603D01*
X80738309Y-68238384D01*
X80748815Y-68251185D01*
X80845506Y-68330537D01*
X80955820Y-68389502D01*
X81075518Y-68425812D01*
X81200000Y-68438072D01*
X82800000Y-68438072D01*
X82924482Y-68425812D01*
X83044180Y-68389502D01*
X83154494Y-68330537D01*
X83251185Y-68251185D01*
X83330537Y-68154494D01*
X83389502Y-68044180D01*
X83425812Y-67924482D01*
X83438072Y-67800000D01*
X83438072Y-66200000D01*
X83425812Y-66075518D01*
X83389502Y-65955820D01*
X83330537Y-65845506D01*
X83251185Y-65748815D01*
X83154494Y-65669463D01*
X83044180Y-65610498D01*
X82924482Y-65574188D01*
X82800000Y-65561928D01*
X81200000Y-65561928D01*
X81075518Y-65574188D01*
X80955820Y-65610498D01*
X80845506Y-65669463D01*
X80748815Y-65748815D01*
X80738193Y-65761758D01*
X80486004Y-65642429D01*
X80211816Y-65573700D01*
X79929488Y-65559783D01*
X79649870Y-65601213D01*
X79383708Y-65696397D01*
X79258486Y-65763329D01*
X79186903Y-66007298D01*
X72872380Y-66007298D01*
X72669744Y-65804662D01*
X72369199Y-65603844D01*
X72035250Y-65465518D01*
X71680732Y-65395000D01*
X71319268Y-65395000D01*
X70964750Y-65465518D01*
X70630801Y-65603844D01*
X70330256Y-65804662D01*
X70074662Y-66060256D01*
X69873844Y-66360801D01*
X69735518Y-66694750D01*
X69665000Y-67049268D01*
X68335000Y-67049268D01*
X68264482Y-66694750D01*
X68126156Y-66360801D01*
X67925338Y-66060256D01*
X67669744Y-65804662D01*
X67369199Y-65603844D01*
X67035250Y-65465518D01*
X66680732Y-65395000D01*
X66319268Y-65395000D01*
X65964750Y-65465518D01*
X65630801Y-65603844D01*
X65330256Y-65804662D01*
X65074662Y-66060256D01*
X64873844Y-66360801D01*
X64735518Y-66694750D01*
X64665000Y-67049268D01*
X63335000Y-67049268D01*
X63335000Y-67019268D01*
X63264482Y-66664750D01*
X63126156Y-66330801D01*
X62925338Y-66030256D01*
X62669744Y-65774662D01*
X62369199Y-65573844D01*
X62035250Y-65435518D01*
X61680732Y-65365000D01*
X61319268Y-65365000D01*
X60964750Y-65435518D01*
X60630801Y-65573844D01*
X60330256Y-65774662D01*
X60074662Y-66030256D01*
X59873844Y-66330801D01*
X59735518Y-66664750D01*
X59665000Y-67019268D01*
X50710000Y-67019268D01*
X50710000Y-59070512D01*
X53559783Y-59070512D01*
X53601213Y-59350130D01*
X53696397Y-59616292D01*
X53761616Y-59738309D01*
X53748815Y-59748815D01*
X53669463Y-59845506D01*
X53610498Y-59955820D01*
X53574188Y-60075518D01*
X53561928Y-60200000D01*
X53561928Y-61800000D01*
X53574188Y-61924482D01*
X53610498Y-62044180D01*
X53669463Y-62154494D01*
X53748815Y-62251185D01*
X53845506Y-62330537D01*
X53955820Y-62389502D01*
X54075518Y-62425812D01*
X54200000Y-62438072D01*
X55800000Y-62438072D01*
X55924482Y-62425812D01*
X56044180Y-62389502D01*
X56154494Y-62330537D01*
X56251185Y-62251185D01*
X56330537Y-62154494D01*
X56389502Y-62044180D01*
X56425812Y-61924482D01*
X56438072Y-61800000D01*
X56438072Y-60898061D01*
X72465000Y-60898061D01*
X72465000Y-61101939D01*
X72504774Y-61301898D01*
X72582795Y-61490256D01*
X72696063Y-61659774D01*
X72840226Y-61803937D01*
X73009744Y-61917205D01*
X73198102Y-61995226D01*
X73398061Y-62035000D01*
X73601939Y-62035000D01*
X73801898Y-61995226D01*
X73990256Y-61917205D01*
X74159774Y-61803937D01*
X74203711Y-61760000D01*
X74891990Y-61760000D01*
X74935927Y-61803937D01*
X75105445Y-61917205D01*
X75293803Y-61995226D01*
X75493762Y-62035000D01*
X75697640Y-62035000D01*
X75897599Y-61995226D01*
X76085957Y-61917205D01*
X76255475Y-61803937D01*
X76399638Y-61659774D01*
X76512906Y-61490256D01*
X76590927Y-61301898D01*
X76630701Y-61101939D01*
X76630701Y-60898061D01*
X76590927Y-60698102D01*
X76512906Y-60509744D01*
X76399638Y-60340226D01*
X76255475Y-60196063D01*
X76085957Y-60082795D01*
X75897599Y-60004774D01*
X75697640Y-59965000D01*
X75493762Y-59965000D01*
X75293803Y-60004774D01*
X75105445Y-60082795D01*
X74935927Y-60196063D01*
X74891990Y-60240000D01*
X74203711Y-60240000D01*
X74159774Y-60196063D01*
X73990256Y-60082795D01*
X73801898Y-60004774D01*
X73601939Y-59965000D01*
X73398061Y-59965000D01*
X73198102Y-60004774D01*
X73009744Y-60082795D01*
X72840226Y-60196063D01*
X72696063Y-60340226D01*
X72582795Y-60509744D01*
X72504774Y-60698102D01*
X72465000Y-60898061D01*
X56438072Y-60898061D01*
X56438072Y-60200000D01*
X56425812Y-60075518D01*
X56389502Y-59955820D01*
X56330537Y-59845506D01*
X56251185Y-59748815D01*
X56238242Y-59738193D01*
X56357571Y-59486004D01*
X56426300Y-59211816D01*
X56440217Y-58929488D01*
X56398787Y-58649870D01*
X56303603Y-58383708D01*
X56236671Y-58258486D01*
X55992702Y-58186903D01*
X55179605Y-59000000D01*
X55193748Y-59014143D01*
X55014143Y-59193748D01*
X55000000Y-59179605D01*
X54985858Y-59193748D01*
X54806253Y-59014143D01*
X54820395Y-59000000D01*
X54007298Y-58186903D01*
X53763329Y-58258486D01*
X53642429Y-58513996D01*
X53573700Y-58788184D01*
X53559783Y-59070512D01*
X50710000Y-59070512D01*
X50710000Y-58007298D01*
X54186903Y-58007298D01*
X55000000Y-58820395D01*
X55813097Y-58007298D01*
X55741514Y-57763329D01*
X55486004Y-57642429D01*
X55211816Y-57573700D01*
X54929488Y-57559783D01*
X54649870Y-57601213D01*
X54383708Y-57696397D01*
X54258486Y-57763329D01*
X54186903Y-58007298D01*
X50710000Y-58007298D01*
X50710000Y-54911806D01*
X59711801Y-54911806D01*
X59826500Y-55252754D01*
X60005511Y-55564774D01*
X60241954Y-55835875D01*
X60526743Y-56055639D01*
X60848934Y-56215621D01*
X61088195Y-56288195D01*
X61373000Y-56171432D01*
X61373000Y-54627000D01*
X61627000Y-54627000D01*
X61627000Y-56171432D01*
X61911805Y-56288195D01*
X62151066Y-56215621D01*
X62473257Y-56055639D01*
X62758046Y-55835875D01*
X62994489Y-55564774D01*
X63173500Y-55252754D01*
X63288199Y-54911806D01*
X63171854Y-54627000D01*
X61627000Y-54627000D01*
X61373000Y-54627000D01*
X59828146Y-54627000D01*
X59711801Y-54911806D01*
X50710000Y-54911806D01*
X50710000Y-54088194D01*
X59711801Y-54088194D01*
X59828146Y-54373000D01*
X61373000Y-54373000D01*
X61373000Y-52828568D01*
X61627000Y-52828568D01*
X61627000Y-54373000D01*
X63171854Y-54373000D01*
X63181548Y-54349268D01*
X64665000Y-54349268D01*
X64665000Y-54710732D01*
X64735518Y-55065250D01*
X64873844Y-55399199D01*
X65074662Y-55699744D01*
X65330256Y-55955338D01*
X65630801Y-56156156D01*
X65964750Y-56294482D01*
X66319268Y-56365000D01*
X66680732Y-56365000D01*
X67035250Y-56294482D01*
X67369199Y-56156156D01*
X67669744Y-55955338D01*
X67925338Y-55699744D01*
X68126156Y-55399199D01*
X68264482Y-55065250D01*
X68335000Y-54710732D01*
X68335000Y-54349268D01*
X69665000Y-54349268D01*
X69665000Y-54710732D01*
X69735518Y-55065250D01*
X69873844Y-55399199D01*
X70074662Y-55699744D01*
X70330256Y-55955338D01*
X70630801Y-56156156D01*
X70964750Y-56294482D01*
X71319268Y-56365000D01*
X71680732Y-56365000D01*
X72035250Y-56294482D01*
X72369199Y-56156156D01*
X72669744Y-55955338D01*
X72925338Y-55699744D01*
X73126156Y-55399199D01*
X73264482Y-55065250D01*
X73335000Y-54710732D01*
X73335000Y-54349268D01*
X73264482Y-53994750D01*
X73126156Y-53660801D01*
X72925338Y-53360256D01*
X72669744Y-53104662D01*
X72369199Y-52903844D01*
X72035250Y-52765518D01*
X71680732Y-52695000D01*
X71319268Y-52695000D01*
X70964750Y-52765518D01*
X70630801Y-52903844D01*
X70330256Y-53104662D01*
X70074662Y-53360256D01*
X69873844Y-53660801D01*
X69735518Y-53994750D01*
X69665000Y-54349268D01*
X68335000Y-54349268D01*
X68264482Y-53994750D01*
X68126156Y-53660801D01*
X67925338Y-53360256D01*
X67669744Y-53104662D01*
X67369199Y-52903844D01*
X67035250Y-52765518D01*
X66680732Y-52695000D01*
X66319268Y-52695000D01*
X65964750Y-52765518D01*
X65630801Y-52903844D01*
X65330256Y-53104662D01*
X65074662Y-53360256D01*
X64873844Y-53660801D01*
X64735518Y-53994750D01*
X64665000Y-54349268D01*
X63181548Y-54349268D01*
X63288199Y-54088194D01*
X63173500Y-53747246D01*
X62994489Y-53435226D01*
X62758046Y-53164125D01*
X62473257Y-52944361D01*
X62151066Y-52784379D01*
X61911805Y-52711805D01*
X61627000Y-52828568D01*
X61373000Y-52828568D01*
X61088195Y-52711805D01*
X60848934Y-52784379D01*
X60526743Y-52944361D01*
X60241954Y-53164125D01*
X60005511Y-53435226D01*
X59826500Y-53747246D01*
X59711801Y-54088194D01*
X50710000Y-54088194D01*
X50710000Y-45838967D01*
X52365000Y-45838967D01*
X52365000Y-46161033D01*
X52427832Y-46476912D01*
X52551082Y-46774463D01*
X52730013Y-47042252D01*
X52957748Y-47269987D01*
X53225537Y-47448918D01*
X53523088Y-47572168D01*
X53838967Y-47635000D01*
X54161033Y-47635000D01*
X54476912Y-47572168D01*
X54774463Y-47448918D01*
X55042252Y-47269987D01*
X55269987Y-47042252D01*
X55448918Y-46774463D01*
X55572168Y-46476912D01*
X55635000Y-46161033D01*
X55635000Y-45838967D01*
X58865000Y-45838967D01*
X58865000Y-46161033D01*
X58927832Y-46476912D01*
X59051082Y-46774463D01*
X59230013Y-47042252D01*
X59457748Y-47269987D01*
X59725537Y-47448918D01*
X60023088Y-47572168D01*
X60338967Y-47635000D01*
X60661033Y-47635000D01*
X60976912Y-47572168D01*
X61274463Y-47448918D01*
X61542252Y-47269987D01*
X61769987Y-47042252D01*
X61948918Y-46774463D01*
X62072168Y-46476912D01*
X62135000Y-46161033D01*
X62135000Y-45838967D01*
X62072168Y-45523088D01*
X61948918Y-45225537D01*
X61769987Y-44957748D01*
X61542252Y-44730013D01*
X61274463Y-44551082D01*
X60976912Y-44427832D01*
X60827243Y-44398061D01*
X66465000Y-44398061D01*
X66465000Y-44601939D01*
X66504774Y-44801898D01*
X66582795Y-44990256D01*
X66696063Y-45159774D01*
X66840226Y-45303937D01*
X67009744Y-45417205D01*
X67198102Y-45495226D01*
X67398061Y-45535000D01*
X67460199Y-45535000D01*
X68627802Y-46702604D01*
X68651600Y-46731602D01*
X68680598Y-46755400D01*
X68767324Y-46826575D01*
X68899354Y-46897147D01*
X69042615Y-46940604D01*
X69154268Y-46951601D01*
X69154277Y-46951601D01*
X69191600Y-46955277D01*
X69228923Y-46951601D01*
X75336765Y-46951601D01*
X75374087Y-46955277D01*
X75411409Y-46951601D01*
X75411420Y-46951601D01*
X75523073Y-46940604D01*
X75666334Y-46897147D01*
X75740000Y-46857771D01*
X75740001Y-54962668D01*
X75736324Y-55000000D01*
X75750998Y-55148985D01*
X75794454Y-55292246D01*
X75865026Y-55424276D01*
X75936201Y-55511002D01*
X75960000Y-55540001D01*
X75988998Y-55563799D01*
X79611928Y-59186730D01*
X79611928Y-60025000D01*
X79624188Y-60149482D01*
X79660498Y-60269180D01*
X79695176Y-60334057D01*
X79664728Y-60402663D01*
X79656036Y-60464190D01*
X79781837Y-60643000D01*
X80099765Y-60643000D01*
X80125518Y-60650812D01*
X80250000Y-60663072D01*
X81750000Y-60663072D01*
X81874482Y-60650812D01*
X81900235Y-60643000D01*
X82218163Y-60643000D01*
X82343964Y-60464190D01*
X82335272Y-60402663D01*
X82304824Y-60334057D01*
X82339502Y-60269180D01*
X82375812Y-60149482D01*
X82388072Y-60025000D01*
X82388072Y-58975000D01*
X87111928Y-58975000D01*
X87111928Y-60025000D01*
X87124188Y-60149482D01*
X87160498Y-60269180D01*
X87195176Y-60334057D01*
X87164728Y-60402663D01*
X87156036Y-60464190D01*
X87281837Y-60643000D01*
X87599765Y-60643000D01*
X87625518Y-60650812D01*
X87750000Y-60663072D01*
X89250000Y-60663072D01*
X89374482Y-60650812D01*
X89400235Y-60643000D01*
X89718163Y-60643000D01*
X89843964Y-60464190D01*
X89835272Y-60402663D01*
X89804824Y-60334057D01*
X89839502Y-60269180D01*
X89875812Y-60149482D01*
X89888072Y-60025000D01*
X89888072Y-58975000D01*
X89875812Y-58850518D01*
X89839502Y-58730820D01*
X89823029Y-58700000D01*
X104561928Y-58700000D01*
X104561928Y-61300000D01*
X104574188Y-61424482D01*
X104610498Y-61544180D01*
X104669463Y-61654494D01*
X104748815Y-61751185D01*
X104845506Y-61830537D01*
X104955820Y-61889502D01*
X105075518Y-61925812D01*
X105200000Y-61938072D01*
X107800000Y-61938072D01*
X107924482Y-61925812D01*
X108044180Y-61889502D01*
X108154494Y-61830537D01*
X108251185Y-61751185D01*
X108330537Y-61654494D01*
X108389502Y-61544180D01*
X108425812Y-61424482D01*
X108438072Y-61300000D01*
X108438072Y-58700000D01*
X108425812Y-58575518D01*
X108389502Y-58455820D01*
X108330537Y-58345506D01*
X108251185Y-58248815D01*
X108154494Y-58169463D01*
X108044180Y-58110498D01*
X107924482Y-58074188D01*
X107800000Y-58061928D01*
X105200000Y-58061928D01*
X105075518Y-58074188D01*
X104955820Y-58110498D01*
X104845506Y-58169463D01*
X104748815Y-58248815D01*
X104669463Y-58345506D01*
X104610498Y-58455820D01*
X104574188Y-58575518D01*
X104561928Y-58700000D01*
X89823029Y-58700000D01*
X89780537Y-58620506D01*
X89701185Y-58523815D01*
X89604494Y-58444463D01*
X89494180Y-58385498D01*
X89374482Y-58349188D01*
X89250000Y-58336928D01*
X87750000Y-58336928D01*
X87625518Y-58349188D01*
X87505820Y-58385498D01*
X87395506Y-58444463D01*
X87298815Y-58523815D01*
X87219463Y-58620506D01*
X87160498Y-58730820D01*
X87124188Y-58850518D01*
X87111928Y-58975000D01*
X82388072Y-58975000D01*
X82375812Y-58850518D01*
X82339502Y-58730820D01*
X82280537Y-58620506D01*
X82201185Y-58523815D01*
X82104494Y-58444463D01*
X81994180Y-58385498D01*
X81874482Y-58349188D01*
X81750000Y-58336928D01*
X80911730Y-58336928D01*
X77260000Y-54685199D01*
X77260000Y-54570512D01*
X78559783Y-54570512D01*
X78601213Y-54850130D01*
X78696397Y-55116292D01*
X78763329Y-55241514D01*
X79007298Y-55313097D01*
X79820395Y-54500000D01*
X79007298Y-53686903D01*
X78763329Y-53758486D01*
X78642429Y-54013996D01*
X78573700Y-54288184D01*
X78559783Y-54570512D01*
X77260000Y-54570512D01*
X77260000Y-53507298D01*
X79186903Y-53507298D01*
X80000000Y-54320395D01*
X80014143Y-54306253D01*
X80193748Y-54485858D01*
X80179605Y-54500000D01*
X80193748Y-54514143D01*
X80014143Y-54693748D01*
X80000000Y-54679605D01*
X79186903Y-55492702D01*
X79258486Y-55736671D01*
X79513996Y-55857571D01*
X79788184Y-55926300D01*
X80070512Y-55940217D01*
X80350130Y-55898787D01*
X80616292Y-55803603D01*
X80738309Y-55738384D01*
X80748815Y-55751185D01*
X80845506Y-55830537D01*
X80955820Y-55889502D01*
X81075518Y-55925812D01*
X81200000Y-55938072D01*
X82800000Y-55938072D01*
X82924482Y-55925812D01*
X83044180Y-55889502D01*
X83154494Y-55830537D01*
X83251185Y-55751185D01*
X83330537Y-55654494D01*
X83389502Y-55544180D01*
X83425812Y-55424482D01*
X83438072Y-55300000D01*
X83438072Y-54570512D01*
X86059783Y-54570512D01*
X86101213Y-54850130D01*
X86196397Y-55116292D01*
X86263329Y-55241514D01*
X86507298Y-55313097D01*
X87320395Y-54500000D01*
X86507298Y-53686903D01*
X86263329Y-53758486D01*
X86142429Y-54013996D01*
X86073700Y-54288184D01*
X86059783Y-54570512D01*
X83438072Y-54570512D01*
X83438072Y-53700000D01*
X83425812Y-53575518D01*
X83405118Y-53507298D01*
X86686903Y-53507298D01*
X87500000Y-54320395D01*
X87514143Y-54306253D01*
X87693748Y-54485858D01*
X87679605Y-54500000D01*
X87693748Y-54514143D01*
X87514143Y-54693748D01*
X87500000Y-54679605D01*
X86686903Y-55492702D01*
X86758486Y-55736671D01*
X87013996Y-55857571D01*
X87288184Y-55926300D01*
X87570512Y-55940217D01*
X87850130Y-55898787D01*
X88116292Y-55803603D01*
X88238309Y-55738384D01*
X88248815Y-55751185D01*
X88345506Y-55830537D01*
X88455820Y-55889502D01*
X88575518Y-55925812D01*
X88700000Y-55938072D01*
X90300000Y-55938072D01*
X90424482Y-55925812D01*
X90544180Y-55889502D01*
X90654494Y-55830537D01*
X90751185Y-55751185D01*
X90830537Y-55654494D01*
X90889502Y-55544180D01*
X90925812Y-55424482D01*
X90938072Y-55300000D01*
X90938072Y-53700000D01*
X90925812Y-53575518D01*
X90889502Y-53455820D01*
X90830537Y-53345506D01*
X90751185Y-53248815D01*
X90654494Y-53169463D01*
X90653847Y-53169117D01*
X95765000Y-53169117D01*
X95765000Y-53510883D01*
X95831675Y-53846081D01*
X95962463Y-54161831D01*
X96152337Y-54445998D01*
X96394002Y-54687663D01*
X96678169Y-54877537D01*
X96993919Y-55008325D01*
X97329117Y-55075000D01*
X97670883Y-55075000D01*
X98006081Y-55008325D01*
X98321831Y-54877537D01*
X98543505Y-54729419D01*
X104565000Y-54729419D01*
X104565000Y-55110581D01*
X104639361Y-55484419D01*
X104785225Y-55836566D01*
X104996987Y-56153491D01*
X105266509Y-56423013D01*
X105583434Y-56634775D01*
X105935581Y-56780639D01*
X106309419Y-56855000D01*
X106690581Y-56855000D01*
X107064419Y-56780639D01*
X107416566Y-56634775D01*
X107733491Y-56423013D01*
X108003013Y-56153491D01*
X108214775Y-55836566D01*
X108360639Y-55484419D01*
X108435000Y-55110581D01*
X108435000Y-54729419D01*
X108360639Y-54355581D01*
X108214775Y-54003434D01*
X108003013Y-53686509D01*
X107733491Y-53416987D01*
X107416566Y-53205225D01*
X107064419Y-53059361D01*
X106690581Y-52985000D01*
X106309419Y-52985000D01*
X105935581Y-53059361D01*
X105583434Y-53205225D01*
X105266509Y-53416987D01*
X104996987Y-53686509D01*
X104785225Y-54003434D01*
X104639361Y-54355581D01*
X104565000Y-54729419D01*
X98543505Y-54729419D01*
X98605998Y-54687663D01*
X98847663Y-54445998D01*
X99037537Y-54161831D01*
X99168325Y-53846081D01*
X99235000Y-53510883D01*
X99235000Y-53169117D01*
X99168325Y-52833919D01*
X99037537Y-52518169D01*
X98847663Y-52234002D01*
X98605998Y-51992337D01*
X98321831Y-51802463D01*
X98006081Y-51671675D01*
X97670883Y-51605000D01*
X97329117Y-51605000D01*
X96993919Y-51671675D01*
X96678169Y-51802463D01*
X96394002Y-51992337D01*
X96152337Y-52234002D01*
X95962463Y-52518169D01*
X95831675Y-52833919D01*
X95765000Y-53169117D01*
X90653847Y-53169117D01*
X90544180Y-53110498D01*
X90424482Y-53074188D01*
X90300000Y-53061928D01*
X88700000Y-53061928D01*
X88575518Y-53074188D01*
X88455820Y-53110498D01*
X88345506Y-53169463D01*
X88248815Y-53248815D01*
X88238193Y-53261758D01*
X87986004Y-53142429D01*
X87711816Y-53073700D01*
X87429488Y-53059783D01*
X87149870Y-53101213D01*
X86883708Y-53196397D01*
X86758486Y-53263329D01*
X86686903Y-53507298D01*
X83405118Y-53507298D01*
X83389502Y-53455820D01*
X83330537Y-53345506D01*
X83251185Y-53248815D01*
X83154494Y-53169463D01*
X83044180Y-53110498D01*
X82924482Y-53074188D01*
X82800000Y-53061928D01*
X81200000Y-53061928D01*
X81075518Y-53074188D01*
X80955820Y-53110498D01*
X80845506Y-53169463D01*
X80748815Y-53248815D01*
X80738193Y-53261758D01*
X80486004Y-53142429D01*
X80211816Y-53073700D01*
X79929488Y-53059783D01*
X79649870Y-53101213D01*
X79383708Y-53196397D01*
X79258486Y-53263329D01*
X79186903Y-53507298D01*
X77260000Y-53507298D01*
X77260000Y-50519268D01*
X82665000Y-50519268D01*
X82665000Y-50880732D01*
X82735518Y-51235250D01*
X82873844Y-51569199D01*
X83074662Y-51869744D01*
X83330256Y-52125338D01*
X83630801Y-52326156D01*
X83964750Y-52464482D01*
X84319268Y-52535000D01*
X84680732Y-52535000D01*
X85035250Y-52464482D01*
X85369199Y-52326156D01*
X85669744Y-52125338D01*
X85925338Y-51869744D01*
X86126156Y-51569199D01*
X86264482Y-51235250D01*
X86335000Y-50880732D01*
X86335000Y-50519268D01*
X86264482Y-50164750D01*
X86126156Y-49830801D01*
X85925338Y-49530256D01*
X85669744Y-49274662D01*
X85369199Y-49073844D01*
X85035250Y-48935518D01*
X84680732Y-48865000D01*
X84319268Y-48865000D01*
X83964750Y-48935518D01*
X83630801Y-49073844D01*
X83330256Y-49274662D01*
X83074662Y-49530256D01*
X82873844Y-49830801D01*
X82735518Y-50164750D01*
X82665000Y-50519268D01*
X77260000Y-50519268D01*
X77260000Y-46319268D01*
X87965000Y-46319268D01*
X87965000Y-46680732D01*
X88035518Y-47035250D01*
X88173844Y-47369199D01*
X88374662Y-47669744D01*
X88630256Y-47925338D01*
X88930801Y-48126156D01*
X89264750Y-48264482D01*
X89619268Y-48335000D01*
X89980732Y-48335000D01*
X90335250Y-48264482D01*
X90669199Y-48126156D01*
X90969744Y-47925338D01*
X91225338Y-47669744D01*
X91426156Y-47369199D01*
X91564482Y-47035250D01*
X91635000Y-46680732D01*
X91635000Y-46319268D01*
X100665000Y-46319268D01*
X100665000Y-46680732D01*
X100735518Y-47035250D01*
X100873844Y-47369199D01*
X101074662Y-47669744D01*
X101330256Y-47925338D01*
X101630801Y-48126156D01*
X101964750Y-48264482D01*
X102319268Y-48335000D01*
X102680732Y-48335000D01*
X103035250Y-48264482D01*
X103369199Y-48126156D01*
X103669744Y-47925338D01*
X103925338Y-47669744D01*
X104126156Y-47369199D01*
X104264482Y-47035250D01*
X104335000Y-46680732D01*
X104335000Y-46319268D01*
X104264482Y-45964750D01*
X104126156Y-45630801D01*
X103925338Y-45330256D01*
X103669744Y-45074662D01*
X103558005Y-45000000D01*
X106882815Y-45000000D01*
X106911487Y-45291111D01*
X106996401Y-45571034D01*
X107134294Y-45829014D01*
X107319866Y-46055134D01*
X107383337Y-46107223D01*
X107281614Y-46161595D01*
X107147038Y-46272038D01*
X107036595Y-46406614D01*
X106954528Y-46560150D01*
X106903992Y-46726746D01*
X106886928Y-46900000D01*
X106886928Y-48100000D01*
X106903992Y-48273254D01*
X106954528Y-48439850D01*
X107036595Y-48593386D01*
X107147038Y-48727962D01*
X107281614Y-48838405D01*
X107435150Y-48920472D01*
X107601746Y-48971008D01*
X107775000Y-48988072D01*
X109225000Y-48988072D01*
X109398254Y-48971008D01*
X109564850Y-48920472D01*
X109718386Y-48838405D01*
X109852962Y-48727962D01*
X109963405Y-48593386D01*
X110045472Y-48439850D01*
X110096008Y-48273254D01*
X110113072Y-48100000D01*
X110113072Y-46900000D01*
X110096008Y-46726746D01*
X110045472Y-46560150D01*
X109963405Y-46406614D01*
X109852962Y-46272038D01*
X109718386Y-46161595D01*
X109616663Y-46107223D01*
X109680134Y-46055134D01*
X109865706Y-45829014D01*
X110003599Y-45571034D01*
X110088513Y-45291111D01*
X110117185Y-45000000D01*
X110088513Y-44708889D01*
X110003599Y-44428966D01*
X109865706Y-44170986D01*
X109680134Y-43944866D01*
X109454014Y-43759294D01*
X109428278Y-43745538D01*
X109634429Y-43589049D01*
X109827496Y-43371193D01*
X109974352Y-43119858D01*
X110066476Y-42856890D01*
X109945155Y-42627000D01*
X108627000Y-42627000D01*
X108627000Y-42647000D01*
X108373000Y-42647000D01*
X108373000Y-42627000D01*
X107054845Y-42627000D01*
X106933524Y-42856890D01*
X107025648Y-43119858D01*
X107172504Y-43371193D01*
X107365571Y-43589049D01*
X107571722Y-43745538D01*
X107545986Y-43759294D01*
X107319866Y-43944866D01*
X107134294Y-44170986D01*
X106996401Y-44428966D01*
X106911487Y-44708889D01*
X106882815Y-45000000D01*
X103558005Y-45000000D01*
X103369199Y-44873844D01*
X103035250Y-44735518D01*
X102680732Y-44665000D01*
X102319268Y-44665000D01*
X101964750Y-44735518D01*
X101630801Y-44873844D01*
X101330256Y-45074662D01*
X101074662Y-45330256D01*
X100873844Y-45630801D01*
X100735518Y-45964750D01*
X100665000Y-46319268D01*
X91635000Y-46319268D01*
X91564482Y-45964750D01*
X91426156Y-45630801D01*
X91225338Y-45330256D01*
X90969744Y-45074662D01*
X90669199Y-44873844D01*
X90335250Y-44735518D01*
X89980732Y-44665000D01*
X89619268Y-44665000D01*
X89264750Y-44735518D01*
X88930801Y-44873844D01*
X88630256Y-45074662D01*
X88374662Y-45330256D01*
X88173844Y-45630801D01*
X88035518Y-45964750D01*
X87965000Y-46319268D01*
X77260000Y-46319268D01*
X77260000Y-45203714D01*
X77303937Y-45159777D01*
X77417205Y-44990259D01*
X77495226Y-44801901D01*
X77535000Y-44601942D01*
X77535000Y-44539805D01*
X77736005Y-44338800D01*
X77765002Y-44315003D01*
X77859975Y-44199278D01*
X77930547Y-44067249D01*
X77974004Y-43923988D01*
X77985001Y-43812335D01*
X77985001Y-43812326D01*
X77988677Y-43775003D01*
X77985001Y-43737680D01*
X77985001Y-41319268D01*
X87965000Y-41319268D01*
X87965000Y-41680732D01*
X88035518Y-42035250D01*
X88173844Y-42369199D01*
X88374662Y-42669744D01*
X88630256Y-42925338D01*
X88930801Y-43126156D01*
X89264750Y-43264482D01*
X89619268Y-43335000D01*
X89980732Y-43335000D01*
X90335250Y-43264482D01*
X90669199Y-43126156D01*
X90969744Y-42925338D01*
X91225338Y-42669744D01*
X91426156Y-42369199D01*
X91564482Y-42035250D01*
X91589036Y-41911805D01*
X100711805Y-41911805D01*
X100784379Y-42151066D01*
X100944361Y-42473257D01*
X101164125Y-42758046D01*
X101435226Y-42994489D01*
X101747246Y-43173500D01*
X102088194Y-43288199D01*
X102373000Y-43171854D01*
X102373000Y-41627000D01*
X102627000Y-41627000D01*
X102627000Y-43171854D01*
X102911806Y-43288199D01*
X103252754Y-43173500D01*
X103564774Y-42994489D01*
X103835875Y-42758046D01*
X104055639Y-42473257D01*
X104215621Y-42151066D01*
X104218034Y-42143110D01*
X106933524Y-42143110D01*
X107054845Y-42373000D01*
X108373000Y-42373000D01*
X108373000Y-41173835D01*
X108627000Y-41173835D01*
X108627000Y-42373000D01*
X109945155Y-42373000D01*
X110066476Y-42143110D01*
X109974352Y-41880142D01*
X109827496Y-41628807D01*
X109634429Y-41410951D01*
X109402570Y-41234947D01*
X109140830Y-41107558D01*
X108859267Y-41033680D01*
X108627000Y-41173835D01*
X108373000Y-41173835D01*
X108140733Y-41033680D01*
X107859170Y-41107558D01*
X107597430Y-41234947D01*
X107365571Y-41410951D01*
X107172504Y-41628807D01*
X107025648Y-41880142D01*
X106933524Y-42143110D01*
X104218034Y-42143110D01*
X104288195Y-41911805D01*
X104171432Y-41627000D01*
X102627000Y-41627000D01*
X102373000Y-41627000D01*
X100828568Y-41627000D01*
X100711805Y-41911805D01*
X91589036Y-41911805D01*
X91635000Y-41680732D01*
X91635000Y-41319268D01*
X91589037Y-41088195D01*
X100711805Y-41088195D01*
X100828568Y-41373000D01*
X102373000Y-41373000D01*
X102373000Y-39828146D01*
X102627000Y-39828146D01*
X102627000Y-41373000D01*
X104171432Y-41373000D01*
X104288195Y-41088195D01*
X104215621Y-40848934D01*
X104055639Y-40526743D01*
X103835875Y-40241954D01*
X103564774Y-40005511D01*
X103252754Y-39826500D01*
X102911806Y-39711801D01*
X102627000Y-39828146D01*
X102373000Y-39828146D01*
X102088194Y-39711801D01*
X101747246Y-39826500D01*
X101435226Y-40005511D01*
X101164125Y-40241954D01*
X100944361Y-40526743D01*
X100784379Y-40848934D01*
X100711805Y-41088195D01*
X91589037Y-41088195D01*
X91564482Y-40964750D01*
X91426156Y-40630801D01*
X91225338Y-40330256D01*
X90969744Y-40074662D01*
X90669199Y-39873844D01*
X90335250Y-39735518D01*
X89980732Y-39665000D01*
X89619268Y-39665000D01*
X89264750Y-39735518D01*
X88930801Y-39873844D01*
X88630256Y-40074662D01*
X88374662Y-40330256D01*
X88173844Y-40630801D01*
X88035518Y-40964750D01*
X87965000Y-41319268D01*
X77985001Y-41319268D01*
X77985001Y-39689321D01*
X77988677Y-39651998D01*
X77985001Y-39614675D01*
X77985001Y-39614666D01*
X77974004Y-39503013D01*
X77930547Y-39359752D01*
X77859975Y-39227723D01*
X77846812Y-39211684D01*
X77788800Y-39140995D01*
X77788796Y-39140991D01*
X77765002Y-39111998D01*
X77736009Y-39088204D01*
X76467073Y-37819268D01*
X82665000Y-37819268D01*
X82665000Y-38180732D01*
X82735518Y-38535250D01*
X82873844Y-38869199D01*
X83074662Y-39169744D01*
X83330256Y-39425338D01*
X83630801Y-39626156D01*
X83964750Y-39764482D01*
X84319268Y-39835000D01*
X84680732Y-39835000D01*
X85035250Y-39764482D01*
X85369199Y-39626156D01*
X85669744Y-39425338D01*
X85925338Y-39169744D01*
X86126156Y-38869199D01*
X86264482Y-38535250D01*
X86335000Y-38180732D01*
X86335000Y-37819268D01*
X86264482Y-37464750D01*
X86126156Y-37130801D01*
X85925338Y-36830256D01*
X85669744Y-36574662D01*
X85369199Y-36373844D01*
X85035250Y-36235518D01*
X84680732Y-36165000D01*
X84319268Y-36165000D01*
X83964750Y-36235518D01*
X83630801Y-36373844D01*
X83330256Y-36574662D01*
X83074662Y-36830256D01*
X82873844Y-37130801D01*
X82735518Y-37464750D01*
X82665000Y-37819268D01*
X76467073Y-37819268D01*
X75127002Y-36479198D01*
X75127002Y-36376252D01*
X75285750Y-36535000D01*
X75900000Y-36538072D01*
X76024482Y-36525812D01*
X76144180Y-36489502D01*
X76254494Y-36430537D01*
X76351185Y-36351185D01*
X76430537Y-36254494D01*
X76489502Y-36144180D01*
X76495056Y-36125873D01*
X76561495Y-36192312D01*
X76812905Y-36360299D01*
X77092257Y-36476011D01*
X77388816Y-36535000D01*
X77691184Y-36535000D01*
X77987743Y-36476011D01*
X78267095Y-36360299D01*
X78518505Y-36192312D01*
X78732312Y-35978505D01*
X78818176Y-35850000D01*
X87851928Y-35850000D01*
X87864188Y-35974482D01*
X87900498Y-36094180D01*
X87959463Y-36204494D01*
X88038815Y-36301185D01*
X88135506Y-36380537D01*
X88245820Y-36439502D01*
X88365518Y-36475812D01*
X88490000Y-36488072D01*
X89054250Y-36485000D01*
X89212998Y-36326252D01*
X89212998Y-36485000D01*
X89297513Y-36485000D01*
X89198102Y-36504774D01*
X89009744Y-36582795D01*
X88840226Y-36696063D01*
X88696063Y-36840226D01*
X88582795Y-37009744D01*
X88504774Y-37198102D01*
X88465000Y-37398061D01*
X88465000Y-37601939D01*
X88504774Y-37801898D01*
X88582795Y-37990256D01*
X88696063Y-38159774D01*
X88840226Y-38303937D01*
X89009744Y-38417205D01*
X89198102Y-38495226D01*
X89398061Y-38535000D01*
X89601939Y-38535000D01*
X89801898Y-38495226D01*
X89990256Y-38417205D01*
X90159774Y-38303937D01*
X90203711Y-38260000D01*
X96962678Y-38260000D01*
X97000000Y-38263676D01*
X97037322Y-38260000D01*
X97037333Y-38260000D01*
X97148986Y-38249003D01*
X97292247Y-38205546D01*
X97424276Y-38134974D01*
X97540001Y-38040001D01*
X97563804Y-38010997D01*
X99133592Y-36441210D01*
X99353740Y-36485000D01*
X99646260Y-36485000D01*
X99933158Y-36427932D01*
X100203411Y-36315990D01*
X100446632Y-36153475D01*
X100653475Y-35946632D01*
X100770000Y-35772240D01*
X100886525Y-35946632D01*
X101093368Y-36153475D01*
X101336589Y-36315990D01*
X101606842Y-36427932D01*
X101893740Y-36485000D01*
X102186260Y-36485000D01*
X102473158Y-36427932D01*
X102743411Y-36315990D01*
X102986632Y-36153475D01*
X103193475Y-35946632D01*
X103355990Y-35703411D01*
X103467932Y-35433158D01*
X103525000Y-35146260D01*
X103525000Y-34853740D01*
X103488757Y-34671531D01*
X106665000Y-34671531D01*
X106665000Y-35328469D01*
X106793162Y-35972784D01*
X107044561Y-36579715D01*
X107409536Y-37125939D01*
X107874061Y-37590464D01*
X108420285Y-37955439D01*
X109027216Y-38206838D01*
X109671531Y-38335000D01*
X110328469Y-38335000D01*
X110972784Y-38206838D01*
X111579715Y-37955439D01*
X112125939Y-37590464D01*
X112590464Y-37125939D01*
X112955439Y-36579715D01*
X113206838Y-35972784D01*
X113335000Y-35328469D01*
X113335000Y-34671531D01*
X113206838Y-34027216D01*
X112955439Y-33420285D01*
X112590464Y-32874061D01*
X112125939Y-32409536D01*
X111579715Y-32044561D01*
X110972784Y-31793162D01*
X110328469Y-31665000D01*
X109671531Y-31665000D01*
X109027216Y-31793162D01*
X108420285Y-32044561D01*
X107874061Y-32409536D01*
X107409536Y-32874061D01*
X107044561Y-33420285D01*
X106793162Y-34027216D01*
X106665000Y-34671531D01*
X103488757Y-34671531D01*
X103467932Y-34566842D01*
X103355990Y-34296589D01*
X103193475Y-34053368D01*
X102986632Y-33846525D01*
X102743411Y-33684010D01*
X102473158Y-33572068D01*
X102186260Y-33515000D01*
X101893740Y-33515000D01*
X101606842Y-33572068D01*
X101336589Y-33684010D01*
X101093368Y-33846525D01*
X100886525Y-34053368D01*
X100770000Y-34227760D01*
X100653475Y-34053368D01*
X100446632Y-33846525D01*
X100203411Y-33684010D01*
X99933158Y-33572068D01*
X99646260Y-33515000D01*
X99353740Y-33515000D01*
X99066842Y-33572068D01*
X98796589Y-33684010D01*
X98553368Y-33846525D01*
X98346525Y-34053368D01*
X98230000Y-34227760D01*
X98113475Y-34053368D01*
X97906632Y-33846525D01*
X97663411Y-33684010D01*
X97393158Y-33572068D01*
X97106260Y-33515000D01*
X96813740Y-33515000D01*
X96526842Y-33572068D01*
X96256589Y-33684010D01*
X96013368Y-33846525D01*
X95806525Y-34053368D01*
X95690000Y-34227760D01*
X95573475Y-34053368D01*
X95366632Y-33846525D01*
X95123411Y-33684010D01*
X94853158Y-33572068D01*
X94566260Y-33515000D01*
X94273740Y-33515000D01*
X93986842Y-33572068D01*
X93716589Y-33684010D01*
X93473368Y-33846525D01*
X93266525Y-34053368D01*
X93150000Y-34227760D01*
X93033475Y-34053368D01*
X92826632Y-33846525D01*
X92583411Y-33684010D01*
X92313158Y-33572068D01*
X92026260Y-33515000D01*
X91733740Y-33515000D01*
X91446842Y-33572068D01*
X91176589Y-33684010D01*
X90933368Y-33846525D01*
X90801513Y-33978380D01*
X90779502Y-33905820D01*
X90720537Y-33795506D01*
X90641185Y-33698815D01*
X90544494Y-33619463D01*
X90434180Y-33560498D01*
X90314482Y-33524188D01*
X90190000Y-33511928D01*
X89625750Y-33515000D01*
X89467000Y-33673750D01*
X89467000Y-34873000D01*
X89487000Y-34873000D01*
X89487000Y-35127000D01*
X89467000Y-35127000D01*
X89467000Y-35147000D01*
X89213000Y-35147000D01*
X89213000Y-35127000D01*
X88013750Y-35127000D01*
X87855000Y-35285750D01*
X87851928Y-35850000D01*
X78818176Y-35850000D01*
X78900299Y-35727095D01*
X79016011Y-35447743D01*
X79075000Y-35151184D01*
X79075000Y-34848816D01*
X79016011Y-34552257D01*
X78900299Y-34272905D01*
X78818177Y-34150000D01*
X87851928Y-34150000D01*
X87855000Y-34714250D01*
X88013750Y-34873000D01*
X89213000Y-34873000D01*
X89213000Y-33673750D01*
X89054250Y-33515000D01*
X88490000Y-33511928D01*
X88365518Y-33524188D01*
X88245820Y-33560498D01*
X88135506Y-33619463D01*
X88038815Y-33698815D01*
X87959463Y-33795506D01*
X87900498Y-33905820D01*
X87864188Y-34025518D01*
X87851928Y-34150000D01*
X78818177Y-34150000D01*
X78732312Y-34021495D01*
X78518505Y-33807688D01*
X78267095Y-33639701D01*
X77987743Y-33523989D01*
X77691184Y-33465000D01*
X77388816Y-33465000D01*
X77092257Y-33523989D01*
X76812905Y-33639701D01*
X76561495Y-33807688D01*
X76495056Y-33874127D01*
X76489502Y-33855820D01*
X76430537Y-33745506D01*
X76351185Y-33648815D01*
X76254494Y-33569463D01*
X76144180Y-33510498D01*
X76024482Y-33474188D01*
X75900000Y-33461928D01*
X75285750Y-33465000D01*
X75127000Y-33623750D01*
X75127000Y-34873000D01*
X75147000Y-34873000D01*
X75147000Y-35127000D01*
X75127000Y-35127000D01*
X75127000Y-35147000D01*
X74873000Y-35147000D01*
X74873000Y-35127000D01*
X74853000Y-35127000D01*
X74853000Y-34873000D01*
X74873000Y-34873000D01*
X74873000Y-33623750D01*
X74714250Y-33465000D01*
X74100000Y-33461928D01*
X73975518Y-33474188D01*
X73855820Y-33510498D01*
X73745506Y-33569463D01*
X73648815Y-33648815D01*
X73569463Y-33745506D01*
X73510498Y-33855820D01*
X73474188Y-33975518D01*
X73461928Y-34100000D01*
X73465000Y-34714250D01*
X73623748Y-34872998D01*
X73520801Y-34872998D01*
X72886806Y-34239003D01*
X72863003Y-34209999D01*
X72747278Y-34115026D01*
X72615249Y-34044454D01*
X72471988Y-34000997D01*
X72360335Y-33990000D01*
X72360324Y-33990000D01*
X72323002Y-33986324D01*
X72285680Y-33990000D01*
X70948178Y-33990000D01*
X70823475Y-33803368D01*
X70616632Y-33596525D01*
X70373411Y-33434010D01*
X70103158Y-33322068D01*
X69816260Y-33265000D01*
X69523740Y-33265000D01*
X69236842Y-33322068D01*
X68966589Y-33434010D01*
X68723368Y-33596525D01*
X68516525Y-33803368D01*
X68394805Y-33985534D01*
X68325178Y-33868645D01*
X68130269Y-33652412D01*
X67896920Y-33478359D01*
X67634099Y-33353175D01*
X67486890Y-33308524D01*
X67257000Y-33429845D01*
X67257000Y-34623000D01*
X67277000Y-34623000D01*
X67277000Y-34877000D01*
X67257000Y-34877000D01*
X67257000Y-36070155D01*
X67486890Y-36191476D01*
X67634099Y-36146825D01*
X67896920Y-36021641D01*
X68130269Y-35847588D01*
X68325178Y-35631355D01*
X68394805Y-35514466D01*
X68516525Y-35696632D01*
X68723368Y-35903475D01*
X68966589Y-36065990D01*
X69236842Y-36177932D01*
X69523740Y-36235000D01*
X69816260Y-36235000D01*
X70103158Y-36177932D01*
X70373411Y-36065990D01*
X70616632Y-35903475D01*
X70823475Y-35696632D01*
X70948178Y-35510000D01*
X72008201Y-35510000D01*
X74267244Y-37769045D01*
X74196063Y-37840226D01*
X74082795Y-38009744D01*
X74004774Y-38198102D01*
X73965000Y-38398061D01*
X73965000Y-38601939D01*
X74004774Y-38801898D01*
X74082795Y-38990256D01*
X74196063Y-39159774D01*
X74285119Y-39248830D01*
X74285118Y-44266247D01*
X74241181Y-44310184D01*
X74127913Y-44479702D01*
X74049892Y-44668060D01*
X74010118Y-44868019D01*
X74010118Y-45071897D01*
X74049892Y-45271856D01*
X74116061Y-45431601D01*
X72501600Y-45431601D01*
X72501600Y-45364661D01*
X72461826Y-45164702D01*
X72383805Y-44976344D01*
X72270537Y-44806826D01*
X72226600Y-44762889D01*
X72226600Y-39237111D01*
X72303937Y-39159774D01*
X72417205Y-38990256D01*
X72495226Y-38801898D01*
X72535000Y-38601939D01*
X72535000Y-38398061D01*
X72495226Y-38198102D01*
X72417205Y-38009744D01*
X72303937Y-37840226D01*
X72159774Y-37696063D01*
X71990256Y-37582795D01*
X71801898Y-37504774D01*
X71601939Y-37465000D01*
X71398061Y-37465000D01*
X71198102Y-37504774D01*
X71009744Y-37582795D01*
X70840226Y-37696063D01*
X70696063Y-37840226D01*
X70582795Y-38009744D01*
X70504774Y-38198102D01*
X70465000Y-38398061D01*
X70465000Y-38601939D01*
X70504774Y-38801898D01*
X70582795Y-38990256D01*
X70696063Y-39159774D01*
X70706601Y-39170312D01*
X70706600Y-44762889D01*
X70662663Y-44806826D01*
X70549395Y-44976344D01*
X70471374Y-45164702D01*
X70431600Y-45364661D01*
X70431600Y-45431601D01*
X69506403Y-45431601D01*
X68535000Y-44460199D01*
X68535000Y-44398061D01*
X68495226Y-44198102D01*
X68417205Y-44009744D01*
X68303937Y-43840226D01*
X68159774Y-43696063D01*
X67990256Y-43582795D01*
X67801898Y-43504774D01*
X67601939Y-43465000D01*
X67398061Y-43465000D01*
X67198102Y-43504774D01*
X67009744Y-43582795D01*
X66840226Y-43696063D01*
X66696063Y-43840226D01*
X66582795Y-44009744D01*
X66504774Y-44198102D01*
X66465000Y-44398061D01*
X60827243Y-44398061D01*
X60661033Y-44365000D01*
X60338967Y-44365000D01*
X60023088Y-44427832D01*
X59725537Y-44551082D01*
X59457748Y-44730013D01*
X59230013Y-44957748D01*
X59051082Y-45225537D01*
X58927832Y-45523088D01*
X58865000Y-45838967D01*
X55635000Y-45838967D01*
X55572168Y-45523088D01*
X55448918Y-45225537D01*
X55269987Y-44957748D01*
X55042252Y-44730013D01*
X54774463Y-44551082D01*
X54476912Y-44427832D01*
X54161033Y-44365000D01*
X53838967Y-44365000D01*
X53523088Y-44427832D01*
X53225537Y-44551082D01*
X52957748Y-44730013D01*
X52730013Y-44957748D01*
X52551082Y-45225537D01*
X52427832Y-45523088D01*
X52365000Y-45838967D01*
X50710000Y-45838967D01*
X50710000Y-41338967D01*
X52365000Y-41338967D01*
X52365000Y-41661033D01*
X52427832Y-41976912D01*
X52551082Y-42274463D01*
X52730013Y-42542252D01*
X52957748Y-42769987D01*
X53225537Y-42948918D01*
X53523088Y-43072168D01*
X53838967Y-43135000D01*
X54161033Y-43135000D01*
X54476912Y-43072168D01*
X54774463Y-42948918D01*
X55042252Y-42769987D01*
X55269987Y-42542252D01*
X55448918Y-42274463D01*
X55572168Y-41976912D01*
X55635000Y-41661033D01*
X55635000Y-41338967D01*
X58865000Y-41338967D01*
X58865000Y-41661033D01*
X58927832Y-41976912D01*
X59051082Y-42274463D01*
X59230013Y-42542252D01*
X59457748Y-42769987D01*
X59725537Y-42948918D01*
X60023088Y-43072168D01*
X60338967Y-43135000D01*
X60661033Y-43135000D01*
X60976912Y-43072168D01*
X61274463Y-42948918D01*
X61542252Y-42769987D01*
X61769987Y-42542252D01*
X61948918Y-42274463D01*
X62072168Y-41976912D01*
X62135000Y-41661033D01*
X62135000Y-41338967D01*
X62072168Y-41023088D01*
X61948918Y-40725537D01*
X61769987Y-40457748D01*
X61542252Y-40230013D01*
X61274463Y-40051082D01*
X60976912Y-39927832D01*
X60661033Y-39865000D01*
X60338967Y-39865000D01*
X60023088Y-39927832D01*
X59725537Y-40051082D01*
X59457748Y-40230013D01*
X59230013Y-40457748D01*
X59051082Y-40725537D01*
X58927832Y-41023088D01*
X58865000Y-41338967D01*
X55635000Y-41338967D01*
X55572168Y-41023088D01*
X55448918Y-40725537D01*
X55269987Y-40457748D01*
X55042252Y-40230013D01*
X54774463Y-40051082D01*
X54476912Y-39927832D01*
X54161033Y-39865000D01*
X53838967Y-39865000D01*
X53523088Y-39927832D01*
X53225537Y-40051082D01*
X52957748Y-40230013D01*
X52730013Y-40457748D01*
X52551082Y-40725537D01*
X52427832Y-41023088D01*
X52365000Y-41338967D01*
X50710000Y-41338967D01*
X50710000Y-34671531D01*
X51665000Y-34671531D01*
X51665000Y-35328469D01*
X51793162Y-35972784D01*
X52044561Y-36579715D01*
X52409536Y-37125939D01*
X52874061Y-37590464D01*
X53420285Y-37955439D01*
X54027216Y-38206838D01*
X54671531Y-38335000D01*
X55328469Y-38335000D01*
X55972784Y-38206838D01*
X56579715Y-37955439D01*
X57125939Y-37590464D01*
X57590464Y-37125939D01*
X57955439Y-36579715D01*
X58206838Y-35972784D01*
X58335000Y-35328469D01*
X58335000Y-34671531D01*
X58206838Y-34027216D01*
X58154144Y-33900000D01*
X60561928Y-33900000D01*
X60561928Y-35600000D01*
X60574188Y-35724482D01*
X60610498Y-35844180D01*
X60669463Y-35954494D01*
X60748815Y-36051185D01*
X60845506Y-36130537D01*
X60955820Y-36189502D01*
X61075518Y-36225812D01*
X61200000Y-36238072D01*
X62900000Y-36238072D01*
X63024482Y-36225812D01*
X63144180Y-36189502D01*
X63254494Y-36130537D01*
X63351185Y-36051185D01*
X63430537Y-35954494D01*
X63489502Y-35844180D01*
X63511513Y-35771620D01*
X63643368Y-35903475D01*
X63886589Y-36065990D01*
X64156842Y-36177932D01*
X64443740Y-36235000D01*
X64736260Y-36235000D01*
X65023158Y-36177932D01*
X65293411Y-36065990D01*
X65536632Y-35903475D01*
X65743475Y-35696632D01*
X65865195Y-35514466D01*
X65934822Y-35631355D01*
X66129731Y-35847588D01*
X66363080Y-36021641D01*
X66625901Y-36146825D01*
X66773110Y-36191476D01*
X67003000Y-36070155D01*
X67003000Y-34877000D01*
X66983000Y-34877000D01*
X66983000Y-34623000D01*
X67003000Y-34623000D01*
X67003000Y-33429845D01*
X66773110Y-33308524D01*
X66625901Y-33353175D01*
X66363080Y-33478359D01*
X66129731Y-33652412D01*
X65934822Y-33868645D01*
X65865195Y-33985534D01*
X65743475Y-33803368D01*
X65536632Y-33596525D01*
X65293411Y-33434010D01*
X65023158Y-33322068D01*
X64736260Y-33265000D01*
X64443740Y-33265000D01*
X64156842Y-33322068D01*
X63886589Y-33434010D01*
X63643368Y-33596525D01*
X63511513Y-33728380D01*
X63489502Y-33655820D01*
X63430537Y-33545506D01*
X63351185Y-33448815D01*
X63254494Y-33369463D01*
X63144180Y-33310498D01*
X63024482Y-33274188D01*
X62900000Y-33261928D01*
X61200000Y-33261928D01*
X61075518Y-33274188D01*
X60955820Y-33310498D01*
X60845506Y-33369463D01*
X60748815Y-33448815D01*
X60669463Y-33545506D01*
X60610498Y-33655820D01*
X60574188Y-33775518D01*
X60561928Y-33900000D01*
X58154144Y-33900000D01*
X57955439Y-33420285D01*
X57590464Y-32874061D01*
X57125939Y-32409536D01*
X56579715Y-32044561D01*
X55972784Y-31793162D01*
X55328469Y-31665000D01*
X54671531Y-31665000D01*
X54027216Y-31793162D01*
X53420285Y-32044561D01*
X52874061Y-32409536D01*
X52409536Y-32874061D01*
X52044561Y-33420285D01*
X51793162Y-34027216D01*
X51665000Y-34671531D01*
X50710000Y-34671531D01*
X50710000Y-30710000D01*
X114290000Y-30710000D01*
X114290001Y-99290000D01*
G37*
%TD.AperFunction*%
D34*
X76465002Y-39966803D02*
X76465001Y-43460200D01*
X76460198Y-43465003D01*
X76398061Y-43465003D01*
X76198102Y-43504777D01*
X76009744Y-43582798D01*
X75840226Y-43696066D01*
X75805118Y-43731174D01*
X75805118Y-39306919D01*
X76465002Y-39966803D01*
%TA.AperFunction,Conductor*%
D35*
G36*
X76465002Y-39966803D02*
G01*
X76465001Y-43460200D01*
X76460198Y-43465003D01*
X76398061Y-43465003D01*
X76198102Y-43504777D01*
X76009744Y-43582798D01*
X75840226Y-43696066D01*
X75805118Y-43731174D01*
X75805118Y-39306919D01*
X76465002Y-39966803D01*
G37*
%TD.AperFunction*%
%TD*%
M02*
