%TF.GenerationSoftware,KiCad,Pcbnew,5.1.9*%
%TF.CreationDate,2021-01-28T19:46:00+00:00*%
%TF.ProjectId,OpenWindow_PCB,4f70656e-5769-46e6-946f-775f5043422e,rev?*%
%TF.SameCoordinates,Original*%
%TF.FileFunction,Soldermask,Bot*%
%TF.FilePolarity,Negative*%
%FSLAX46Y46*%
G04 Gerber Fmt 4.6, Leading zero omitted, Abs format (unit mm)*
G04 Created by KiCad (PCBNEW 5.1.9) date 2021-01-28 19:46:00*
%MOMM*%
%LPD*%
G01*
G04 APERTURE LIST*
%ADD10C,5.400000*%
%ADD11R,2.600000X2.600000*%
%ADD12C,2.600000*%
%ADD13O,1.500000X1.050000*%
%ADD14R,1.500000X1.050000*%
%ADD15R,1.600000X1.600000*%
%ADD16C,1.600000*%
%ADD17R,2.400000X2.400000*%
%ADD18O,2.400000X2.400000*%
%ADD19R,1.800000X1.800000*%
%ADD20C,1.800000*%
%ADD21O,2.200000X2.200000*%
%ADD22R,2.200000X2.200000*%
%ADD23O,1.950000X1.700000*%
%ADD24C,1.200000*%
%ADD25R,1.700000X1.700000*%
%ADD26O,1.700000X1.700000*%
%ADD27R,1.800000X1.717500*%
%ADD28O,1.800000X1.717500*%
%ADD29O,1.050000X1.500000*%
%ADD30R,1.050000X1.500000*%
%ADD31C,2.400000*%
%ADD32C,2.000000*%
G04 APERTURE END LIST*
D10*
%TO.C,REF\u002A\u002A*%
X110000000Y-95000000D03*
%TD*%
%TO.C,REF\u002A\u002A*%
X55000000Y-95000000D03*
%TD*%
%TO.C,REF\u002A\u002A*%
X55000000Y-35000000D03*
%TD*%
%TO.C,REF\u002A\u002A*%
X110000000Y-35000000D03*
%TD*%
D11*
%TO.C,J4*%
X106500000Y-60000000D03*
D12*
X106500000Y-54920000D03*
%TD*%
D13*
%TO.C,U1*%
X88500000Y-60770000D03*
X88500000Y-62040000D03*
D14*
X88500000Y-59500000D03*
%TD*%
D15*
%TO.C,C2*%
X89500000Y-67000000D03*
D16*
X87500000Y-67000000D03*
%TD*%
D15*
%TO.C,C3*%
X55000000Y-61000000D03*
D16*
X55000000Y-59000000D03*
%TD*%
%TO.C,C4*%
X87500000Y-54500000D03*
D15*
X89500000Y-54500000D03*
%TD*%
%TO.C,C6*%
X82000000Y-67000000D03*
D16*
X80000000Y-67000000D03*
%TD*%
%TO.C,C8*%
X80000000Y-54500000D03*
D15*
X82000000Y-54500000D03*
%TD*%
D17*
%TO.C,D1*%
X64500000Y-74300000D03*
D18*
X64500000Y-87000000D03*
%TD*%
D19*
%TO.C,D2*%
X75000000Y-35000000D03*
D20*
X77540000Y-35000000D03*
%TD*%
D21*
%TO.C,D3*%
X97500000Y-53340000D03*
D22*
X97500000Y-63500000D03*
%TD*%
%TO.C,D4*%
X97500000Y-88500000D03*
D21*
X97500000Y-78340000D03*
%TD*%
%TO.C,J1*%
G36*
G01*
X55775000Y-75650000D02*
X57225000Y-75650000D01*
G75*
G02*
X57475000Y-75900000I0J-250000D01*
G01*
X57475000Y-77100000D01*
G75*
G02*
X57225000Y-77350000I-250000J0D01*
G01*
X55775000Y-77350000D01*
G75*
G02*
X55525000Y-77100000I0J250000D01*
G01*
X55525000Y-75900000D01*
G75*
G02*
X55775000Y-75650000I250000J0D01*
G01*
G37*
D23*
X56500000Y-79000000D03*
X56500000Y-81500000D03*
X56500000Y-84000000D03*
D24*
X54500000Y-74900000D03*
%TD*%
D25*
%TO.C,J2*%
X61920000Y-35000000D03*
D26*
X64460000Y-35000000D03*
X67000000Y-35000000D03*
%TD*%
D25*
%TO.C,J3*%
X89340000Y-35000000D03*
D26*
X91880000Y-35000000D03*
X94420000Y-35000000D03*
X96960000Y-35000000D03*
X99500000Y-35000000D03*
X102040000Y-35000000D03*
%TD*%
%TO.C,J5*%
G36*
G01*
X109225000Y-48350000D02*
X107775000Y-48350000D01*
G75*
G02*
X107525000Y-48100000I0J250000D01*
G01*
X107525000Y-46900000D01*
G75*
G02*
X107775000Y-46650000I250000J0D01*
G01*
X109225000Y-46650000D01*
G75*
G02*
X109475000Y-46900000I0J-250000D01*
G01*
X109475000Y-48100000D01*
G75*
G02*
X109225000Y-48350000I-250000J0D01*
G01*
G37*
D23*
X108500000Y-45000000D03*
X108500000Y-42500000D03*
%TD*%
D12*
%TO.C,J6*%
X106500000Y-79920000D03*
D11*
X106500000Y-85000000D03*
%TD*%
D27*
%TO.C,Q1*%
X70000000Y-78210000D03*
D28*
X70000000Y-80500000D03*
X70000000Y-82790000D03*
%TD*%
D14*
%TO.C,Q2*%
X82500000Y-95500000D03*
D13*
X82500000Y-92960000D03*
X82500000Y-94230000D03*
%TD*%
D28*
%TO.C,Q3*%
X84500000Y-78000000D03*
X84500000Y-75710000D03*
D27*
X84500000Y-73420000D03*
%TD*%
D29*
%TO.C,Q4*%
X103270000Y-67500000D03*
X104540000Y-67500000D03*
D30*
X102000000Y-67500000D03*
%TD*%
D29*
%TO.C,Q5*%
X100770000Y-94000000D03*
X102040000Y-94000000D03*
D30*
X99500000Y-94000000D03*
%TD*%
D31*
%TO.C,R4*%
X63990000Y-91530000D03*
D18*
X76690000Y-91530000D03*
%TD*%
D31*
%TO.C,R5*%
X71500000Y-67230000D03*
D18*
X71500000Y-54530000D03*
%TD*%
D31*
%TO.C,R6*%
X66500000Y-54530000D03*
D18*
X66500000Y-67230000D03*
%TD*%
%TO.C,R7*%
X61500000Y-54500000D03*
D31*
X61500000Y-67200000D03*
%TD*%
D18*
%TO.C,R8*%
X76690000Y-96500000D03*
D31*
X63990000Y-96500000D03*
%TD*%
D18*
%TO.C,R9*%
X75560000Y-87230000D03*
D31*
X75560000Y-74530000D03*
%TD*%
%TO.C,R10*%
X80000000Y-74530000D03*
D18*
X80000000Y-87230000D03*
%TD*%
D31*
%TO.C,R11*%
X84500000Y-38000000D03*
D18*
X84500000Y-50700000D03*
%TD*%
D31*
%TO.C,R12*%
X107500000Y-73000000D03*
D18*
X94800000Y-73000000D03*
%TD*%
%TO.C,R13*%
X91000000Y-78800000D03*
D31*
X91000000Y-91500000D03*
%TD*%
D18*
%TO.C,R14*%
X102500000Y-41500000D03*
D31*
X89800000Y-41500000D03*
%TD*%
%TO.C,R15*%
X102500000Y-46500000D03*
D18*
X89800000Y-46500000D03*
%TD*%
D32*
%TO.C,SW1*%
X60500000Y-41500000D03*
X60500000Y-46000000D03*
X54000000Y-41500000D03*
X54000000Y-46000000D03*
%TD*%
D14*
%TO.C,U2*%
X81000000Y-59500000D03*
D13*
X81000000Y-62040000D03*
X81000000Y-60770000D03*
%TD*%
M02*
