%TF.GenerationSoftware,KiCad,Pcbnew,5.1.9*%
%TF.CreationDate,2021-01-28T19:46:00+00:00*%
%TF.ProjectId,OpenWindow_PCB,4f70656e-5769-46e6-946f-775f5043422e,rev?*%
%TF.SameCoordinates,Original*%
%TF.FileFunction,Copper,L1,Top*%
%TF.FilePolarity,Positive*%
%FSLAX46Y46*%
G04 Gerber Fmt 4.6, Leading zero omitted, Abs format (unit mm)*
G04 Created by KiCad (PCBNEW 5.1.9) date 2021-01-28 19:46:00*
%MOMM*%
%LPD*%
G01*
G04 APERTURE LIST*
%TA.AperFunction,ComponentPad*%
%ADD10C,5.400000*%
%TD*%
%TA.AperFunction,ComponentPad*%
%ADD11R,2.600000X2.600000*%
%TD*%
%TA.AperFunction,ComponentPad*%
%ADD12C,2.600000*%
%TD*%
%TA.AperFunction,SMDPad,CuDef*%
%ADD13R,1.600000X0.410000*%
%TD*%
%TA.AperFunction,ComponentPad*%
%ADD14O,1.500000X1.050000*%
%TD*%
%TA.AperFunction,ComponentPad*%
%ADD15R,1.500000X1.050000*%
%TD*%
%TA.AperFunction,ComponentPad*%
%ADD16R,1.600000X1.600000*%
%TD*%
%TA.AperFunction,ComponentPad*%
%ADD17C,1.600000*%
%TD*%
%TA.AperFunction,ComponentPad*%
%ADD18R,2.400000X2.400000*%
%TD*%
%TA.AperFunction,ComponentPad*%
%ADD19O,2.400000X2.400000*%
%TD*%
%TA.AperFunction,ComponentPad*%
%ADD20R,1.800000X1.800000*%
%TD*%
%TA.AperFunction,ComponentPad*%
%ADD21C,1.800000*%
%TD*%
%TA.AperFunction,ComponentPad*%
%ADD22O,2.200000X2.200000*%
%TD*%
%TA.AperFunction,ComponentPad*%
%ADD23R,2.200000X2.200000*%
%TD*%
%TA.AperFunction,ComponentPad*%
%ADD24O,1.950000X1.700000*%
%TD*%
%TA.AperFunction,ComponentPad*%
%ADD25R,1.700000X1.700000*%
%TD*%
%TA.AperFunction,ComponentPad*%
%ADD26O,1.700000X1.700000*%
%TD*%
%TA.AperFunction,ComponentPad*%
%ADD27R,1.800000X1.717500*%
%TD*%
%TA.AperFunction,ComponentPad*%
%ADD28O,1.800000X1.717500*%
%TD*%
%TA.AperFunction,ComponentPad*%
%ADD29O,1.050000X1.500000*%
%TD*%
%TA.AperFunction,ComponentPad*%
%ADD30R,1.050000X1.500000*%
%TD*%
%TA.AperFunction,ComponentPad*%
%ADD31C,2.400000*%
%TD*%
%TA.AperFunction,ComponentPad*%
%ADD32C,2.000000*%
%TD*%
%TA.AperFunction,ViaPad*%
%ADD33C,0.800000*%
%TD*%
%TA.AperFunction,Conductor*%
%ADD34C,0.250000*%
%TD*%
G04 APERTURE END LIST*
D10*
%TO.P,REF\u002A\u002A,1*%
%TO.N,N/C*%
X110000000Y-95000000D03*
%TD*%
%TO.P,REF\u002A\u002A,1*%
%TO.N,N/C*%
X55000000Y-95000000D03*
%TD*%
%TO.P,REF\u002A\u002A,1*%
%TO.N,N/C*%
X55000000Y-35000000D03*
%TD*%
%TO.P,REF\u002A\u002A,1*%
%TO.N,N/C*%
X110000000Y-35000000D03*
%TD*%
D11*
%TO.P,J4,1*%
%TO.N,+12V_switched*%
X106500000Y-60000000D03*
D12*
%TO.P,J4,2*%
%TO.N,Net-(D3-Pad2)*%
X106500000Y-54920000D03*
%TD*%
%TO.P,C7,1*%
%TO.N,+3V3*%
%TA.AperFunction,SMDPad,CuDef*%
G36*
G01*
X71795000Y-44312500D02*
X70845000Y-44312500D01*
G75*
G02*
X70595000Y-44062500I0J250000D01*
G01*
X70595000Y-43387500D01*
G75*
G02*
X70845000Y-43137500I250000J0D01*
G01*
X71795000Y-43137500D01*
G75*
G02*
X72045000Y-43387500I0J-250000D01*
G01*
X72045000Y-44062500D01*
G75*
G02*
X71795000Y-44312500I-250000J0D01*
G01*
G37*
%TD.AperFunction*%
%TO.P,C7,2*%
%TO.N,GND*%
%TA.AperFunction,SMDPad,CuDef*%
G36*
G01*
X71795000Y-42237500D02*
X70845000Y-42237500D01*
G75*
G02*
X70595000Y-41987500I0J250000D01*
G01*
X70595000Y-41312500D01*
G75*
G02*
X70845000Y-41062500I250000J0D01*
G01*
X71795000Y-41062500D01*
G75*
G02*
X72045000Y-41312500I0J-250000D01*
G01*
X72045000Y-41987500D01*
G75*
G02*
X71795000Y-42237500I-250000J0D01*
G01*
G37*
%TD.AperFunction*%
%TD*%
D13*
%TO.P,U3,17*%
%TO.N,Net-(U3-Pad17)*%
X79054300Y-44872500D03*
%TO.P,U3,18*%
%TO.N,Net-(U3-Pad18)*%
X79054300Y-44237500D03*
%TO.P,U3,8*%
%TO.N,C2D*%
X73745700Y-44872500D03*
%TO.P,U3,7*%
%TO.N,C2CK*%
X73745700Y-44237500D03*
%TO.P,U3,20*%
%TO.N,Net-(U3-Pad20)*%
X79054300Y-42967500D03*
%TO.P,U3,19*%
%TO.N,CMP0_in*%
X79054300Y-43602500D03*
%TO.P,U3,6*%
%TO.N,+3V3*%
X73745700Y-43602500D03*
%TO.P,U3,5*%
%TO.N,GND*%
X73745700Y-42967500D03*
%TO.P,U3,1*%
%TO.N,Net-(U3-Pad1)*%
X73745700Y-40427500D03*
%TO.P,U3,2*%
%TO.N,Net-(U3-Pad2)*%
X73745700Y-41062500D03*
%TO.P,U3,3*%
%TO.N,Net-(U3-Pad3)*%
X73745700Y-41697500D03*
%TO.P,U3,4*%
%TO.N,CMP0_in*%
X73745700Y-42332500D03*
%TO.P,U3,9*%
%TO.N,Net-(U3-Pad9)*%
X73745700Y-45507500D03*
%TO.P,U3,10*%
%TO.N,Motor_GPIO_1*%
X73745700Y-46142500D03*
%TO.P,U3,11*%
%TO.N,Motor_GPIO_2*%
X73745700Y-46777500D03*
%TO.P,U3,12*%
%TO.N,Net-(U3-Pad12)*%
X73745700Y-47412500D03*
%TO.P,U3,13*%
%TO.N,Net-(U3-Pad13)*%
X79054300Y-47412500D03*
%TO.P,U3,14*%
%TO.N,Net-(U3-Pad14)*%
X79054300Y-46777500D03*
%TO.P,U3,15*%
%TO.N,Net-(U3-Pad15)*%
X79054300Y-46142500D03*
%TO.P,U3,16*%
%TO.N,Net-(U3-Pad16)*%
X79054300Y-45507500D03*
%TO.P,U3,21*%
%TO.N,ADC_in*%
X79054300Y-42332500D03*
%TO.P,U3,22*%
%TO.N,Net-(U3-Pad22)*%
X79054300Y-41697500D03*
%TO.P,U3,23*%
%TO.N,UART1_RX*%
X79054300Y-41062500D03*
%TO.P,U3,24*%
%TO.N,UART1_TX*%
X79054300Y-40427500D03*
%TD*%
D14*
%TO.P,U1,2*%
%TO.N,GND*%
X88500000Y-60770000D03*
%TO.P,U1,3*%
%TO.N,+12V_switched*%
X88500000Y-62040000D03*
D15*
%TO.P,U1,1*%
%TO.N,+5V*%
X88500000Y-59500000D03*
%TD*%
%TO.P,C1,1*%
%TO.N,Net-(C1-Pad1)*%
%TA.AperFunction,SMDPad,CuDef*%
G36*
G01*
X63837500Y-48475000D02*
X63837500Y-47525000D01*
G75*
G02*
X64087500Y-47275000I250000J0D01*
G01*
X64762500Y-47275000D01*
G75*
G02*
X65012500Y-47525000I0J-250000D01*
G01*
X65012500Y-48475000D01*
G75*
G02*
X64762500Y-48725000I-250000J0D01*
G01*
X64087500Y-48725000D01*
G75*
G02*
X63837500Y-48475000I0J250000D01*
G01*
G37*
%TD.AperFunction*%
%TO.P,C1,2*%
%TO.N,GND*%
%TA.AperFunction,SMDPad,CuDef*%
G36*
G01*
X65912500Y-48475000D02*
X65912500Y-47525000D01*
G75*
G02*
X66162500Y-47275000I250000J0D01*
G01*
X66837500Y-47275000D01*
G75*
G02*
X67087500Y-47525000I0J-250000D01*
G01*
X67087500Y-48475000D01*
G75*
G02*
X66837500Y-48725000I-250000J0D01*
G01*
X66162500Y-48725000D01*
G75*
G02*
X65912500Y-48475000I0J250000D01*
G01*
G37*
%TD.AperFunction*%
%TD*%
D16*
%TO.P,C2,1*%
%TO.N,+12V_switched*%
X89500000Y-67000000D03*
D17*
%TO.P,C2,2*%
%TO.N,GND*%
X87500000Y-67000000D03*
%TD*%
D16*
%TO.P,C3,1*%
%TO.N,CMP0_in*%
X55000000Y-61000000D03*
D17*
%TO.P,C3,2*%
%TO.N,GND*%
X55000000Y-59000000D03*
%TD*%
%TO.P,C4,2*%
%TO.N,GND*%
X87500000Y-54500000D03*
D16*
%TO.P,C4,1*%
%TO.N,+5V*%
X89500000Y-54500000D03*
%TD*%
%TO.P,C5,2*%
%TO.N,GND*%
%TA.AperFunction,SMDPad,CuDef*%
G36*
G01*
X69255000Y-42237500D02*
X68305000Y-42237500D01*
G75*
G02*
X68055000Y-41987500I0J250000D01*
G01*
X68055000Y-41312500D01*
G75*
G02*
X68305000Y-41062500I250000J0D01*
G01*
X69255000Y-41062500D01*
G75*
G02*
X69505000Y-41312500I0J-250000D01*
G01*
X69505000Y-41987500D01*
G75*
G02*
X69255000Y-42237500I-250000J0D01*
G01*
G37*
%TD.AperFunction*%
%TO.P,C5,1*%
%TO.N,+3V3*%
%TA.AperFunction,SMDPad,CuDef*%
G36*
G01*
X69255000Y-44312500D02*
X68305000Y-44312500D01*
G75*
G02*
X68055000Y-44062500I0J250000D01*
G01*
X68055000Y-43387500D01*
G75*
G02*
X68305000Y-43137500I250000J0D01*
G01*
X69255000Y-43137500D01*
G75*
G02*
X69505000Y-43387500I0J-250000D01*
G01*
X69505000Y-44062500D01*
G75*
G02*
X69255000Y-44312500I-250000J0D01*
G01*
G37*
%TD.AperFunction*%
%TD*%
%TO.P,C6,1*%
%TO.N,+12V_switched*%
X82000000Y-67000000D03*
D17*
%TO.P,C6,2*%
%TO.N,GND*%
X80000000Y-67000000D03*
%TD*%
%TO.P,C8,2*%
%TO.N,GND*%
X80000000Y-54500000D03*
D16*
%TO.P,C8,1*%
%TO.N,+3V3*%
X82000000Y-54500000D03*
%TD*%
D18*
%TO.P,D1,1*%
%TO.N,GND*%
X64500000Y-74300000D03*
D19*
%TO.P,D1,2*%
%TO.N,+12V*%
X64500000Y-87000000D03*
%TD*%
D20*
%TO.P,D2,1*%
%TO.N,GND*%
X75000000Y-35000000D03*
D21*
%TO.P,D2,2*%
%TO.N,Net-(D2-Pad2)*%
X77540000Y-35000000D03*
%TD*%
D22*
%TO.P,D3,2*%
%TO.N,Net-(D3-Pad2)*%
X97500000Y-53340000D03*
D23*
%TO.P,D3,1*%
%TO.N,+12V_switched*%
X97500000Y-63500000D03*
%TD*%
%TO.P,D4,1*%
%TO.N,+12V_switched*%
X97500000Y-88500000D03*
D22*
%TO.P,D4,2*%
%TO.N,Net-(D4-Pad2)*%
X97500000Y-78340000D03*
%TD*%
%TO.P,J1,1*%
%TO.N,GND*%
%TA.AperFunction,ComponentPad*%
G36*
G01*
X55775000Y-75650000D02*
X57225000Y-75650000D01*
G75*
G02*
X57475000Y-75900000I0J-250000D01*
G01*
X57475000Y-77100000D01*
G75*
G02*
X57225000Y-77350000I-250000J0D01*
G01*
X55775000Y-77350000D01*
G75*
G02*
X55525000Y-77100000I0J250000D01*
G01*
X55525000Y-75900000D01*
G75*
G02*
X55775000Y-75650000I250000J0D01*
G01*
G37*
%TD.AperFunction*%
D24*
%TO.P,J1,2*%
%TO.N,+12V*%
X56500000Y-79000000D03*
%TO.P,J1,3*%
%TO.N,Ignition_in*%
X56500000Y-81500000D03*
%TO.P,J1,4*%
%TO.N,WindowSwitch_in*%
X56500000Y-84000000D03*
%TD*%
D25*
%TO.P,J2,1*%
%TO.N,C2CK*%
X61920000Y-35000000D03*
D26*
%TO.P,J2,2*%
%TO.N,C2D*%
X64460000Y-35000000D03*
%TO.P,J2,3*%
%TO.N,GND*%
X67000000Y-35000000D03*
%TD*%
D25*
%TO.P,J3,1*%
%TO.N,GND*%
X89340000Y-35000000D03*
D26*
%TO.P,J3,2*%
%TO.N,Net-(J3-Pad2)*%
X91880000Y-35000000D03*
%TO.P,J3,3*%
%TO.N,Net-(J3-Pad3)*%
X94420000Y-35000000D03*
%TO.P,J3,4*%
%TO.N,UART1_RX*%
X96960000Y-35000000D03*
%TO.P,J3,5*%
%TO.N,UART1_TX*%
X99500000Y-35000000D03*
%TO.P,J3,6*%
%TO.N,Net-(J3-Pad6)*%
X102040000Y-35000000D03*
%TD*%
%TO.P,J5,1*%
%TO.N,+5V*%
%TA.AperFunction,ComponentPad*%
G36*
G01*
X109225000Y-48350000D02*
X107775000Y-48350000D01*
G75*
G02*
X107525000Y-48100000I0J250000D01*
G01*
X107525000Y-46900000D01*
G75*
G02*
X107775000Y-46650000I250000J0D01*
G01*
X109225000Y-46650000D01*
G75*
G02*
X109475000Y-46900000I0J-250000D01*
G01*
X109475000Y-48100000D01*
G75*
G02*
X109225000Y-48350000I-250000J0D01*
G01*
G37*
%TD.AperFunction*%
D24*
%TO.P,J5,2*%
%TO.N,Net-(J5-Pad2)*%
X108500000Y-45000000D03*
%TO.P,J5,3*%
%TO.N,GND*%
X108500000Y-42500000D03*
%TD*%
D12*
%TO.P,J6,2*%
%TO.N,Net-(D4-Pad2)*%
X106500000Y-79920000D03*
D11*
%TO.P,J6,1*%
%TO.N,+12V_switched*%
X106500000Y-85000000D03*
%TD*%
D27*
%TO.P,Q1,1*%
%TO.N,GND*%
X70000000Y-78210000D03*
D28*
%TO.P,Q1,2*%
%TO.N,+12V*%
X70000000Y-80500000D03*
%TO.P,Q1,3*%
%TO.N,Net-(Q1-Pad3)*%
X70000000Y-82790000D03*
%TD*%
D15*
%TO.P,Q2,1*%
%TO.N,GND*%
X82500000Y-95500000D03*
D14*
%TO.P,Q2,3*%
%TO.N,Net-(Q2-Pad3)*%
X82500000Y-92960000D03*
%TO.P,Q2,2*%
%TO.N,Net-(Q2-Pad2)*%
X82500000Y-94230000D03*
%TD*%
D28*
%TO.P,Q3,3*%
%TO.N,Net-(Q1-Pad3)*%
X84500000Y-78000000D03*
%TO.P,Q3,2*%
%TO.N,+12V_switched*%
X84500000Y-75710000D03*
D27*
%TO.P,Q3,1*%
%TO.N,Net-(Q3-Pad1)*%
X84500000Y-73420000D03*
%TD*%
D29*
%TO.P,Q4,2*%
%TO.N,Net-(Q4-Pad2)*%
X103270000Y-67500000D03*
%TO.P,Q4,3*%
%TO.N,Net-(D3-Pad2)*%
X104540000Y-67500000D03*
D30*
%TO.P,Q4,1*%
%TO.N,GND*%
X102000000Y-67500000D03*
%TD*%
D29*
%TO.P,Q5,2*%
%TO.N,Net-(Q5-Pad2)*%
X100770000Y-94000000D03*
%TO.P,Q5,3*%
%TO.N,Net-(D4-Pad2)*%
X102040000Y-94000000D03*
D30*
%TO.P,Q5,1*%
%TO.N,GND*%
X99500000Y-94000000D03*
%TD*%
D31*
%TO.P,R4,1*%
%TO.N,Ignition_in*%
X63990000Y-91530000D03*
D19*
%TO.P,R4,2*%
%TO.N,GND*%
X76690000Y-91530000D03*
%TD*%
D31*
%TO.P,R5,1*%
%TO.N,+12V_switched*%
X71500000Y-67230000D03*
D19*
%TO.P,R5,2*%
%TO.N,WindowSwitch_in*%
X71500000Y-54530000D03*
%TD*%
D31*
%TO.P,R6,1*%
%TO.N,WindowSwitch_in*%
X66500000Y-54530000D03*
D19*
%TO.P,R6,2*%
%TO.N,CMP0_in*%
X66500000Y-67230000D03*
%TD*%
%TO.P,R7,2*%
%TO.N,GND*%
X61500000Y-54500000D03*
D31*
%TO.P,R7,1*%
%TO.N,CMP0_in*%
X61500000Y-67200000D03*
%TD*%
D19*
%TO.P,R8,2*%
%TO.N,Net-(Q2-Pad2)*%
X76690000Y-96500000D03*
D31*
%TO.P,R8,1*%
%TO.N,Ignition_in*%
X63990000Y-96500000D03*
%TD*%
D19*
%TO.P,R9,2*%
%TO.N,Net-(Q2-Pad3)*%
X75560000Y-87230000D03*
D31*
%TO.P,R9,1*%
%TO.N,Net-(Q1-Pad3)*%
X75560000Y-74530000D03*
%TD*%
%TO.P,R10,1*%
%TO.N,Net-(Q3-Pad1)*%
X80000000Y-74530000D03*
D19*
%TO.P,R10,2*%
%TO.N,Net-(Q2-Pad3)*%
X80000000Y-87230000D03*
%TD*%
D31*
%TO.P,R11,1*%
%TO.N,Net-(D2-Pad2)*%
X84500000Y-38000000D03*
D19*
%TO.P,R11,2*%
%TO.N,+3V3*%
X84500000Y-50700000D03*
%TD*%
D31*
%TO.P,R12,1*%
%TO.N,Net-(Q4-Pad2)*%
X107500000Y-73000000D03*
D19*
%TO.P,R12,2*%
%TO.N,Motor_GPIO_1*%
X94800000Y-73000000D03*
%TD*%
%TO.P,R13,2*%
%TO.N,Motor_GPIO_2*%
X91000000Y-78800000D03*
D31*
%TO.P,R13,1*%
%TO.N,Net-(Q5-Pad2)*%
X91000000Y-91500000D03*
%TD*%
D19*
%TO.P,R14,2*%
%TO.N,GND*%
X102500000Y-41500000D03*
D31*
%TO.P,R14,1*%
%TO.N,ADC_in*%
X89800000Y-41500000D03*
%TD*%
%TO.P,R15,1*%
%TO.N,Net-(J5-Pad2)*%
X102500000Y-46500000D03*
D19*
%TO.P,R15,2*%
%TO.N,ADC_in*%
X89800000Y-46500000D03*
%TD*%
D32*
%TO.P,SW1,2*%
%TO.N,Net-(R3-Pad2)*%
X60500000Y-41500000D03*
%TO.P,SW1,1*%
%TO.N,Net-(C1-Pad1)*%
X60500000Y-46000000D03*
%TO.P,SW1,2*%
%TO.N,Net-(R3-Pad2)*%
X54000000Y-41500000D03*
%TO.P,SW1,1*%
%TO.N,Net-(C1-Pad1)*%
X54000000Y-46000000D03*
%TD*%
D15*
%TO.P,U2,1*%
%TO.N,+3V3*%
X81000000Y-59500000D03*
D14*
%TO.P,U2,3*%
%TO.N,+12V_switched*%
X81000000Y-62040000D03*
%TO.P,U2,2*%
%TO.N,GND*%
X81000000Y-60770000D03*
%TD*%
%TO.P,R1,1*%
%TO.N,Net-(C1-Pad1)*%
%TA.AperFunction,SMDPad,CuDef*%
G36*
G01*
X64100000Y-45737500D02*
X64100000Y-45262500D01*
G75*
G02*
X64337500Y-45025000I237500J0D01*
G01*
X64837500Y-45025000D01*
G75*
G02*
X65075000Y-45262500I0J-237500D01*
G01*
X65075000Y-45737500D01*
G75*
G02*
X64837500Y-45975000I-237500J0D01*
G01*
X64337500Y-45975000D01*
G75*
G02*
X64100000Y-45737500I0J237500D01*
G01*
G37*
%TD.AperFunction*%
%TO.P,R1,2*%
%TO.N,C2CK*%
%TA.AperFunction,SMDPad,CuDef*%
G36*
G01*
X65925000Y-45737500D02*
X65925000Y-45262500D01*
G75*
G02*
X66162500Y-45025000I237500J0D01*
G01*
X66662500Y-45025000D01*
G75*
G02*
X66900000Y-45262500I0J-237500D01*
G01*
X66900000Y-45737500D01*
G75*
G02*
X66662500Y-45975000I-237500J0D01*
G01*
X66162500Y-45975000D01*
G75*
G02*
X65925000Y-45737500I0J237500D01*
G01*
G37*
%TD.AperFunction*%
%TD*%
%TO.P,R2,2*%
%TO.N,+3V3*%
%TA.AperFunction,SMDPad,CuDef*%
G36*
G01*
X65925000Y-43737500D02*
X65925000Y-43262500D01*
G75*
G02*
X66162500Y-43025000I237500J0D01*
G01*
X66662500Y-43025000D01*
G75*
G02*
X66900000Y-43262500I0J-237500D01*
G01*
X66900000Y-43737500D01*
G75*
G02*
X66662500Y-43975000I-237500J0D01*
G01*
X66162500Y-43975000D01*
G75*
G02*
X65925000Y-43737500I0J237500D01*
G01*
G37*
%TD.AperFunction*%
%TO.P,R2,1*%
%TO.N,Net-(C1-Pad1)*%
%TA.AperFunction,SMDPad,CuDef*%
G36*
G01*
X64100000Y-43737500D02*
X64100000Y-43262500D01*
G75*
G02*
X64337500Y-43025000I237500J0D01*
G01*
X64837500Y-43025000D01*
G75*
G02*
X65075000Y-43262500I0J-237500D01*
G01*
X65075000Y-43737500D01*
G75*
G02*
X64837500Y-43975000I-237500J0D01*
G01*
X64337500Y-43975000D01*
G75*
G02*
X64100000Y-43737500I0J237500D01*
G01*
G37*
%TD.AperFunction*%
%TD*%
%TO.P,R3,1*%
%TO.N,GND*%
%TA.AperFunction,SMDPad,CuDef*%
G36*
G01*
X66812500Y-41262500D02*
X66812500Y-41737500D01*
G75*
G02*
X66575000Y-41975000I-237500J0D01*
G01*
X66075000Y-41975000D01*
G75*
G02*
X65837500Y-41737500I0J237500D01*
G01*
X65837500Y-41262500D01*
G75*
G02*
X66075000Y-41025000I237500J0D01*
G01*
X66575000Y-41025000D01*
G75*
G02*
X66812500Y-41262500I0J-237500D01*
G01*
G37*
%TD.AperFunction*%
%TO.P,R3,2*%
%TO.N,Net-(R3-Pad2)*%
%TA.AperFunction,SMDPad,CuDef*%
G36*
G01*
X64987500Y-41262500D02*
X64987500Y-41737500D01*
G75*
G02*
X64750000Y-41975000I-237500J0D01*
G01*
X64250000Y-41975000D01*
G75*
G02*
X64012500Y-41737500I0J237500D01*
G01*
X64012500Y-41262500D01*
G75*
G02*
X64250000Y-41025000I237500J0D01*
G01*
X64750000Y-41025000D01*
G75*
G02*
X64987500Y-41262500I0J-237500D01*
G01*
G37*
%TD.AperFunction*%
%TD*%
D33*
%TO.N,GND*%
X68000000Y-48000000D03*
X64693203Y-40226335D03*
X76500000Y-43000000D03*
%TO.N,+12V_switched*%
X87000000Y-76000000D03*
%TO.N,CMP0_in*%
X75595701Y-61000000D03*
X73500000Y-61000000D03*
%TO.N,+3V3*%
X76500000Y-44500003D03*
X67500000Y-44500000D03*
%TO.N,C2CK*%
X71466600Y-45466600D03*
X71500000Y-38500000D03*
%TO.N,C2D*%
X75045118Y-44969958D03*
X75000000Y-38500000D03*
%TO.N,UART1_TX*%
X89500000Y-37500000D03*
%TD*%
D34*
%TO.N,Net-(C1-Pad1)*%
X61000000Y-45500000D02*
X60500000Y-46000000D01*
X64587500Y-45500000D02*
X61000000Y-45500000D01*
X54000000Y-46000000D02*
X60500000Y-46000000D01*
X64587500Y-43500000D02*
X64587500Y-45500000D01*
X64587500Y-47837500D02*
X64425000Y-48000000D01*
X64587500Y-45500000D02*
X64587500Y-47837500D01*
%TO.N,GND*%
X71320000Y-41650000D02*
X68780000Y-41650000D01*
X71378200Y-41650000D02*
X71320000Y-41650000D01*
X72695700Y-42967500D02*
X71378200Y-41650000D01*
X73745700Y-42967500D02*
X72695700Y-42967500D01*
X59500000Y-54500000D02*
X55000000Y-59000000D01*
X61500000Y-54500000D02*
X59500000Y-54500000D01*
X66090000Y-74300000D02*
X70000000Y-78210000D01*
X64500000Y-74300000D02*
X66090000Y-74300000D01*
X87424990Y-66924990D02*
X87500000Y-67000000D01*
X87424990Y-60845010D02*
X87424990Y-66924990D01*
X87500000Y-60770000D02*
X87424990Y-60845010D01*
X80409998Y-60770000D02*
X81000000Y-60770000D01*
X79200001Y-59560003D02*
X80409998Y-60770000D01*
X79200001Y-55299999D02*
X79200001Y-59560003D01*
X80000000Y-54500000D02*
X79200001Y-55299999D01*
X87500000Y-60770000D02*
X88500000Y-60770000D01*
X86700001Y-59970001D02*
X87500000Y-60770000D01*
X86700001Y-55299999D02*
X86700001Y-59970001D01*
X87500000Y-54500000D02*
X86700001Y-55299999D01*
X80842905Y-60770000D02*
X81000000Y-60770000D01*
X79200001Y-62412904D02*
X80842905Y-60770000D01*
X79200001Y-66200001D02*
X79200001Y-62412904D01*
X80000000Y-67000000D02*
X79200001Y-66200001D01*
X66500000Y-48000000D02*
X68000000Y-48000000D01*
X65966868Y-41500000D02*
X64693203Y-40226335D01*
X66325000Y-41500000D02*
X65966868Y-41500000D01*
X62300000Y-76500000D02*
X64500000Y-74300000D01*
X56500000Y-76500000D02*
X62300000Y-76500000D01*
X76467500Y-42967500D02*
X76500000Y-43000000D01*
X73745700Y-42967500D02*
X76467500Y-42967500D01*
%TO.N,+12V_switched*%
X89500000Y-63040000D02*
X88500000Y-62040000D01*
X89500000Y-67000000D02*
X89500000Y-63040000D01*
X82000000Y-63040000D02*
X81000000Y-62040000D01*
X82000000Y-67000000D02*
X82000000Y-63040000D01*
X101000000Y-85000000D02*
X97500000Y-88500000D01*
X106500000Y-85000000D02*
X101000000Y-85000000D01*
X86710000Y-75710000D02*
X87000000Y-76000000D01*
X84500000Y-75710000D02*
X86710000Y-75710000D01*
X101000000Y-60000000D02*
X97500000Y-63500000D01*
X106500000Y-60000000D02*
X101000000Y-60000000D01*
%TO.N,CMP0_in*%
X77500000Y-44106800D02*
X77500000Y-47500000D01*
X78004300Y-43602500D02*
X77500000Y-44106800D01*
X79054300Y-43602500D02*
X78004300Y-43602500D01*
X55300000Y-61000000D02*
X61500000Y-67200000D01*
X55000000Y-61000000D02*
X55300000Y-61000000D01*
X66470000Y-67200000D02*
X66500000Y-67230000D01*
X61500000Y-67200000D02*
X66470000Y-67200000D01*
X77500000Y-59095701D02*
X75595701Y-61000000D01*
X77500000Y-47500000D02*
X77500000Y-59095701D01*
X72730000Y-61000000D02*
X66500000Y-67230000D01*
X73500000Y-61000000D02*
X72730000Y-61000000D01*
X73803201Y-42274999D02*
X73745700Y-42332500D01*
X76848001Y-42274999D02*
X73803201Y-42274999D01*
X77500000Y-42926998D02*
X76848001Y-42274999D01*
X77500000Y-47500000D02*
X77500000Y-42926998D01*
%TO.N,+5V*%
X89500000Y-58500000D02*
X88500000Y-59500000D01*
X89500000Y-54500000D02*
X89500000Y-58500000D01*
X96085001Y-51914999D02*
X104085001Y-51914999D01*
X104085001Y-51914999D02*
X108500000Y-47500000D01*
X88500000Y-59500000D02*
X96085001Y-51914999D01*
%TO.N,+3V3*%
X68780000Y-43725000D02*
X71320000Y-43725000D01*
X71442500Y-43602500D02*
X71320000Y-43725000D01*
X73745700Y-43602500D02*
X71442500Y-43602500D01*
X82000000Y-58500000D02*
X81000000Y-59500000D01*
X82000000Y-54500000D02*
X82000000Y-58500000D01*
X76427001Y-44500003D02*
X76500000Y-44500003D01*
X75529498Y-43602500D02*
X76427001Y-44500003D01*
X73745700Y-43602500D02*
X75529498Y-43602500D01*
X66500000Y-43500000D02*
X67500000Y-44500000D01*
X66412500Y-43500000D02*
X66500000Y-43500000D01*
X84500000Y-56000000D02*
X84500000Y-50700000D01*
X81000000Y-59500000D02*
X84500000Y-56000000D01*
%TO.N,+12V*%
X64500000Y-86000000D02*
X70000000Y-80500000D01*
X64500000Y-87000000D02*
X64500000Y-86000000D01*
X56500000Y-79000000D02*
X64500000Y-87000000D01*
%TO.N,Net-(D2-Pad2)*%
X81500000Y-35000000D02*
X84500000Y-38000000D01*
X77540000Y-35000000D02*
X81500000Y-35000000D01*
%TO.N,Net-(D3-Pad2)*%
X99080000Y-54920000D02*
X97500000Y-53340000D01*
X106500000Y-54920000D02*
X99080000Y-54920000D01*
X108125001Y-56545001D02*
X106500000Y-54920000D01*
X108125001Y-63914999D02*
X108125001Y-56545001D01*
X104540000Y-67500000D02*
X108125001Y-63914999D01*
%TO.N,Net-(D4-Pad2)*%
X99080000Y-79920000D02*
X97500000Y-78340000D01*
X106500000Y-79920000D02*
X99080000Y-79920000D01*
X108125001Y-81545001D02*
X106500000Y-79920000D01*
X108125001Y-87914999D02*
X108125001Y-81545001D01*
X102040000Y-94000000D02*
X108125001Y-87914999D01*
%TO.N,Ignition_in*%
X63990000Y-91530000D02*
X63990000Y-96500000D01*
X63990000Y-88990000D02*
X63990000Y-91530000D01*
X56500000Y-81500000D02*
X63990000Y-88990000D01*
%TO.N,WindowSwitch_in*%
X71500000Y-54530000D02*
X66500000Y-54530000D01*
X53574999Y-81074999D02*
X56500000Y-84000000D01*
X53574999Y-58759999D02*
X53574999Y-81074999D01*
X59359999Y-52974999D02*
X53574999Y-58759999D01*
X64944999Y-52974999D02*
X59359999Y-52974999D01*
X66500000Y-54530000D02*
X64944999Y-52974999D01*
%TO.N,C2CK*%
X71433200Y-45500000D02*
X66412500Y-45500000D01*
X73745700Y-44237500D02*
X72695700Y-44237500D01*
X71466600Y-45466600D02*
X71433200Y-45500000D01*
X72695700Y-44237500D02*
X71466600Y-45466600D01*
X65420000Y-38500000D02*
X71500000Y-38500000D01*
X61920000Y-35000000D02*
X65420000Y-38500000D01*
%TO.N,C2D*%
X73745700Y-44872500D02*
X74947660Y-44872500D01*
X74947660Y-44872500D02*
X75045118Y-44969958D01*
X74274999Y-37774999D02*
X75000000Y-38500000D01*
X67234999Y-37774999D02*
X74274999Y-37774999D01*
X64460000Y-35000000D02*
X67234999Y-37774999D01*
%TO.N,UART1_RX*%
X95784999Y-36175001D02*
X96960000Y-35000000D01*
X91898001Y-36175001D02*
X95784999Y-36175001D01*
X87010502Y-41062500D02*
X91898001Y-36175001D01*
X79054300Y-41062500D02*
X87010502Y-41062500D01*
%TO.N,UART1_TX*%
X86572500Y-40427500D02*
X89500000Y-37500000D01*
X79054300Y-40427500D02*
X86572500Y-40427500D01*
%TO.N,Net-(J5-Pad2)*%
X104000000Y-45000000D02*
X102500000Y-46500000D01*
X108500000Y-45000000D02*
X104000000Y-45000000D01*
%TO.N,Net-(Q1-Pad3)*%
X75560000Y-77230000D02*
X75560000Y-74530000D01*
X70000000Y-82790000D02*
X75560000Y-77230000D01*
X79030000Y-78000000D02*
X84500000Y-78000000D01*
X75560000Y-74530000D02*
X79030000Y-78000000D01*
%TO.N,Net-(Q2-Pad3)*%
X75560000Y-87230000D02*
X80000000Y-87230000D01*
X80000000Y-90460000D02*
X82500000Y-92960000D01*
X80000000Y-87230000D02*
X80000000Y-90460000D01*
%TO.N,Net-(Q2-Pad2)*%
X78960000Y-94230000D02*
X82500000Y-94230000D01*
X76690000Y-96500000D02*
X78960000Y-94230000D01*
%TO.N,Net-(Q3-Pad1)*%
X83390000Y-74530000D02*
X84500000Y-73420000D01*
X80000000Y-74530000D02*
X83390000Y-74530000D01*
%TO.N,Net-(Q4-Pad2)*%
X103270000Y-68770000D02*
X103270000Y-67500000D01*
X107500000Y-73000000D02*
X103270000Y-68770000D01*
%TO.N,Net-(Q5-Pad2)*%
X99270000Y-91500000D02*
X91000000Y-91500000D01*
X100770000Y-93000000D02*
X99270000Y-91500000D01*
X100770000Y-94000000D02*
X100770000Y-93000000D01*
%TO.N,Net-(R3-Pad2)*%
X60500000Y-41500000D02*
X54000000Y-41500000D01*
X64500000Y-41500000D02*
X60500000Y-41500000D01*
%TO.N,Motor_GPIO_2*%
X82500000Y-72000000D02*
X85897056Y-72000000D01*
X91000000Y-77102944D02*
X91000000Y-78800000D01*
X85897056Y-72000000D02*
X91000000Y-77102944D01*
X74420691Y-63920691D02*
X82500000Y-72000000D01*
X74420691Y-52920691D02*
X74420691Y-63920691D01*
X72620699Y-51120699D02*
X74420691Y-52920691D01*
X72620699Y-46947499D02*
X72620699Y-51120699D01*
X72790698Y-46777500D02*
X72620699Y-46947499D01*
X73745700Y-46777500D02*
X72790698Y-46777500D01*
%TO.N,Motor_GPIO_1*%
X74700702Y-46142500D02*
X73745700Y-46142500D01*
X74870701Y-63535703D02*
X74870701Y-46312499D01*
X79459999Y-68125001D02*
X74870701Y-63535703D01*
X83625001Y-68125001D02*
X79459999Y-68125001D01*
X74870701Y-46312499D02*
X74700702Y-46142500D01*
X88500000Y-73000000D02*
X83625001Y-68125001D01*
X94800000Y-73000000D02*
X88500000Y-73000000D01*
%TO.N,ADC_in*%
X89800000Y-41500000D02*
X89800000Y-46500000D01*
X88967500Y-42332500D02*
X89800000Y-41500000D01*
X79054300Y-42332500D02*
X88967500Y-42332500D01*
%TD*%
M02*
