M48
; DRILL file {KiCad 5.1.9} date Thu Jan 28 19:55:44 2021
; FORMAT={-:-/ absolute / inch / decimal}
; #@! TF.CreationDate,2021-01-28T19:55:44+00:00
; #@! TF.GenerationSoftware,Kicad,Pcbnew,5.1.9
; #@! TF.FileFunction,Plated,1,2,PTH
FMAT,2
INCH
T1C0.0157
T2C0.0295
T3C0.0315
T4C0.0354
T5C0.0374
T6C0.0394
T7C0.0433
T8C0.0472
T9C0.0512
T10C0.1063
%
G90
G05
T1
X2.547Y-1.5837
X2.6575Y-1.752
X2.6772Y-1.8898
X2.8136Y-1.79
X2.815Y-1.5157
X2.8937Y-2.4016
X2.9528Y-1.5157
X2.9545Y-1.7705
X2.9762Y-2.4016
X3.0118Y-1.6929
X3.0118Y-1.752
X3.4252Y-2.9921
X3.5236Y-1.4764
T2
X3.189Y-2.3425
X3.189Y-2.3925
X3.189Y-2.4425
X3.248Y-3.6598
X3.248Y-3.7098
X3.248Y-3.7598
X3.4843Y-2.3425
X3.4843Y-2.3925
X3.4843Y-2.4425
X3.9173Y-3.7008
X3.9673Y-3.7008
X4.0157Y-2.6575
X4.0173Y-3.7008
X4.0657Y-2.6575
X4.1157Y-2.6575
T3
X2.1654Y-2.3228
X2.1654Y-2.4016
X3.1496Y-2.1457
X3.1496Y-2.6378
X3.2283Y-2.1457
X3.2283Y-2.6378
X3.4449Y-2.1457
X3.4449Y-2.6378
X3.5236Y-2.1457
X3.5236Y-2.6378
T4
X2.9528Y-1.378
X3.0528Y-1.378
T5
X2.2244Y-3.0118
X2.2244Y-3.1102
X2.2244Y-3.2087
X2.2244Y-3.3071
X4.2717Y-1.6732
X4.2717Y-1.7717
X4.2717Y-1.8701
T6
X2.4378Y-1.378
X2.5378Y-1.378
X2.6378Y-1.378
X3.5173Y-1.378
X3.6173Y-1.378
X3.7173Y-1.378
X3.8173Y-1.378
X3.9173Y-1.378
X4.0173Y-1.378
T7
X2.126Y-1.6339
X2.126Y-1.811
X2.3819Y-1.6339
X2.3819Y-1.811
X2.7559Y-3.0791
X2.7559Y-3.1693
X2.7559Y-3.2594
X3.3268Y-2.8906
X3.3268Y-2.9807
X3.3268Y-3.0709
X3.8386Y-2.1
X3.8386Y-2.5
X3.8386Y-3.0843
X3.8386Y-3.4843
T8
X2.4213Y-2.1457
X2.4213Y-2.6457
X2.5193Y-3.6035
X2.5193Y-3.7992
X2.5394Y-2.9252
X2.5394Y-3.4252
X2.6181Y-2.1469
X2.6181Y-2.6469
X2.815Y-2.1469
X2.815Y-2.6469
X2.9748Y-2.9343
X2.9748Y-3.4343
X3.0193Y-3.6035
X3.0193Y-3.7992
X3.1496Y-2.9343
X3.1496Y-3.4343
X3.3268Y-1.4961
X3.3268Y-1.9961
X3.5354Y-1.6339
X3.5354Y-1.8307
X3.5827Y-3.1024
X3.5827Y-3.6024
X3.7323Y-2.874
X4.0354Y-1.6339
X4.0354Y-1.8307
X4.2323Y-2.874
T9
X4.1929Y-2.1622
X4.1929Y-2.3622
X4.1929Y-3.1465
X4.1929Y-3.3465
T10
X2.1654Y-1.378
X2.1654Y-3.7402
X4.3307Y-1.378
X4.3307Y-3.7402
T0
M30
