%TF.GenerationSoftware,KiCad,Pcbnew,5.1.9*%
%TF.CreationDate,2021-03-21T20:26:03+00:00*%
%TF.ProjectId,OpenWindow_PCB,4f70656e-5769-46e6-946f-775f5043422e,rev?*%
%TF.SameCoordinates,Original*%
%TF.FileFunction,Soldermask,Top*%
%TF.FilePolarity,Negative*%
%FSLAX46Y46*%
G04 Gerber Fmt 4.6, Leading zero omitted, Abs format (unit mm)*
G04 Created by KiCad (PCBNEW 5.1.9) date 2021-03-21 20:26:03*
%MOMM*%
%LPD*%
G01*
G04 APERTURE LIST*
%ADD10R,1.700000X1.700000*%
%ADD11O,1.700000X1.700000*%
%ADD12C,5.400000*%
%ADD13R,2.600000X2.600000*%
%ADD14C,2.600000*%
%ADD15R,1.600000X0.410000*%
%ADD16O,1.500000X1.050000*%
%ADD17R,1.500000X1.050000*%
%ADD18R,1.600000X1.600000*%
%ADD19C,1.600000*%
%ADD20R,2.400000X2.400000*%
%ADD21O,2.400000X2.400000*%
%ADD22R,1.800000X1.800000*%
%ADD23C,1.800000*%
%ADD24O,2.200000X2.200000*%
%ADD25R,2.200000X2.200000*%
%ADD26O,1.950000X1.700000*%
%ADD27C,1.200000*%
%ADD28R,1.800000X1.717500*%
%ADD29O,1.800000X1.717500*%
%ADD30O,1.050000X1.500000*%
%ADD31R,1.050000X1.500000*%
%ADD32C,2.400000*%
%ADD33C,2.000000*%
G04 APERTURE END LIST*
D10*
%TO.C,J2*%
X62050000Y-34750000D03*
D11*
X64590000Y-34750000D03*
X67130000Y-34750000D03*
X69670000Y-34750000D03*
%TD*%
D12*
%TO.C,REF\u002A\u002A*%
X110000000Y-95000000D03*
%TD*%
%TO.C,REF\u002A\u002A*%
X55000000Y-95000000D03*
%TD*%
%TO.C,REF\u002A\u002A*%
X55000000Y-35000000D03*
%TD*%
%TO.C,REF\u002A\u002A*%
X110000000Y-35000000D03*
%TD*%
D13*
%TO.C,J4*%
X106500000Y-60000000D03*
D14*
X106500000Y-54920000D03*
%TD*%
%TO.C,C7*%
G36*
G01*
X71795000Y-44312500D02*
X70845000Y-44312500D01*
G75*
G02*
X70595000Y-44062500I0J250000D01*
G01*
X70595000Y-43387500D01*
G75*
G02*
X70845000Y-43137500I250000J0D01*
G01*
X71795000Y-43137500D01*
G75*
G02*
X72045000Y-43387500I0J-250000D01*
G01*
X72045000Y-44062500D01*
G75*
G02*
X71795000Y-44312500I-250000J0D01*
G01*
G37*
G36*
G01*
X71795000Y-42237500D02*
X70845000Y-42237500D01*
G75*
G02*
X70595000Y-41987500I0J250000D01*
G01*
X70595000Y-41312500D01*
G75*
G02*
X70845000Y-41062500I250000J0D01*
G01*
X71795000Y-41062500D01*
G75*
G02*
X72045000Y-41312500I0J-250000D01*
G01*
X72045000Y-41987500D01*
G75*
G02*
X71795000Y-42237500I-250000J0D01*
G01*
G37*
%TD*%
D15*
%TO.C,U3*%
X79054300Y-44872500D03*
X79054300Y-44237500D03*
X73745700Y-44872500D03*
X73745700Y-44237500D03*
X79054300Y-42967500D03*
X79054300Y-43602500D03*
X73745700Y-43602500D03*
X73745700Y-42967500D03*
X73745700Y-40427500D03*
X73745700Y-41062500D03*
X73745700Y-41697500D03*
X73745700Y-42332500D03*
X73745700Y-45507500D03*
X73745700Y-46142500D03*
X73745700Y-46777500D03*
X73745700Y-47412500D03*
X79054300Y-47412500D03*
X79054300Y-46777500D03*
X79054300Y-46142500D03*
X79054300Y-45507500D03*
X79054300Y-42332500D03*
X79054300Y-41697500D03*
X79054300Y-41062500D03*
X79054300Y-40427500D03*
%TD*%
D16*
%TO.C,U1*%
X88500000Y-60770000D03*
X88500000Y-62040000D03*
D17*
X88500000Y-59500000D03*
%TD*%
%TO.C,C1*%
G36*
G01*
X63837500Y-48475000D02*
X63837500Y-47525000D01*
G75*
G02*
X64087500Y-47275000I250000J0D01*
G01*
X64762500Y-47275000D01*
G75*
G02*
X65012500Y-47525000I0J-250000D01*
G01*
X65012500Y-48475000D01*
G75*
G02*
X64762500Y-48725000I-250000J0D01*
G01*
X64087500Y-48725000D01*
G75*
G02*
X63837500Y-48475000I0J250000D01*
G01*
G37*
G36*
G01*
X65912500Y-48475000D02*
X65912500Y-47525000D01*
G75*
G02*
X66162500Y-47275000I250000J0D01*
G01*
X66837500Y-47275000D01*
G75*
G02*
X67087500Y-47525000I0J-250000D01*
G01*
X67087500Y-48475000D01*
G75*
G02*
X66837500Y-48725000I-250000J0D01*
G01*
X66162500Y-48725000D01*
G75*
G02*
X65912500Y-48475000I0J250000D01*
G01*
G37*
%TD*%
D18*
%TO.C,C2*%
X89500000Y-67000000D03*
D19*
X87500000Y-67000000D03*
%TD*%
D18*
%TO.C,C3*%
X55000000Y-61000000D03*
D19*
X55000000Y-59000000D03*
%TD*%
%TO.C,C4*%
X87500000Y-54500000D03*
D18*
X89500000Y-54500000D03*
%TD*%
%TO.C,C5*%
G36*
G01*
X69255000Y-42237500D02*
X68305000Y-42237500D01*
G75*
G02*
X68055000Y-41987500I0J250000D01*
G01*
X68055000Y-41312500D01*
G75*
G02*
X68305000Y-41062500I250000J0D01*
G01*
X69255000Y-41062500D01*
G75*
G02*
X69505000Y-41312500I0J-250000D01*
G01*
X69505000Y-41987500D01*
G75*
G02*
X69255000Y-42237500I-250000J0D01*
G01*
G37*
G36*
G01*
X69255000Y-44312500D02*
X68305000Y-44312500D01*
G75*
G02*
X68055000Y-44062500I0J250000D01*
G01*
X68055000Y-43387500D01*
G75*
G02*
X68305000Y-43137500I250000J0D01*
G01*
X69255000Y-43137500D01*
G75*
G02*
X69505000Y-43387500I0J-250000D01*
G01*
X69505000Y-44062500D01*
G75*
G02*
X69255000Y-44312500I-250000J0D01*
G01*
G37*
%TD*%
%TO.C,C6*%
X82000000Y-67000000D03*
D19*
X80000000Y-67000000D03*
%TD*%
%TO.C,C8*%
X80000000Y-54500000D03*
D18*
X82000000Y-54500000D03*
%TD*%
D20*
%TO.C,D1*%
X64500000Y-74300000D03*
D21*
X64500000Y-87000000D03*
%TD*%
D22*
%TO.C,D2*%
X75000000Y-35000000D03*
D23*
X77540000Y-35000000D03*
%TD*%
D24*
%TO.C,D3*%
X97500000Y-53340000D03*
D25*
X97500000Y-63500000D03*
%TD*%
%TO.C,D4*%
X97500000Y-88500000D03*
D24*
X97500000Y-78340000D03*
%TD*%
%TO.C,J1*%
G36*
G01*
X55775000Y-75650000D02*
X57225000Y-75650000D01*
G75*
G02*
X57475000Y-75900000I0J-250000D01*
G01*
X57475000Y-77100000D01*
G75*
G02*
X57225000Y-77350000I-250000J0D01*
G01*
X55775000Y-77350000D01*
G75*
G02*
X55525000Y-77100000I0J250000D01*
G01*
X55525000Y-75900000D01*
G75*
G02*
X55775000Y-75650000I250000J0D01*
G01*
G37*
D26*
X56500000Y-79000000D03*
X56500000Y-81500000D03*
X56500000Y-84000000D03*
D27*
X54500000Y-74900000D03*
%TD*%
D10*
%TO.C,J3*%
X89340000Y-35000000D03*
D11*
X91880000Y-35000000D03*
X94420000Y-35000000D03*
X96960000Y-35000000D03*
X99500000Y-35000000D03*
X102040000Y-35000000D03*
%TD*%
%TO.C,J5*%
G36*
G01*
X109225000Y-48350000D02*
X107775000Y-48350000D01*
G75*
G02*
X107525000Y-48100000I0J250000D01*
G01*
X107525000Y-46900000D01*
G75*
G02*
X107775000Y-46650000I250000J0D01*
G01*
X109225000Y-46650000D01*
G75*
G02*
X109475000Y-46900000I0J-250000D01*
G01*
X109475000Y-48100000D01*
G75*
G02*
X109225000Y-48350000I-250000J0D01*
G01*
G37*
D26*
X108500000Y-45000000D03*
X108500000Y-42500000D03*
%TD*%
D14*
%TO.C,J6*%
X106500000Y-79920000D03*
D13*
X106500000Y-85000000D03*
%TD*%
D28*
%TO.C,Q1*%
X70000000Y-78210000D03*
D29*
X70000000Y-80500000D03*
X70000000Y-82790000D03*
%TD*%
D17*
%TO.C,Q2*%
X82500000Y-95500000D03*
D16*
X82500000Y-92960000D03*
X82500000Y-94230000D03*
%TD*%
D29*
%TO.C,Q3*%
X84500000Y-78000000D03*
X84500000Y-75710000D03*
D28*
X84500000Y-73420000D03*
%TD*%
D30*
%TO.C,Q4*%
X103270000Y-67500000D03*
X104540000Y-67500000D03*
D31*
X102000000Y-67500000D03*
%TD*%
D30*
%TO.C,Q5*%
X100770000Y-94000000D03*
X102040000Y-94000000D03*
D31*
X99500000Y-94000000D03*
%TD*%
D32*
%TO.C,R4*%
X63990000Y-91530000D03*
D21*
X76690000Y-91530000D03*
%TD*%
D32*
%TO.C,R5*%
X71500000Y-67230000D03*
D21*
X71500000Y-54530000D03*
%TD*%
D32*
%TO.C,R6*%
X66500000Y-54530000D03*
D21*
X66500000Y-67230000D03*
%TD*%
%TO.C,R7*%
X61500000Y-54500000D03*
D32*
X61500000Y-67200000D03*
%TD*%
D21*
%TO.C,R8*%
X76690000Y-96500000D03*
D32*
X63990000Y-96500000D03*
%TD*%
D21*
%TO.C,R9*%
X75560000Y-87230000D03*
D32*
X75560000Y-74530000D03*
%TD*%
%TO.C,R10*%
X80000000Y-74530000D03*
D21*
X80000000Y-87230000D03*
%TD*%
D32*
%TO.C,R11*%
X84500000Y-38000000D03*
D21*
X84500000Y-50700000D03*
%TD*%
D32*
%TO.C,R12*%
X107500000Y-73000000D03*
D21*
X94800000Y-73000000D03*
%TD*%
%TO.C,R13*%
X91000000Y-78800000D03*
D32*
X91000000Y-91500000D03*
%TD*%
D21*
%TO.C,R14*%
X102500000Y-41500000D03*
D32*
X89800000Y-41500000D03*
%TD*%
%TO.C,R15*%
X102500000Y-46500000D03*
D21*
X89800000Y-46500000D03*
%TD*%
D33*
%TO.C,SW1*%
X60500000Y-41500000D03*
X60500000Y-46000000D03*
X54000000Y-41500000D03*
X54000000Y-46000000D03*
%TD*%
D17*
%TO.C,U2*%
X81000000Y-59500000D03*
D16*
X81000000Y-62040000D03*
X81000000Y-60770000D03*
%TD*%
%TO.C,R1*%
G36*
G01*
X64100000Y-45737500D02*
X64100000Y-45262500D01*
G75*
G02*
X64337500Y-45025000I237500J0D01*
G01*
X64837500Y-45025000D01*
G75*
G02*
X65075000Y-45262500I0J-237500D01*
G01*
X65075000Y-45737500D01*
G75*
G02*
X64837500Y-45975000I-237500J0D01*
G01*
X64337500Y-45975000D01*
G75*
G02*
X64100000Y-45737500I0J237500D01*
G01*
G37*
G36*
G01*
X65925000Y-45737500D02*
X65925000Y-45262500D01*
G75*
G02*
X66162500Y-45025000I237500J0D01*
G01*
X66662500Y-45025000D01*
G75*
G02*
X66900000Y-45262500I0J-237500D01*
G01*
X66900000Y-45737500D01*
G75*
G02*
X66662500Y-45975000I-237500J0D01*
G01*
X66162500Y-45975000D01*
G75*
G02*
X65925000Y-45737500I0J237500D01*
G01*
G37*
%TD*%
%TO.C,R2*%
G36*
G01*
X65925000Y-43737500D02*
X65925000Y-43262500D01*
G75*
G02*
X66162500Y-43025000I237500J0D01*
G01*
X66662500Y-43025000D01*
G75*
G02*
X66900000Y-43262500I0J-237500D01*
G01*
X66900000Y-43737500D01*
G75*
G02*
X66662500Y-43975000I-237500J0D01*
G01*
X66162500Y-43975000D01*
G75*
G02*
X65925000Y-43737500I0J237500D01*
G01*
G37*
G36*
G01*
X64100000Y-43737500D02*
X64100000Y-43262500D01*
G75*
G02*
X64337500Y-43025000I237500J0D01*
G01*
X64837500Y-43025000D01*
G75*
G02*
X65075000Y-43262500I0J-237500D01*
G01*
X65075000Y-43737500D01*
G75*
G02*
X64837500Y-43975000I-237500J0D01*
G01*
X64337500Y-43975000D01*
G75*
G02*
X64100000Y-43737500I0J237500D01*
G01*
G37*
%TD*%
%TO.C,R3*%
G36*
G01*
X66812500Y-41262500D02*
X66812500Y-41737500D01*
G75*
G02*
X66575000Y-41975000I-237500J0D01*
G01*
X66075000Y-41975000D01*
G75*
G02*
X65837500Y-41737500I0J237500D01*
G01*
X65837500Y-41262500D01*
G75*
G02*
X66075000Y-41025000I237500J0D01*
G01*
X66575000Y-41025000D01*
G75*
G02*
X66812500Y-41262500I0J-237500D01*
G01*
G37*
G36*
G01*
X64987500Y-41262500D02*
X64987500Y-41737500D01*
G75*
G02*
X64750000Y-41975000I-237500J0D01*
G01*
X64250000Y-41975000D01*
G75*
G02*
X64012500Y-41737500I0J237500D01*
G01*
X64012500Y-41262500D01*
G75*
G02*
X64250000Y-41025000I237500J0D01*
G01*
X64750000Y-41025000D01*
G75*
G02*
X64987500Y-41262500I0J-237500D01*
G01*
G37*
%TD*%
M02*
