solid OpenSCAD_Model
  facet normal -0.453991 -0.891006 0
    outer loop
      vertex -0.863729 -3.31118 -1
      vertex -0.515268 -3.48873 1
      vertex -0.863729 -3.31118 1
    endloop
  endfacet
  facet normal -0.453991 -0.891006 -0
    outer loop
      vertex -0.515268 -3.48873 1
      vertex -0.863729 -3.31118 -1
      vertex -0.515268 -3.48873 -1
    endloop
  endfacet
  facet normal -0.891006 -0.453992 0
    outer loop
      vertex -0.0611792 -4.11373 -1
      vertex -0.238729 -3.76527 1
      vertex -0.238729 -3.76527 -1
    endloop
  endfacet
  facet normal -0.891006 -0.453992 0
    outer loop
      vertex -0.238729 -3.76527 1
      vertex -0.0611792 -4.11373 -1
      vertex -0.0611792 -4.11373 1
    endloop
  endfacet
  facet normal -0.987688 -0.156435 0
    outer loop
      vertex 0 -4.5 -1
      vertex -0.0611792 -4.11373 1
      vertex -0.0611792 -4.11373 -1
    endloop
  endfacet
  facet normal -0.987688 -0.156435 0
    outer loop
      vertex -0.0611792 -4.11373 1
      vertex 0 -4.5 -1
      vertex 0 -4.5 1
    endloop
  endfacet
  facet normal -0.707108 -0.707106 0
    outer loop
      vertex -0.238729 -3.76527 -1
      vertex -0.515268 -3.48873 1
      vertex -0.515268 -3.48873 -1
    endloop
  endfacet
  facet normal -0.707108 -0.707106 0
    outer loop
      vertex -0.515268 -3.48873 1
      vertex -0.238729 -3.76527 -1
      vertex -0.238729 -3.76527 1
    endloop
  endfacet
  facet normal 0.987688 -0.156437 0
    outer loop
      vertex -2.5 -4.5 1
      vertex -2.43882 -4.11373 -1
      vertex -2.43882 -4.11373 1
    endloop
  endfacet
  facet normal 0.987688 -0.156437 0
    outer loop
      vertex -2.43882 -4.11373 -1
      vertex -2.5 -4.5 1
      vertex -2.5 -4.5 -1
    endloop
  endfacet
  facet normal 0.707107 -0.707107 0
    outer loop
      vertex -2.26127 -3.76527 1
      vertex -1.98473 -3.48873 -1
      vertex -1.98473 -3.48873 1
    endloop
  endfacet
  facet normal 0.707107 -0.707107 0
    outer loop
      vertex -1.98473 -3.48873 -1
      vertex -2.26127 -3.76527 1
      vertex -2.26127 -3.76527 -1
    endloop
  endfacet
  facet normal 0.156437 -0.987688 0
    outer loop
      vertex -1.63627 -3.31118 -1
      vertex -1.25 -3.25 1
      vertex -1.63627 -3.31118 1
    endloop
  endfacet
  facet normal 0.156437 -0.987688 0
    outer loop
      vertex -1.25 -3.25 1
      vertex -1.63627 -3.31118 -1
      vertex -1.25 -3.25 -1
    endloop
  endfacet
  facet normal -0.156436 -0.987688 0
    outer loop
      vertex -1.25 -3.25 -1
      vertex -0.863729 -3.31118 1
      vertex -1.25 -3.25 1
    endloop
  endfacet
  facet normal -0.156436 -0.987688 -0
    outer loop
      vertex -0.863729 -3.31118 1
      vertex -1.25 -3.25 -1
      vertex -0.863729 -3.31118 -1
    endloop
  endfacet
  facet normal -0.987688 0.156435 0
    outer loop
      vertex -0.0611792 -4.88627 -1
      vertex 0 -4.5 1
      vertex 0 -4.5 -1
    endloop
  endfacet
  facet normal -0.987688 0.156435 0
    outer loop
      vertex 0 -4.5 1
      vertex -0.0611792 -4.88627 -1
      vertex -0.0611792 -4.88627 1
    endloop
  endfacet
  facet normal -0.156436 0.987688 0
    outer loop
      vertex -0.863729 -5.68882 -1
      vertex -1.25 -5.75 1
      vertex -0.863729 -5.68882 1
    endloop
  endfacet
  facet normal -0.156436 0.987688 0
    outer loop
      vertex -1.25 -5.75 1
      vertex -0.863729 -5.68882 -1
      vertex -1.25 -5.75 -1
    endloop
  endfacet
  facet normal -0.707108 0.707106 0
    outer loop
      vertex -0.515268 -5.51127 -1
      vertex -0.238729 -5.23473 1
      vertex -0.238729 -5.23473 -1
    endloop
  endfacet
  facet normal -0.707108 0.707106 0
    outer loop
      vertex -0.238729 -5.23473 1
      vertex -0.515268 -5.51127 -1
      vertex -0.515268 -5.51127 1
    endloop
  endfacet
  facet normal 0.891006 0.453992 0
    outer loop
      vertex -2.26127 -5.23473 1
      vertex -2.43882 -4.88627 -1
      vertex -2.43882 -4.88627 1
    endloop
  endfacet
  facet normal 0.891006 0.453992 0
    outer loop
      vertex -2.43882 -4.88627 -1
      vertex -2.26127 -5.23473 1
      vertex -2.26127 -5.23473 -1
    endloop
  endfacet
  facet normal -0.891006 0.453992 0
    outer loop
      vertex -0.238729 -5.23473 -1
      vertex -0.0611792 -4.88627 1
      vertex -0.0611792 -4.88627 -1
    endloop
  endfacet
  facet normal -0.891006 0.453992 0
    outer loop
      vertex -0.0611792 -4.88627 1
      vertex -0.238729 -5.23473 -1
      vertex -0.238729 -5.23473 1
    endloop
  endfacet
  facet normal 0.891006 -0.453992 0
    outer loop
      vertex -2.43882 -4.11373 1
      vertex -2.26127 -3.76527 -1
      vertex -2.26127 -3.76527 1
    endloop
  endfacet
  facet normal 0.891006 -0.453992 0
    outer loop
      vertex -2.26127 -3.76527 -1
      vertex -2.43882 -4.11373 1
      vertex -2.43882 -4.11373 -1
    endloop
  endfacet
  facet normal -0.453991 0.891006 0
    outer loop
      vertex -0.515268 -5.51127 -1
      vertex -0.863729 -5.68882 1
      vertex -0.515268 -5.51127 1
    endloop
  endfacet
  facet normal -0.453991 0.891006 0
    outer loop
      vertex -0.863729 -5.68882 1
      vertex -0.515268 -5.51127 -1
      vertex -0.863729 -5.68882 -1
    endloop
  endfacet
  facet normal 0.453992 -0.891006 0
    outer loop
      vertex -1.98473 -3.48873 -1
      vertex -1.63627 -3.31118 1
      vertex -1.98473 -3.48873 1
    endloop
  endfacet
  facet normal 0.453992 -0.891006 0
    outer loop
      vertex -1.63627 -3.31118 1
      vertex -1.98473 -3.48873 -1
      vertex -1.63627 -3.31118 -1
    endloop
  endfacet
  facet normal 0.987688 0.156437 0
    outer loop
      vertex -2.43882 -4.88627 1
      vertex -2.5 -4.5 -1
      vertex -2.5 -4.5 1
    endloop
  endfacet
  facet normal 0.987688 0.156437 0
    outer loop
      vertex -2.5 -4.5 -1
      vertex -2.43882 -4.88627 1
      vertex -2.43882 -4.88627 -1
    endloop
  endfacet
  facet normal 0.707107 0.707107 0
    outer loop
      vertex -1.98473 -5.51127 1
      vertex -2.26127 -5.23473 -1
      vertex -2.26127 -5.23473 1
    endloop
  endfacet
  facet normal 0.707107 0.707107 0
    outer loop
      vertex -2.26127 -5.23473 -1
      vertex -1.98473 -5.51127 1
      vertex -1.98473 -5.51127 -1
    endloop
  endfacet
  facet normal 0.453992 0.891006 -0
    outer loop
      vertex -1.63627 -5.68882 -1
      vertex -1.98473 -5.51127 1
      vertex -1.63627 -5.68882 1
    endloop
  endfacet
  facet normal 0.453992 0.891006 0
    outer loop
      vertex -1.98473 -5.51127 1
      vertex -1.63627 -5.68882 -1
      vertex -1.98473 -5.51127 -1
    endloop
  endfacet
  facet normal 0.156437 0.987688 -0
    outer loop
      vertex -1.25 -5.75 -1
      vertex -1.63627 -5.68882 1
      vertex -1.25 -5.75 1
    endloop
  endfacet
  facet normal 0.156437 0.987688 0
    outer loop
      vertex -1.63627 -5.68882 1
      vertex -1.25 -5.75 -1
      vertex -1.63627 -5.68882 -1
    endloop
  endfacet
  facet normal -0.891006 -0.453992 0
    outer loop
      vertex -0.0611792 4.88627 -1
      vertex -0.238729 5.23473 1
      vertex -0.238729 5.23473 -1
    endloop
  endfacet
  facet normal -0.891006 -0.453992 0
    outer loop
      vertex -0.238729 5.23473 1
      vertex -0.0611792 4.88627 -1
      vertex -0.0611792 4.88627 1
    endloop
  endfacet
  facet normal -0.987688 -0.156435 0
    outer loop
      vertex 0 4.5 -1
      vertex -0.0611792 4.88627 1
      vertex -0.0611792 4.88627 -1
    endloop
  endfacet
  facet normal -0.987688 -0.156435 0
    outer loop
      vertex -0.0611792 4.88627 1
      vertex 0 4.5 -1
      vertex 0 4.5 1
    endloop
  endfacet
  facet normal -0.707108 -0.707106 0
    outer loop
      vertex -0.238729 5.23473 -1
      vertex -0.515268 5.51127 1
      vertex -0.515268 5.51127 -1
    endloop
  endfacet
  facet normal -0.707108 -0.707106 0
    outer loop
      vertex -0.515268 5.51127 1
      vertex -0.238729 5.23473 -1
      vertex -0.238729 5.23473 1
    endloop
  endfacet
  facet normal -0.707108 0.707106 0
    outer loop
      vertex -0.515268 3.48873 -1
      vertex -0.238729 3.76527 1
      vertex -0.238729 3.76527 -1
    endloop
  endfacet
  facet normal -0.707108 0.707106 0
    outer loop
      vertex -0.238729 3.76527 1
      vertex -0.515268 3.48873 -1
      vertex -0.515268 3.48873 1
    endloop
  endfacet
  facet normal -0.453991 0.891006 0
    outer loop
      vertex -0.515268 3.48873 -1
      vertex -0.863729 3.31118 1
      vertex -0.515268 3.48873 1
    endloop
  endfacet
  facet normal -0.453991 0.891006 0
    outer loop
      vertex -0.863729 3.31118 1
      vertex -0.515268 3.48873 -1
      vertex -0.863729 3.31118 -1
    endloop
  endfacet
  facet normal -0.987688 0.156435 0
    outer loop
      vertex -0.0611792 4.11373 -1
      vertex 0 4.5 1
      vertex 0 4.5 -1
    endloop
  endfacet
  facet normal -0.987688 0.156435 0
    outer loop
      vertex 0 4.5 1
      vertex -0.0611792 4.11373 -1
      vertex -0.0611792 4.11373 1
    endloop
  endfacet
  facet normal 0.453992 -0.891006 0
    outer loop
      vertex -1.98473 5.51127 -1
      vertex -1.63627 5.68882 1
      vertex -1.98473 5.51127 1
    endloop
  endfacet
  facet normal 0.453992 -0.891006 0
    outer loop
      vertex -1.63627 5.68882 1
      vertex -1.98473 5.51127 -1
      vertex -1.63627 5.68882 -1
    endloop
  endfacet
  facet normal -0.156436 0.987688 0
    outer loop
      vertex -0.863729 3.31118 -1
      vertex -1.25 3.25 1
      vertex -0.863729 3.31118 1
    endloop
  endfacet
  facet normal -0.156436 0.987688 0
    outer loop
      vertex -1.25 3.25 1
      vertex -0.863729 3.31118 -1
      vertex -1.25 3.25 -1
    endloop
  endfacet
  facet normal 0.156437 0.987688 -0
    outer loop
      vertex -1.25 3.25 -1
      vertex -1.63627 3.31118 1
      vertex -1.25 3.25 1
    endloop
  endfacet
  facet normal 0.156437 0.987688 0
    outer loop
      vertex -1.63627 3.31118 1
      vertex -1.25 3.25 -1
      vertex -1.63627 3.31118 -1
    endloop
  endfacet
  facet normal 0.987688 0.156437 0
    outer loop
      vertex -2.43882 4.11373 1
      vertex -2.5 4.5 -1
      vertex -2.5 4.5 1
    endloop
  endfacet
  facet normal 0.987688 0.156437 0
    outer loop
      vertex -2.5 4.5 -1
      vertex -2.43882 4.11373 1
      vertex -2.43882 4.11373 -1
    endloop
  endfacet
  facet normal -0.453991 -0.891006 0
    outer loop
      vertex -0.863729 5.68882 -1
      vertex -0.515268 5.51127 1
      vertex -0.863729 5.68882 1
    endloop
  endfacet
  facet normal -0.453991 -0.891006 -0
    outer loop
      vertex -0.515268 5.51127 1
      vertex -0.863729 5.68882 -1
      vertex -0.515268 5.51127 -1
    endloop
  endfacet
  facet normal 0.891006 0.453992 0
    outer loop
      vertex -2.26127 3.76527 1
      vertex -2.43882 4.11373 -1
      vertex -2.43882 4.11373 1
    endloop
  endfacet
  facet normal 0.891006 0.453992 0
    outer loop
      vertex -2.43882 4.11373 -1
      vertex -2.26127 3.76527 1
      vertex -2.26127 3.76527 -1
    endloop
  endfacet
  facet normal -0.891006 0.453992 0
    outer loop
      vertex -0.238729 3.76527 -1
      vertex -0.0611792 4.11373 1
      vertex -0.0611792 4.11373 -1
    endloop
  endfacet
  facet normal -0.891006 0.453992 0
    outer loop
      vertex -0.0611792 4.11373 1
      vertex -0.238729 3.76527 -1
      vertex -0.238729 3.76527 1
    endloop
  endfacet
  facet normal -0.156436 -0.987688 0
    outer loop
      vertex -1.25 5.75 -1
      vertex -0.863729 5.68882 1
      vertex -1.25 5.75 1
    endloop
  endfacet
  facet normal -0.156436 -0.987688 -0
    outer loop
      vertex -0.863729 5.68882 1
      vertex -1.25 5.75 -1
      vertex -0.863729 5.68882 -1
    endloop
  endfacet
  facet normal 0.156437 -0.987688 0
    outer loop
      vertex -1.63627 5.68882 -1
      vertex -1.25 5.75 1
      vertex -1.63627 5.68882 1
    endloop
  endfacet
  facet normal 0.156437 -0.987688 0
    outer loop
      vertex -1.25 5.75 1
      vertex -1.63627 5.68882 -1
      vertex -1.25 5.75 -1
    endloop
  endfacet
  facet normal 0.987688 -0.156437 0
    outer loop
      vertex -2.5 4.5 1
      vertex -2.43882 4.88627 -1
      vertex -2.43882 4.88627 1
    endloop
  endfacet
  facet normal 0.987688 -0.156437 0
    outer loop
      vertex -2.43882 4.88627 -1
      vertex -2.5 4.5 1
      vertex -2.5 4.5 -1
    endloop
  endfacet
  facet normal 0.707107 0.707107 0
    outer loop
      vertex -1.98473 3.48873 1
      vertex -2.26127 3.76527 -1
      vertex -2.26127 3.76527 1
    endloop
  endfacet
  facet normal 0.707107 0.707107 0
    outer loop
      vertex -2.26127 3.76527 -1
      vertex -1.98473 3.48873 1
      vertex -1.98473 3.48873 -1
    endloop
  endfacet
  facet normal 0.707107 -0.707107 0
    outer loop
      vertex -2.26127 5.23473 1
      vertex -1.98473 5.51127 -1
      vertex -1.98473 5.51127 1
    endloop
  endfacet
  facet normal 0.707107 -0.707107 0
    outer loop
      vertex -1.98473 5.51127 -1
      vertex -2.26127 5.23473 1
      vertex -2.26127 5.23473 -1
    endloop
  endfacet
  facet normal 0.891006 -0.453992 0
    outer loop
      vertex -2.43882 4.88627 1
      vertex -2.26127 5.23473 -1
      vertex -2.26127 5.23473 1
    endloop
  endfacet
  facet normal 0.891006 -0.453992 0
    outer loop
      vertex -2.26127 5.23473 -1
      vertex -2.43882 4.88627 1
      vertex -2.43882 4.88627 -1
    endloop
  endfacet
  facet normal 0.453992 0.891006 -0
    outer loop
      vertex -1.63627 3.31118 -1
      vertex -1.98473 3.48873 1
      vertex -1.63627 3.31118 1
    endloop
  endfacet
  facet normal 0.453992 0.891006 0
    outer loop
      vertex -1.98473 3.48873 1
      vertex -1.63627 3.31118 -1
      vertex -1.98473 3.48873 -1
    endloop
  endfacet
  facet normal 1 -0 0
    outer loop
      vertex 15.75 -6.55 1
      vertex 15.75 6.55 -1
      vertex 15.75 6.55 1
    endloop
  endfacet
  facet normal 1 0 0
    outer loop
      vertex 15.75 6.55 -1
      vertex 15.75 -6.55 1
      vertex 15.75 -6.55 -1
    endloop
  endfacet
  facet normal 0 0 1
    outer loop
      vertex 11.25 4 1
      vertex -0.238729 3.76527 1
      vertex 11.25 -4 1
    endloop
  endfacet
  facet normal 0 0 1
    outer loop
      vertex 11.25 -4 1
      vertex -0.0611792 -4.11373 1
      vertex 0 -4.5 1
    endloop
  endfacet
  facet normal -0 0 1
    outer loop
      vertex -0.238729 -3.76527 1
      vertex 11.25 -4 1
      vertex -0.238729 3.76527 1
    endloop
  endfacet
  facet normal 0 0 1
    outer loop
      vertex 11.25 -4 1
      vertex -0.238729 -3.76527 1
      vertex -0.0611792 -4.11373 1
    endloop
  endfacet
  facet normal -0 0 1
    outer loop
      vertex -0.515268 3.48873 1
      vertex -0.238729 -3.76527 1
      vertex -0.238729 3.76527 1
    endloop
  endfacet
  facet normal 0 0 1
    outer loop
      vertex -0.515268 3.48873 1
      vertex -0.515268 -3.48873 1
      vertex -0.238729 -3.76527 1
    endloop
  endfacet
  facet normal -0 0 1
    outer loop
      vertex -0.863729 3.31118 1
      vertex -0.515268 -3.48873 1
      vertex -0.515268 3.48873 1
    endloop
  endfacet
  facet normal 0 0 1
    outer loop
      vertex -0.863729 3.31118 1
      vertex -0.863729 -3.31118 1
      vertex -0.515268 -3.48873 1
    endloop
  endfacet
  facet normal -0 0 1
    outer loop
      vertex -1.25 3.25 1
      vertex -0.863729 -3.31118 1
      vertex -0.863729 3.31118 1
    endloop
  endfacet
  facet normal 0 0 1
    outer loop
      vertex -1.25 3.25 1
      vertex -1.25 -3.25 1
      vertex -0.863729 -3.31118 1
    endloop
  endfacet
  facet normal 0 0 1
    outer loop
      vertex -1.63627 3.31118 1
      vertex -1.25 -3.25 1
      vertex -1.25 3.25 1
    endloop
  endfacet
  facet normal 0 0 1
    outer loop
      vertex -1.63627 3.31118 1
      vertex -1.63627 -3.31118 1
      vertex -1.25 -3.25 1
    endloop
  endfacet
  facet normal 0 0 1
    outer loop
      vertex -1.98473 3.48873 1
      vertex -1.63627 -3.31118 1
      vertex -1.63627 3.31118 1
    endloop
  endfacet
  facet normal 0 0 1
    outer loop
      vertex -1.98473 3.48873 1
      vertex -1.98473 -3.48873 1
      vertex -1.63627 -3.31118 1
    endloop
  endfacet
  facet normal 0 0 1
    outer loop
      vertex -2.26127 3.76527 1
      vertex -1.98473 -3.48873 1
      vertex -1.98473 3.48873 1
    endloop
  endfacet
  facet normal 0 0 1
    outer loop
      vertex -2.26127 3.76527 1
      vertex -2.26127 -3.76527 1
      vertex -1.98473 -3.48873 1
    endloop
  endfacet
  facet normal -0 0 1
    outer loop
      vertex -9.25 4 1
      vertex -2.26127 3.76527 1
      vertex -2.43882 4.11373 1
    endloop
  endfacet
  facet normal 0 0 1
    outer loop
      vertex -2.26127 3.76527 1
      vertex -9.25 4 1
      vertex -2.26127 -3.76527 1
    endloop
  endfacet
  facet normal 0 0 1
    outer loop
      vertex -9.25 4 1
      vertex -2.43882 4.11373 1
      vertex -2.5 4.5 1
    endloop
  endfacet
  facet normal 0 0 1
    outer loop
      vertex -9.25 -4 1
      vertex -2.26127 -3.76527 1
      vertex -9.25 4 1
    endloop
  endfacet
  facet normal 0 0 1
    outer loop
      vertex 15.75 6.55 1
      vertex 14.25 4 1
      vertex 15.75 -6.55 1
    endloop
  endfacet
  facet normal 0 0 1
    outer loop
      vertex 15.75 6.55 1
      vertex 11.25 4 1
      vertex 14.25 4 1
    endloop
  endfacet
  facet normal -0 0 1
    outer loop
      vertex -0.0611792 4.11373 1
      vertex 11.25 4 1
      vertex 0 4.5 1
    endloop
  endfacet
  facet normal -0 0 1
    outer loop
      vertex -0.515268 5.51127 1
      vertex 11.25 4 1
      vertex 15.75 6.55 1
    endloop
  endfacet
  facet normal 0 0 1
    outer loop
      vertex 11.25 4 1
      vertex -0.0611792 4.88627 1
      vertex 0 4.5 1
    endloop
  endfacet
  facet normal 0 0 1
    outer loop
      vertex 11.25 4 1
      vertex -0.238729 5.23473 1
      vertex -0.0611792 4.88627 1
    endloop
  endfacet
  facet normal 0 0 1
    outer loop
      vertex 11.25 4 1
      vertex -0.515268 5.51127 1
      vertex -0.238729 5.23473 1
    endloop
  endfacet
  facet normal 0 0 1
    outer loop
      vertex 15.75 6.55 1
      vertex -0.863729 5.68882 1
      vertex -0.515268 5.51127 1
    endloop
  endfacet
  facet normal 0 0 1
    outer loop
      vertex 15.75 6.55 1
      vertex -1.25 5.75 1
      vertex -0.863729 5.68882 1
    endloop
  endfacet
  facet normal 0 0 1
    outer loop
      vertex -2.26127 -3.76527 1
      vertex -9.25 -4 1
      vertex -2.43882 -4.11373 1
    endloop
  endfacet
  facet normal 0 0 1
    outer loop
      vertex -2.43882 4.88627 1
      vertex -9.25 4 1
      vertex -2.5 4.5 1
    endloop
  endfacet
  facet normal 0 0 1
    outer loop
      vertex -2.26127 5.23473 1
      vertex -9.25 4 1
      vertex -2.43882 4.88627 1
    endloop
  endfacet
  facet normal 0 0 1
    outer loop
      vertex -1.98473 5.51127 1
      vertex -9.25 4 1
      vertex -2.26127 5.23473 1
    endloop
  endfacet
  facet normal 0 0 1
    outer loop
      vertex -15.75 6.55 1
      vertex -1.98473 5.51127 1
      vertex -1.63627 5.68882 1
    endloop
  endfacet
  facet normal 0 0 1
    outer loop
      vertex -1.98473 5.51127 1
      vertex -15.75 6.55 1
      vertex -9.25 4 1
    endloop
  endfacet
  facet normal 0 0 1
    outer loop
      vertex -12.25 4 1
      vertex -15.75 6.55 1
      vertex -12.25 -4 1
    endloop
  endfacet
  facet normal 0 0 1
    outer loop
      vertex -9.25 4 1
      vertex -15.75 6.55 1
      vertex -12.25 4 1
    endloop
  endfacet
  facet normal 0 0 1
    outer loop
      vertex -1.25 5.75 1
      vertex -15.75 6.55 1
      vertex -1.63627 5.68882 1
    endloop
  endfacet
  facet normal -0 0 1
    outer loop
      vertex -15.75 6.55 1
      vertex -1.25 5.75 1
      vertex 15.75 6.55 1
    endloop
  endfacet
  facet normal -0 0 1
    outer loop
      vertex 14.25 -4 1
      vertex 15.75 -6.55 1
      vertex 14.25 4 1
    endloop
  endfacet
  facet normal -0 0 1
    outer loop
      vertex 11.25 -4 1
      vertex 15.75 -6.55 1
      vertex 14.25 -4 1
    endloop
  endfacet
  facet normal 0 0 1
    outer loop
      vertex -0.238729 3.76527 1
      vertex 11.25 4 1
      vertex -0.0611792 4.11373 1
    endloop
  endfacet
  facet normal 0 0 1
    outer loop
      vertex -0.0611792 -4.88627 1
      vertex 11.25 -4 1
      vertex 0 -4.5 1
    endloop
  endfacet
  facet normal 0 0 1
    outer loop
      vertex -0.238729 -5.23473 1
      vertex 11.25 -4 1
      vertex -0.0611792 -4.88627 1
    endloop
  endfacet
  facet normal 0 0 1
    outer loop
      vertex -0.515268 -5.51127 1
      vertex 11.25 -4 1
      vertex -0.238729 -5.23473 1
    endloop
  endfacet
  facet normal 0 0 1
    outer loop
      vertex 11.25 -4 1
      vertex -0.515268 -5.51127 1
      vertex 15.75 -6.55 1
    endloop
  endfacet
  facet normal -0 0 1
    outer loop
      vertex -0.863729 -5.68882 1
      vertex 15.75 -6.55 1
      vertex -0.515268 -5.51127 1
    endloop
  endfacet
  facet normal -0 0 1
    outer loop
      vertex -1.25 -5.75 1
      vertex 15.75 -6.55 1
      vertex -0.863729 -5.68882 1
    endloop
  endfacet
  facet normal 0 0 1
    outer loop
      vertex -2.43882 -4.11373 1
      vertex -9.25 -4 1
      vertex -2.5 -4.5 1
    endloop
  endfacet
  facet normal 0 0 1
    outer loop
      vertex -2.5 -4.5 1
      vertex -9.25 -4 1
      vertex -2.43882 -4.88627 1
    endloop
  endfacet
  facet normal 0 0 1
    outer loop
      vertex -2.43882 -4.88627 1
      vertex -9.25 -4 1
      vertex -2.26127 -5.23473 1
    endloop
  endfacet
  facet normal 0 0 1
    outer loop
      vertex -9.25 -4 1
      vertex -1.98473 -5.51127 1
      vertex -2.26127 -5.23473 1
    endloop
  endfacet
  facet normal 0 0 1
    outer loop
      vertex -15.75 -6.55 1
      vertex -1.98473 -5.51127 1
      vertex -9.25 -4 1
    endloop
  endfacet
  facet normal 0 0 1
    outer loop
      vertex -15.75 -6.55 1
      vertex -9.25 -4 1
      vertex -12.25 -4 1
    endloop
  endfacet
  facet normal 0 0 1
    outer loop
      vertex -1.25 -5.75 1
      vertex -15.75 -6.55 1
      vertex 15.75 -6.55 1
    endloop
  endfacet
  facet normal 0 0 1
    outer loop
      vertex -1.63627 -5.68882 1
      vertex -15.75 -6.55 1
      vertex -1.25 -5.75 1
    endloop
  endfacet
  facet normal 0 0 1
    outer loop
      vertex -1.98473 -5.51127 1
      vertex -15.75 -6.55 1
      vertex -1.63627 -5.68882 1
    endloop
  endfacet
  facet normal 0 0 1
    outer loop
      vertex -15.75 -6.55 1
      vertex -12.25 -4 1
      vertex -15.75 6.55 1
    endloop
  endfacet
  facet normal 0 0 -1
    outer loop
      vertex 11.25 -4 -1
      vertex -0.238729 -3.76527 -1
      vertex 11.25 4 -1
    endloop
  endfacet
  facet normal 0 0 -1
    outer loop
      vertex 11.25 4 -1
      vertex -0.0611792 4.11373 -1
      vertex 0 4.5 -1
    endloop
  endfacet
  facet normal 0 0 -1
    outer loop
      vertex -0.238729 3.76527 -1
      vertex 11.25 4 -1
      vertex -0.238729 -3.76527 -1
    endloop
  endfacet
  facet normal -0 0 -1
    outer loop
      vertex 11.25 4 -1
      vertex -0.238729 3.76527 -1
      vertex -0.0611792 4.11373 -1
    endloop
  endfacet
  facet normal 0 0 -1
    outer loop
      vertex -0.515268 -3.48873 -1
      vertex -0.238729 3.76527 -1
      vertex -0.238729 -3.76527 -1
    endloop
  endfacet
  facet normal 0 0 -1
    outer loop
      vertex -0.515268 -3.48873 -1
      vertex -0.515268 3.48873 -1
      vertex -0.238729 3.76527 -1
    endloop
  endfacet
  facet normal 0 0 -1
    outer loop
      vertex -0.863729 -3.31118 -1
      vertex -0.515268 3.48873 -1
      vertex -0.515268 -3.48873 -1
    endloop
  endfacet
  facet normal 0 0 -1
    outer loop
      vertex -0.863729 -3.31118 -1
      vertex -0.863729 3.31118 -1
      vertex -0.515268 3.48873 -1
    endloop
  endfacet
  facet normal 0 0 -1
    outer loop
      vertex -1.25 -3.25 -1
      vertex -0.863729 3.31118 -1
      vertex -0.863729 -3.31118 -1
    endloop
  endfacet
  facet normal 0 0 -1
    outer loop
      vertex -1.25 -3.25 -1
      vertex -1.25 3.25 -1
      vertex -0.863729 3.31118 -1
    endloop
  endfacet
  facet normal 0 0 -1
    outer loop
      vertex -1.63627 -3.31118 -1
      vertex -1.25 3.25 -1
      vertex -1.25 -3.25 -1
    endloop
  endfacet
  facet normal 0 0 -1
    outer loop
      vertex -1.63627 -3.31118 -1
      vertex -1.63627 3.31118 -1
      vertex -1.25 3.25 -1
    endloop
  endfacet
  facet normal 0 0 -1
    outer loop
      vertex -1.98473 -3.48873 -1
      vertex -1.63627 3.31118 -1
      vertex -1.63627 -3.31118 -1
    endloop
  endfacet
  facet normal 0 0 -1
    outer loop
      vertex -1.98473 -3.48873 -1
      vertex -1.98473 3.48873 -1
      vertex -1.63627 3.31118 -1
    endloop
  endfacet
  facet normal 0 0 -1
    outer loop
      vertex -2.26127 -3.76527 -1
      vertex -1.98473 3.48873 -1
      vertex -1.98473 -3.48873 -1
    endloop
  endfacet
  facet normal 0 0 -1
    outer loop
      vertex -2.26127 -3.76527 -1
      vertex -2.26127 3.76527 -1
      vertex -1.98473 3.48873 -1
    endloop
  endfacet
  facet normal 0 0 -1
    outer loop
      vertex -9.25 -4 -1
      vertex -2.26127 -3.76527 -1
      vertex -2.43882 -4.11373 -1
    endloop
  endfacet
  facet normal -0 0 -1
    outer loop
      vertex -2.26127 -3.76527 -1
      vertex -9.25 -4 -1
      vertex -2.26127 3.76527 -1
    endloop
  endfacet
  facet normal 0 0 -1
    outer loop
      vertex -9.25 -4 -1
      vertex -2.43882 -4.11373 -1
      vertex -2.5 -4.5 -1
    endloop
  endfacet
  facet normal 0 0 -1
    outer loop
      vertex -9.25 4 -1
      vertex -2.26127 3.76527 -1
      vertex -9.25 -4 -1
    endloop
  endfacet
  facet normal 0 0 -1
    outer loop
      vertex 15.75 -6.55 -1
      vertex 14.25 -4 -1
      vertex 15.75 6.55 -1
    endloop
  endfacet
  facet normal 0 0 -1
    outer loop
      vertex 15.75 -6.55 -1
      vertex 11.25 -4 -1
      vertex 14.25 -4 -1
    endloop
  endfacet
  facet normal 0 0 -1
    outer loop
      vertex -0.0611792 -4.11373 -1
      vertex 11.25 -4 -1
      vertex 0 -4.5 -1
    endloop
  endfacet
  facet normal 0 0 -1
    outer loop
      vertex -0.515268 -5.51127 -1
      vertex 11.25 -4 -1
      vertex 15.75 -6.55 -1
    endloop
  endfacet
  facet normal 0 0 -1
    outer loop
      vertex 11.25 -4 -1
      vertex -0.0611792 -4.88627 -1
      vertex 0 -4.5 -1
    endloop
  endfacet
  facet normal 0 0 -1
    outer loop
      vertex 11.25 -4 -1
      vertex -0.238729 -5.23473 -1
      vertex -0.0611792 -4.88627 -1
    endloop
  endfacet
  facet normal 0 0 -1
    outer loop
      vertex 11.25 -4 -1
      vertex -0.515268 -5.51127 -1
      vertex -0.238729 -5.23473 -1
    endloop
  endfacet
  facet normal 0 0 -1
    outer loop
      vertex 15.75 -6.55 -1
      vertex -0.863729 -5.68882 -1
      vertex -0.515268 -5.51127 -1
    endloop
  endfacet
  facet normal 0 0 -1
    outer loop
      vertex 15.75 -6.55 -1
      vertex -1.25 -5.75 -1
      vertex -0.863729 -5.68882 -1
    endloop
  endfacet
  facet normal 0 0 -1
    outer loop
      vertex -2.26127 3.76527 -1
      vertex -9.25 4 -1
      vertex -2.43882 4.11373 -1
    endloop
  endfacet
  facet normal 0 0 -1
    outer loop
      vertex -2.43882 -4.88627 -1
      vertex -9.25 -4 -1
      vertex -2.5 -4.5 -1
    endloop
  endfacet
  facet normal 0 0 -1
    outer loop
      vertex -2.26127 -5.23473 -1
      vertex -9.25 -4 -1
      vertex -2.43882 -4.88627 -1
    endloop
  endfacet
  facet normal 0 0 -1
    outer loop
      vertex -1.98473 -5.51127 -1
      vertex -9.25 -4 -1
      vertex -2.26127 -5.23473 -1
    endloop
  endfacet
  facet normal 0 0 -1
    outer loop
      vertex -15.75 -6.55 -1
      vertex -1.98473 -5.51127 -1
      vertex -1.63627 -5.68882 -1
    endloop
  endfacet
  facet normal -0 0 -1
    outer loop
      vertex -1.98473 -5.51127 -1
      vertex -15.75 -6.55 -1
      vertex -9.25 -4 -1
    endloop
  endfacet
  facet normal -0 0 -1
    outer loop
      vertex -12.25 -4 -1
      vertex -15.75 -6.55 -1
      vertex -12.25 4 -1
    endloop
  endfacet
  facet normal -0 0 -1
    outer loop
      vertex -9.25 -4 -1
      vertex -15.75 -6.55 -1
      vertex -12.25 -4 -1
    endloop
  endfacet
  facet normal -0 0 -1
    outer loop
      vertex -1.25 -5.75 -1
      vertex -15.75 -6.55 -1
      vertex -1.63627 -5.68882 -1
    endloop
  endfacet
  facet normal 0 0 -1
    outer loop
      vertex -15.75 -6.55 -1
      vertex -1.25 -5.75 -1
      vertex 15.75 -6.55 -1
    endloop
  endfacet
  facet normal 0 0 -1
    outer loop
      vertex 14.25 4 -1
      vertex 15.75 6.55 -1
      vertex 14.25 -4 -1
    endloop
  endfacet
  facet normal 0 0 -1
    outer loop
      vertex 11.25 4 -1
      vertex 15.75 6.55 -1
      vertex 14.25 4 -1
    endloop
  endfacet
  facet normal 0 0 -1
    outer loop
      vertex -0.238729 -3.76527 -1
      vertex 11.25 -4 -1
      vertex -0.0611792 -4.11373 -1
    endloop
  endfacet
  facet normal 0 0 -1
    outer loop
      vertex -0.0611792 4.88627 -1
      vertex 11.25 4 -1
      vertex 0 4.5 -1
    endloop
  endfacet
  facet normal 0 0 -1
    outer loop
      vertex -0.238729 5.23473 -1
      vertex 11.25 4 -1
      vertex -0.0611792 4.88627 -1
    endloop
  endfacet
  facet normal 0 0 -1
    outer loop
      vertex -0.515268 5.51127 -1
      vertex 11.25 4 -1
      vertex -0.238729 5.23473 -1
    endloop
  endfacet
  facet normal 0 0 -1
    outer loop
      vertex 11.25 4 -1
      vertex -0.515268 5.51127 -1
      vertex 15.75 6.55 -1
    endloop
  endfacet
  facet normal 0 0 -1
    outer loop
      vertex -0.863729 5.68882 -1
      vertex 15.75 6.55 -1
      vertex -0.515268 5.51127 -1
    endloop
  endfacet
  facet normal 0 0 -1
    outer loop
      vertex -1.25 5.75 -1
      vertex 15.75 6.55 -1
      vertex -0.863729 5.68882 -1
    endloop
  endfacet
  facet normal -0 0 -1
    outer loop
      vertex -2.43882 4.11373 -1
      vertex -9.25 4 -1
      vertex -2.5 4.5 -1
    endloop
  endfacet
  facet normal -0 0 -1
    outer loop
      vertex -2.5 4.5 -1
      vertex -9.25 4 -1
      vertex -2.43882 4.88627 -1
    endloop
  endfacet
  facet normal -0 0 -1
    outer loop
      vertex -2.43882 4.88627 -1
      vertex -9.25 4 -1
      vertex -2.26127 5.23473 -1
    endloop
  endfacet
  facet normal 0 0 -1
    outer loop
      vertex -9.25 4 -1
      vertex -1.98473 5.51127 -1
      vertex -2.26127 5.23473 -1
    endloop
  endfacet
  facet normal 0 0 -1
    outer loop
      vertex -15.75 6.55 -1
      vertex -1.98473 5.51127 -1
      vertex -9.25 4 -1
    endloop
  endfacet
  facet normal 0 0 -1
    outer loop
      vertex -15.75 6.55 -1
      vertex -9.25 4 -1
      vertex -12.25 4 -1
    endloop
  endfacet
  facet normal 0 0 -1
    outer loop
      vertex -1.25 5.75 -1
      vertex -15.75 6.55 -1
      vertex 15.75 6.55 -1
    endloop
  endfacet
  facet normal 0 0 -1
    outer loop
      vertex -1.63627 5.68882 -1
      vertex -15.75 6.55 -1
      vertex -1.25 5.75 -1
    endloop
  endfacet
  facet normal 0 0 -1
    outer loop
      vertex -1.98473 5.51127 -1
      vertex -15.75 6.55 -1
      vertex -1.63627 5.68882 -1
    endloop
  endfacet
  facet normal 0 0 -1
    outer loop
      vertex -15.75 6.55 -1
      vertex -12.25 4 -1
      vertex -15.75 -6.55 -1
    endloop
  endfacet
  facet normal -1 0 0
    outer loop
      vertex -15.75 -6.55 -1
      vertex -15.75 6.55 1
      vertex -15.75 6.55 -1
    endloop
  endfacet
  facet normal -1 -0 0
    outer loop
      vertex -15.75 6.55 1
      vertex -15.75 -6.55 -1
      vertex -15.75 -6.55 1
    endloop
  endfacet
  facet normal 0 1 -0
    outer loop
      vertex 15.75 6.55 -1
      vertex -15.75 6.55 1
      vertex 15.75 6.55 1
    endloop
  endfacet
  facet normal 0 1 0
    outer loop
      vertex -15.75 6.55 1
      vertex 15.75 6.55 -1
      vertex -15.75 6.55 -1
    endloop
  endfacet
  facet normal 0 -1 0
    outer loop
      vertex -15.75 -6.55 -1
      vertex 15.75 -6.55 1
      vertex -15.75 -6.55 1
    endloop
  endfacet
  facet normal 0 -1 -0
    outer loop
      vertex 15.75 -6.55 1
      vertex -15.75 -6.55 -1
      vertex 15.75 -6.55 -1
    endloop
  endfacet
  facet normal -1 0 0
    outer loop
      vertex -9.25 -4 -1
      vertex -9.25 4 1
      vertex -9.25 4 -1
    endloop
  endfacet
  facet normal -1 -0 0
    outer loop
      vertex -9.25 4 1
      vertex -9.25 -4 -1
      vertex -9.25 -4 1
    endloop
  endfacet
  facet normal 1 -0 0
    outer loop
      vertex -12.25 -4 1
      vertex -12.25 4 -1
      vertex -12.25 4 1
    endloop
  endfacet
  facet normal 1 0 0
    outer loop
      vertex -12.25 4 -1
      vertex -12.25 -4 1
      vertex -12.25 -4 -1
    endloop
  endfacet
  facet normal 0 -1 0
    outer loop
      vertex -12.25 4 -1
      vertex -9.25 4 1
      vertex -12.25 4 1
    endloop
  endfacet
  facet normal 0 -1 -0
    outer loop
      vertex -9.25 4 1
      vertex -12.25 4 -1
      vertex -9.25 4 -1
    endloop
  endfacet
  facet normal 0 1 -0
    outer loop
      vertex -9.25 -4 -1
      vertex -12.25 -4 1
      vertex -9.25 -4 1
    endloop
  endfacet
  facet normal 0 1 0
    outer loop
      vertex -12.25 -4 1
      vertex -9.25 -4 -1
      vertex -12.25 -4 -1
    endloop
  endfacet
  facet normal -1 0 0
    outer loop
      vertex 14.25 -4 -1
      vertex 14.25 4 1
      vertex 14.25 4 -1
    endloop
  endfacet
  facet normal -1 -0 0
    outer loop
      vertex 14.25 4 1
      vertex 14.25 -4 -1
      vertex 14.25 -4 1
    endloop
  endfacet
  facet normal 1 -0 0
    outer loop
      vertex 11.25 -4 1
      vertex 11.25 4 -1
      vertex 11.25 4 1
    endloop
  endfacet
  facet normal 1 0 0
    outer loop
      vertex 11.25 4 -1
      vertex 11.25 -4 1
      vertex 11.25 -4 -1
    endloop
  endfacet
  facet normal 0 -1 0
    outer loop
      vertex 11.25 4 -1
      vertex 14.25 4 1
      vertex 11.25 4 1
    endloop
  endfacet
  facet normal 0 -1 -0
    outer loop
      vertex 14.25 4 1
      vertex 11.25 4 -1
      vertex 14.25 4 -1
    endloop
  endfacet
  facet normal 0 1 -0
    outer loop
      vertex 14.25 -4 -1
      vertex 11.25 -4 1
      vertex 14.25 -4 1
    endloop
  endfacet
  facet normal 0 1 0
    outer loop
      vertex 11.25 -4 1
      vertex 14.25 -4 -1
      vertex 11.25 -4 -1
    endloop
  endfacet
endsolid OpenSCAD_Model
